<svg width="26" height="20" viewBox="0 0 26 20" fill="none" xmlns="http://www.w3.org/2000/svg">
<g clip-path="url(#clip0_241_242)">
<path d="M25.8705 12.0128C25.7058 12.4062 25.4425 12.7247 24.9213 12.8206C24.7284 12.8562 24.5234 12.8651 24.3248 12.8583C24.14 12.852 24.0652 12.9039 24.0212 13.0542C23.6723 14.2349 23.3109 15.413 22.9576 16.5932C22.6357 17.6671 21.6828 18.3842 20.3583 18.5445C20.293 18.5524 20.2288 18.567 20.1289 18.5843C20.2791 18.8384 20.4224 19.0767 20.5601 19.3172C20.6066 19.3978 20.6531 19.4822 20.6726 19.5691C20.7085 19.7279 20.5532 19.9526 20.3772 19.9893C20.1704 20.0322 20.017 19.9484 19.924 19.7975C19.7096 19.4513 19.4959 19.1045 19.2966 18.752C19.2231 18.622 19.1376 18.5723 18.9584 18.5728C15.1529 18.5775 11.3473 18.5775 7.54114 18.5733C7.36954 18.5733 7.2721 18.6095 7.19793 18.7462C7.02569 19.0626 6.82957 19.3706 6.64287 19.6818C6.6127 19.7315 6.58441 19.7823 6.5467 19.8279C6.40778 19.9955 6.16954 20.0474 5.97781 19.9547C5.77603 19.8573 5.71443 19.7032 5.82381 19.5073C5.99164 19.2061 6.17394 18.9107 6.35686 18.6011C6.0325 18.5718 5.7226 18.5702 5.42904 18.512C4.17058 18.2637 3.40558 17.5906 3.08813 16.5571C2.72857 15.3858 2.37907 14.2124 2.02454 13.0401C2.0082 12.9866 1.98368 12.9348 1.95162 12.8525C1.75927 12.8525 1.55937 12.8625 1.36136 12.851C0.682475 12.8117 0.189651 12.3848 0.175194 11.8326C0.159478 11.247 0.6215 10.7933 1.30982 10.7252C1.42422 10.7137 1.49714 10.7069 1.5424 10.5896C1.96105 9.50156 3.2126 9.01964 4.47671 9.45075C4.54586 9.47433 4.61563 9.49633 4.65272 9.5089C4.90731 9.29675 5.1204 9.06888 5.38944 8.90439C6.21291 8.40047 7.34628 8.48585 8.06854 9.08983C8.22821 9.22341 8.39164 9.28522 8.6236 9.31665C9.49798 9.43294 10.0914 9.84991 10.3573 10.5649C10.3963 10.6697 10.4409 10.7221 10.5924 10.7221C14.7826 10.7179 18.9735 10.7184 23.1638 10.7179C23.1971 10.7179 23.2298 10.7127 23.2851 10.708C23.2901 10.6482 23.3002 10.588 23.3002 10.5283C23.3008 8.12336 23.3052 5.71896 23.2989 3.31403C23.2958 2.05735 22.3793 1.06573 20.9982 0.801198C19.4387 0.502088 18.1475 1.19984 17.8345 2.51099C17.8263 2.54504 17.8232 2.58014 17.8112 2.61367C17.7427 2.80382 17.7647 2.91435 18.0482 2.98716C18.8503 3.19303 19.4192 3.86563 19.4418 4.56809C19.4519 4.87453 19.3123 5.00759 18.9452 5.01702C18.6026 5.02592 18.2594 5.01911 17.9162 5.01911C17.1971 5.01911 16.4773 5.02016 15.7582 5.01859C15.2805 5.01754 15.1497 4.89916 15.1787 4.50156C15.2302 3.78705 15.828 3.14955 16.6571 2.95468C16.8338 2.9133 16.8922 2.85044 16.9142 2.70638C17.0267 1.95363 17.3505 1.27841 18.0256 0.747767C19.0238 -0.0364138 20.5582 -0.22709 21.8802 0.29465C23.3762 0.885011 24.1431 1.89339 24.1551 3.26689C24.1752 5.65767 24.1607 8.04845 24.1607 10.4392C24.1607 10.522 24.1607 10.6053 24.1607 10.7195C24.2946 10.7195 24.4159 10.7184 24.5373 10.7195C25.1828 10.7247 25.6103 10.9819 25.819 11.4869C25.829 11.5115 25.8523 11.5319 25.8693 11.5545C25.8705 11.7059 25.8705 11.8593 25.8705 12.0128ZM23.1638 12.8772C16.3881 12.8772 9.6457 12.8772 2.87441 12.8772C3.26288 14.1255 3.61239 15.3622 4.03921 16.5801C4.30699 17.3449 4.98525 17.7792 5.95456 17.8347C6.49578 17.8656 7.04078 17.8541 7.58389 17.8541C11.6729 17.8552 15.7614 17.8531 19.8504 17.8567C20.6337 17.8573 21.2861 17.6456 21.7733 17.1181C22.0794 16.7865 22.1718 16.3905 22.2818 15.9976C22.5716 14.9636 22.8658 13.9306 23.1638 12.8772ZM12.9968 12.1412C16.7929 12.1412 20.589 12.1412 24.3851 12.1406C24.4851 12.1406 24.5876 12.1448 24.685 12.1291C24.8956 12.0945 24.9999 11.9662 25.0031 11.8002C25.0062 11.6378 24.9264 11.4974 24.7076 11.4607C24.602 11.4429 24.4933 11.4329 24.3858 11.4329C16.8099 11.4319 9.2346 11.4319 1.65869 11.4319C1.23439 11.4319 1.04455 11.5388 1.03449 11.7797C1.02443 12.0291 1.21804 12.1417 1.65806 12.1417C5.43784 12.1412 9.21762 12.1412 12.9968 12.1412ZM9.52564 10.7074C9.50112 10.6503 9.48918 10.6032 9.46278 10.5629C9.20317 10.1663 8.78389 9.99659 8.26089 10.0092C8.00568 10.0154 7.83847 9.94892 7.70144 9.7682C7.32931 9.27579 6.52092 9.1485 5.93884 9.47642C5.61511 9.65872 5.45985 9.92692 5.34984 10.2276C5.23481 10.5435 4.91988 10.6074 4.61626 10.3958C4.48237 10.3025 4.34471 10.2077 4.19258 10.1385C3.50804 9.82948 2.6192 10.1181 2.44507 10.7074C4.80044 10.7074 7.1533 10.7074 9.52564 10.7074ZM18.4977 4.2737C18.3864 3.87925 17.9112 3.5969 17.3643 3.59166C16.786 3.5859 16.2793 3.86877 16.153 4.2737C16.935 4.2737 17.7144 4.2737 18.4977 4.2737Z" fill="#3B3533"/>
<path d="M16.8849 7.70203C16.8849 7.62608 16.878 7.54907 16.8862 7.47364C16.9075 7.27301 17.0553 7.15934 17.2916 7.15515C17.5286 7.15096 17.6996 7.25782 17.7266 7.45112C17.7467 7.59465 17.743 7.74237 17.7348 7.88694C17.7216 8.11324 17.5437 8.25311 17.2904 8.24996C17.0383 8.24682 16.8975 8.12372 16.8818 7.88904C16.8774 7.8267 16.8811 7.76437 16.8811 7.70203C16.8818 7.70203 16.8837 7.70203 16.8849 7.70203Z" fill="#3B3533"/>
<path d="M16.04 7.7092C16.0262 7.80506 16.0281 7.90459 15.9954 7.99574C15.93 8.17803 15.7735 8.26551 15.5422 8.2477C15.3196 8.23094 15.1908 8.12775 15.1757 7.94231C15.1631 7.79092 15.1568 7.63691 15.1719 7.48605C15.1939 7.26447 15.3416 7.15551 15.5887 7.15394C15.8332 7.15289 15.9885 7.26604 16.0211 7.47924C16.0325 7.55415 16.023 7.63167 16.023 7.70763C16.0281 7.70868 16.0337 7.70868 16.04 7.7092Z" fill="#3B3533"/>
<path d="M19.4441 7.69551C19.4441 7.77199 19.451 7.84847 19.4428 7.92391C19.4208 8.12139 19.2442 8.2513 19.0097 8.25025C18.7664 8.24921 18.6099 8.12611 18.5967 7.91448C18.5885 7.78299 18.5898 7.65099 18.5948 7.51951C18.6049 7.28168 18.7608 7.15125 19.0254 7.15335C19.2863 7.15544 19.4365 7.28849 19.4466 7.52893C19.4491 7.58446 19.4472 7.63999 19.4472 7.69551C19.4453 7.69551 19.4447 7.69551 19.4441 7.69551Z" fill="#3B3533"/>
<path d="M19.4451 6.1719C19.4445 6.46368 19.3062 6.61035 19.0264 6.61454C18.736 6.61873 18.5908 6.46892 18.5908 6.16667C18.5908 5.87384 18.7279 5.72979 19.0082 5.7256C19.2993 5.72036 19.4451 5.86965 19.4451 6.1719Z" fill="#3B3533"/>
<path d="M16.8782 9.20021C16.8788 8.90843 17.0171 8.76019 17.2943 8.75442C17.5797 8.74866 17.7375 8.90843 17.7375 9.20283C17.7375 9.49041 17.5935 9.64285 17.3163 9.64861C17.0297 9.65437 16.8775 9.49879 16.8782 9.20021Z" fill="#3B3533"/>
<path d="M19.4464 9.19106C19.4477 9.49436 19.3031 9.6489 19.0183 9.64837C18.7405 9.64785 18.594 9.49698 18.5928 9.21097C18.5915 8.9061 18.7336 8.75366 19.0202 8.75366C19.2987 8.75366 19.4452 8.904 19.4464 9.19106Z" fill="#3B3533"/>
<path d="M16.0285 6.16754C16.0285 6.45931 15.8676 6.6196 15.581 6.61384C15.305 6.6086 15.1598 6.45512 15.1592 6.16911C15.1586 5.87471 15.3138 5.71913 15.6036 5.72437C15.8833 5.72961 16.0285 5.881 16.0285 6.16754Z" fill="#3B3533"/>
<path d="M16.8782 6.17388C16.8769 5.87268 17.0228 5.72129 17.3113 5.72391C17.5916 5.72653 17.7362 5.87582 17.7375 6.16288C17.7387 6.46042 17.5866 6.61652 17.2993 6.61391C17.0177 6.61129 16.8794 6.46618 16.8782 6.17388Z" fill="#3B3533"/>
<path d="M15.1592 9.20122C15.1592 8.90945 15.3214 8.74706 15.6055 8.75387C15.8783 8.76015 16.0285 8.9194 16.0285 9.20175C16.0285 9.48671 15.8808 9.64177 15.6042 9.64805C15.3182 9.65434 15.1592 9.49457 15.1592 9.20122Z" fill="#3B3533"/>
</g>
<defs>
<clipPath id="clip0_241_242">
<rect width="25.6953" height="20" fill="white" transform="translate(0.174805)"/>
</clipPath>
</defs>
</svg>
