<svg width="30" height="20" viewBox="0 0 30 20" fill="none" xmlns="http://www.w3.org/2000/svg">
<g clip-path="url(#clip0_241_238)">
<path d="M1.86827 17.7327C0.877151 17.7501 0.987191 17.4868 0.990985 16.8083C0.993262 16.3917 0.990227 15.9751 0.991744 15.5584C0.993262 15.1464 1.14125 15.0007 1.55712 14.9976C1.65957 14.9969 1.76278 14.9976 1.9009 14.9976C1.9009 14.8785 1.9009 14.7783 1.9009 14.6774C1.9009 13.6551 1.94113 12.6306 1.88952 11.6107C1.83716 10.5793 2.45642 9.62917 3.71922 9.51837C3.71922 9.40985 3.71922 9.29829 3.71922 9.18673C3.71922 6.76357 3.71846 4.33965 3.71922 1.91649C3.71922 0.759928 4.47964 0.000270617 5.63772 -0.000488281C11.9335 -0.000488281 18.2294 -0.000488281 24.5252 -0.000488281C25.6825 -0.000488281 26.4437 0.760687 26.4444 1.91649C26.4452 4.33965 26.4444 6.76357 26.4444 9.18673C26.4444 9.29829 26.4444 9.40985 26.4444 9.51685C27.4659 9.66939 28.0351 10.1422 28.224 10.9891C28.2567 11.1348 28.2605 11.2889 28.2612 11.4391C28.2643 12.6116 28.2627 13.7849 28.2627 14.9976C28.4244 14.9976 28.5724 14.9923 28.7196 14.9991C28.992 15.012 29.1651 15.1744 29.1689 15.4454C29.1772 16.051 29.1765 16.6573 29.1696 17.2629C29.1666 17.549 28.9928 17.7107 28.7037 17.7221C28.5716 17.7274 28.4388 17.7228 28.2802 17.7228C28.2741 17.8124 28.2643 17.8936 28.2643 17.9748C28.2627 18.4863 28.2673 18.997 28.262 19.5085C28.259 19.8045 28.0996 19.9866 27.8226 19.9927C27.3589 20.0026 26.8945 20.001 26.4308 19.9927C26.1773 19.9881 26.0399 19.8341 25.9914 19.5912C25.8798 19.0357 25.7614 18.4817 25.6582 17.9247C25.6309 17.7752 25.577 17.7016 25.4207 17.7221C25.3744 17.7281 25.3258 17.7228 25.2788 17.7228C18.4813 17.7228 11.6831 17.7243 4.88565 17.7175C4.63521 17.7175 4.52214 17.7638 4.48268 18.037C4.40754 18.55 4.28612 19.0562 4.17608 19.5639C4.10626 19.8887 3.97421 19.9927 3.64789 19.995C3.25022 19.998 2.85256 19.9972 2.4549 19.995C2.05724 19.9934 1.90394 19.8424 1.90166 19.4501C1.89863 18.9014 1.89863 18.3519 1.89635 17.8033C1.89559 17.7873 1.88269 17.7706 1.86827 17.7327ZM5.53678 9.5381C5.53678 8.91201 5.53299 8.30869 5.53754 7.70536C5.54437 6.71576 6.33666 5.91285 7.3202 5.90981C9.15673 5.9045 10.994 5.90526 12.8306 5.90905C13.6593 5.91057 14.3711 6.46912 14.5654 7.27507C14.6132 7.4739 14.62 7.68639 14.6223 7.89281C14.6299 8.4377 14.6246 8.98259 14.6246 9.52065C14.9517 9.52065 15.2393 9.52065 15.536 9.52065C15.536 8.92112 15.5345 8.3436 15.536 7.76683C15.5391 6.6892 16.32 5.90905 17.3991 5.90829C19.1886 5.90677 20.9781 5.90677 22.7676 5.90981C22.908 5.90981 23.0529 5.91816 23.1895 5.94927C24.0607 6.14886 24.6208 6.85312 24.6246 7.74634C24.6269 8.33904 24.6253 8.93174 24.6253 9.52368C24.9486 9.52368 25.2355 9.52368 25.5368 9.52368C25.5368 9.41896 25.5368 9.33472 25.5368 9.24972C25.5368 6.8258 25.5375 4.40264 25.5368 1.97872C25.5368 1.2608 25.1763 0.906395 24.4485 0.906395C18.1998 0.906395 11.9502 0.906395 5.70147 0.906395C4.97975 0.906395 4.62535 1.26384 4.62535 1.99086C4.62459 4.40492 4.62535 6.81897 4.62535 9.23303C4.62535 9.33244 4.62535 9.43186 4.62535 9.53734C4.94257 9.5381 5.21653 9.5381 5.53678 9.5381ZM27.3559 14.9893C27.3559 13.8357 27.3559 12.7111 27.3559 11.5856C27.3559 10.785 27.0204 10.4511 26.2152 10.4511C18.7932 10.4511 11.3712 10.4511 3.94917 10.4511C3.87328 10.4511 3.79739 10.4488 3.72226 10.4526C3.20773 10.4776 2.81689 10.8449 2.81234 11.3572C2.80172 12.5494 2.81234 13.7424 2.81538 14.9346C2.81538 14.9498 2.83435 14.965 2.85029 14.9893C11.0024 14.9893 19.1598 14.9893 27.3559 14.9893ZM1.91153 16.7962C10.7064 16.7962 19.4785 16.7962 28.2423 16.7962C28.2423 16.4881 28.2423 16.2012 28.2423 15.9204C19.4542 15.9204 10.6889 15.9204 1.91153 15.9204C1.91153 16.2156 1.91153 16.4964 1.91153 16.7962ZM13.7154 9.53431C13.7154 8.89304 13.7352 8.27909 13.7094 7.66666C13.6889 7.18096 13.3003 6.82201 12.8078 6.81897C10.991 6.80986 9.17494 6.81062 7.35814 6.81821C6.89749 6.82049 6.5021 7.13012 6.47099 7.57939C6.42621 8.22445 6.4596 8.87558 6.4596 9.53355C8.88049 9.53431 11.2809 9.53431 13.7154 9.53431ZM23.7169 9.53431C23.7169 8.90063 23.7329 8.29579 23.7116 7.6917C23.6942 7.19311 23.3079 6.82125 22.8048 6.81897C20.9879 6.80986 19.1719 6.81062 17.3551 6.81897C16.9036 6.82125 16.5127 7.1157 16.4793 7.55586C16.43 8.20927 16.4664 8.86951 16.4664 9.53431C18.8828 9.53431 21.2832 9.53431 23.7169 9.53431ZM3.60539 17.7441C3.32156 17.7441 3.07113 17.7441 2.82069 17.7441C2.82069 18.1971 2.82069 18.6289 2.82069 19.0888C2.94363 19.0888 3.0605 19.1093 3.16371 19.082C3.24264 19.0608 3.35116 18.9894 3.36785 18.9219C3.45968 18.5371 3.52722 18.147 3.60539 17.7441ZM26.5529 17.7365C26.6296 18.1114 26.7191 18.4688 26.77 18.8323C26.7988 19.0357 26.8702 19.1215 27.0751 19.0904C27.1639 19.0767 27.2549 19.0797 27.3414 19.0752C27.3414 18.613 27.3414 18.1812 27.3414 17.7365C27.0758 17.7365 26.8246 17.7365 26.5529 17.7365Z" fill="#3F3D56"/>
</g>
<defs>
<clipPath id="clip0_241_238">
<rect width="28.1893" height="20" fill="white" transform="translate(0.985596)"/>
</clipPath>
</defs>
</svg>
