<svg width="30" height="30" viewBox="0 0 30 30" fill="none" xmlns="http://www.w3.org/2000/svg">
<g clip-path="url(#clip0_118_2286)">
<path d="M0 26.5434C0 20.7618 0 14.981 0 9.19941C0.152642 8.98023 0.362427 8.90822 0.627789 8.9137C1.24305 8.92622 1.85832 8.91448 2.47358 8.91918C2.85793 8.92231 3.02387 9.08982 3.03092 9.47573C3.0364 9.76536 3.0317 10.0558 3.0317 10.3744C3.1593 10.3744 3.25479 10.3744 3.34951 10.3744C4.08219 10.3744 4.81409 10.372 5.54677 10.3751C5.87397 10.3767 6.08689 10.5638 6.07984 10.8299C6.0728 11.0883 5.87476 11.2542 5.5546 11.255C4.82192 11.2581 4.09002 11.2558 3.35734 11.2558C3.25479 11.2558 3.15303 11.2558 3.05284 11.2558C3.05284 11.4945 3.05284 11.6847 3.05284 11.8812C11.0278 11.8812 18.9824 11.8812 26.9425 11.8812C26.9425 11.6691 26.9425 11.4726 26.9425 11.2558C26.7922 11.2558 26.6669 11.2558 26.5409 11.2558C20.4861 11.2558 14.4313 11.2558 8.3773 11.2558C8.0454 11.2558 7.7135 11.2597 7.3816 11.2542C7.07632 11.2495 6.89941 11.089 6.89472 10.8268C6.89002 10.5599 7.08337 10.3838 7.39413 10.3744C7.4818 10.3712 7.57025 10.3736 7.65793 10.3736C13.9663 10.3736 20.2748 10.3736 26.5832 10.3736C26.7061 10.3736 26.829 10.3736 26.9675 10.3736C26.9675 10.0479 26.9636 9.76536 26.9683 9.48356C26.9753 9.08121 27.1382 8.92309 27.5468 8.91761C27.6986 8.91526 27.8513 8.91761 28.0102 8.91761C28.0172 8.81898 28.0243 8.76184 28.0243 8.70469C28.025 6.27338 28.0258 3.84129 28.0235 1.40998C28.0235 1.03346 27.8669 0.88082 27.4865 0.879254C26.4125 0.876123 25.3378 0.878472 24.2638 0.878472C23.3166 0.878472 22.3695 0.876906 21.4223 0.879254C21.0865 0.880037 20.8955 1.00606 20.8783 1.28552C20.854 1.67143 20.872 2.06047 20.872 2.48082C21.2775 2.48082 21.6571 2.46751 22.0344 2.48708C22.2027 2.49569 22.389 2.53248 22.5299 2.61859C23.0873 2.9591 23.6274 3.32857 24.18 3.67769C24.3851 3.80685 24.4681 3.98219 24.4665 4.21468C24.4642 4.51761 24.4728 4.82055 24.4634 5.1227C24.4587 5.28552 24.5033 5.37945 24.6599 5.46321C25.1068 5.70274 25.3417 6.09804 25.362 6.60293C25.3879 7.24325 24.9088 7.83738 24.2904 7.95792C23.6517 8.08239 23.0082 7.7364 22.7679 7.13835C22.5213 6.52466 22.7577 5.83346 23.3237 5.47965C23.4176 5.42094 23.5436 5.32466 23.5546 5.23307C23.6571 4.40567 23.6431 4.39002 22.9503 3.94227C22.8438 3.87338 22.7225 3.82015 22.6325 3.73405C22.1198 3.24638 21.4967 3.40059 20.8642 3.39432C20.8642 3.68239 20.8751 3.94462 20.8603 4.2045C20.8501 4.38376 20.9119 4.47534 21.0748 4.56379C21.6712 4.88865 21.9162 5.5681 21.6877 6.19197C21.4857 6.74227 20.9464 7.10783 20.3734 7.08278C19.7886 7.05695 19.2579 6.62642 19.1186 6.06595C18.9753 5.4906 19.229 4.891 19.7401 4.57397C19.8309 4.51761 19.9632 4.43464 19.9703 4.35558C19.9969 4.03933 19.9812 3.71918 19.9812 3.42094C19.2431 3.3043 18.5816 3.35127 18.029 3.86008C17.9867 3.89922 17.9358 3.93444 17.8826 3.95558C17.3667 4.16145 17.1906 4.5364 17.272 5.07808C17.3002 5.2636 17.3221 5.38023 17.5092 5.48043C18.0258 5.75753 18.2716 6.34775 18.1526 6.92935C18.0446 7.45929 17.5436 7.91565 17.0153 7.96653C16.389 8.02602 15.8528 7.72857 15.607 7.18454C15.3675 6.65381 15.4552 5.95323 15.9554 5.65734C16.4337 5.37319 16.418 5.01233 16.4 4.58728C16.3945 4.46047 16.407 4.33288 16.3977 4.20685C16.3789 3.95244 16.4932 3.78963 16.7053 3.65734C17.2352 3.327 17.7487 2.97084 18.2834 2.64833C18.4407 2.55284 18.6427 2.50039 18.8282 2.48865C19.2039 2.46438 19.582 2.4816 19.9836 2.4816C19.9836 2.34775 19.9836 2.25225 19.9836 2.15597C19.9836 1.86321 19.975 1.56967 19.9859 1.27691C20.0102 0.617806 20.4204 0.251466 20.9761 0.000976562C23.2806 0.000976562 25.5859 0.000976562 27.8904 0.000976562C28.674 0.279646 28.9456 0.851857 28.9378 1.65812C28.9151 3.96262 28.9299 6.26712 28.9299 8.57162C28.9299 8.68356 28.9299 8.79471 28.9299 8.91839C29.0896 8.91839 29.1969 8.91839 29.3041 8.91839C29.8896 8.91918 29.9992 9.02955 29.9992 9.61976C29.9992 13.6722 29.9992 17.7247 29.9992 21.7771C29.9992 21.8749 30.0094 21.9744 29.9937 22.0699C29.9577 22.2867 29.8278 22.419 29.6047 22.4409C29.3659 22.4644 29.2078 22.3446 29.1389 22.1262C29.1076 22.0276 29.1241 21.9133 29.1241 21.8061C29.1233 17.929 29.1233 14.0526 29.1233 10.1755C29.1233 10.0628 29.1233 9.9501 29.1233 9.84364C28.6841 9.84364 28.2896 9.84364 27.8724 9.84364C27.8724 9.99315 27.8724 10.1184 27.8724 10.2444C27.8724 14.336 27.8724 18.4276 27.8724 22.5192C27.8724 23.1376 27.7573 23.2519 27.135 23.2519C19.0497 23.2519 10.9636 23.2519 2.87828 23.2519C2.23953 23.2519 2.12916 23.1415 2.12916 22.502C2.12916 18.4104 2.12916 14.3188 2.12916 10.2272C2.12916 10.1035 2.12916 9.97906 2.12916 9.83738C1.7002 9.83738 1.30568 9.83738 0.899413 9.83738C0.899413 15.2025 0.899413 20.556 0.899413 25.907C10.3162 25.907 19.7119 25.907 29.1225 25.907C29.1225 25.1877 29.1209 24.4949 29.1233 23.8022C29.1241 23.4624 29.2892 23.2652 29.5632 23.2667C29.8372 23.2683 29.9984 23.4648 29.9984 23.8076C30 24.628 30 25.4483 29.9984 26.2687C29.9977 26.6742 29.8427 26.8245 29.427 26.8292C29.2063 26.8315 28.9863 26.8299 28.7648 26.8299C28.7569 26.9223 28.7491 26.9708 28.7491 27.0186C28.7483 27.8288 28.7523 28.6397 28.746 29.4499C28.7429 29.8499 28.5863 29.9994 28.1949 30.0002C27.6188 30.0018 27.0427 30.0018 26.4665 30.0002C26.0556 29.9994 25.9068 29.8499 25.9045 29.4342C25.9022 29.1063 25.9037 28.7783 25.9037 28.426C25.7393 28.426 25.6141 28.426 25.4888 28.426C20.0297 28.426 14.5714 28.426 9.11233 28.426C8.99491 28.426 8.87671 28.4315 8.76086 28.4182C8.50959 28.39 8.37417 28.2405 8.37025 27.9908C8.36634 27.7387 8.51037 27.5955 8.75147 27.5485C8.80783 27.5376 8.8681 27.5438 8.92681 27.5438C14.6982 27.5438 20.4689 27.5438 26.2403 27.5446C26.6364 27.5446 26.7843 27.6926 26.789 28.0926C26.793 28.4307 26.7898 28.7689 26.7898 29.1078C27.1616 29.1078 27.4896 29.1078 27.8254 29.1078C27.8254 28.3454 27.8254 27.6002 27.8254 26.8456C19.2665 26.8456 10.7272 26.8456 2.17143 26.8456C2.17143 27.6065 2.17143 28.3517 2.17143 29.1008C2.5229 29.1008 2.85636 29.1008 3.21018 29.1008C3.21018 28.7266 3.20391 28.3759 3.21174 28.026C3.21957 27.7137 3.37691 27.5477 3.67828 27.547C4.81096 27.5423 5.94364 27.5384 7.07632 27.554C7.20939 27.5556 7.39022 27.6495 7.45988 27.7583C7.52877 27.8656 7.54442 28.0863 7.4771 28.1834C7.39256 28.3039 7.20078 28.4127 7.05284 28.4158C6.17456 28.437 5.2955 28.4268 4.41644 28.4276C4.31389 28.4276 4.21213 28.4276 4.09472 28.4276C4.09472 28.8174 4.1002 29.1587 4.09315 29.5C4.08689 29.8382 3.9225 29.9986 3.58434 30.001C3.00822 30.0049 2.43209 30.0025 1.85597 30.0018C1.38943 30.001 1.25245 29.8648 1.25088 29.3865C1.24853 28.6444 1.25088 27.9023 1.24932 27.1603C1.24932 27.0569 1.2407 26.9544 1.23522 26.8307C1.01135 26.8307 0.816438 26.8198 0.623875 26.8331C0.360078 26.8495 0.150294 26.7658 0 26.5434ZM7.16791 12.7908C7.16791 15.3716 7.16791 17.9329 7.16791 20.4886C8.25597 20.4886 9.32368 20.4886 10.3953 20.4886C10.3953 17.9125 10.3953 15.3591 10.3953 12.7908C9.31585 12.7908 8.25519 12.7908 7.16791 12.7908ZM19.6047 20.491C20.6975 20.491 21.7659 20.491 22.829 20.491C22.829 17.9102 22.829 15.3489 22.829 12.7916C21.744 12.7916 20.6834 12.7916 19.6047 12.7916C19.6047 15.3607 19.6047 17.9141 19.6047 20.491ZM3.05049 12.7892C3.05049 15.5196 3.05049 18.2186 3.05049 20.963C4.05401 20.2342 5.18904 20.6272 6.24736 20.4855C6.24736 17.9133 6.24736 15.3528 6.24736 12.7892C5.17417 12.7892 4.1229 12.7892 3.05049 12.7892ZM26.9542 12.7986C25.8599 12.7986 24.8023 12.7986 23.7456 12.7986C23.7456 15.3755 23.7456 17.929 23.7456 20.4863C24.8227 20.6209 25.9554 20.2366 26.9542 20.9638C26.9542 18.2123 26.9542 15.5117 26.9542 12.7986ZM14.5339 12.7963C13.4387 12.7963 12.3804 12.7963 11.326 12.7963C11.326 15.3771 11.326 17.9368 11.326 20.491C12.4086 20.491 13.4677 20.491 14.5339 20.491C14.5339 17.9188 14.5339 15.3654 14.5339 12.7963ZM15.4677 12.7892C15.4677 15.374 15.4677 17.9274 15.4677 20.4902C16.5495 20.4902 17.6157 20.4902 18.6716 20.4902C18.6716 17.9086 18.6716 15.3489 18.6716 12.7892C17.5953 12.7892 16.544 12.7892 15.4677 12.7892ZM10.3992 21.4147C9.29941 21.4147 8.23248 21.4147 7.16712 21.4147C7.16712 21.7348 7.16712 22.0323 7.16712 22.325C8.25362 22.325 9.31977 22.325 10.3992 22.325C10.3992 22.0127 10.3992 21.7239 10.3992 21.4147ZM19.6023 22.3258C20.7045 22.3258 21.7691 22.3258 22.8305 22.3258C22.8305 22.0049 22.8305 21.709 22.8305 21.417C21.7425 21.417 20.6771 21.417 19.6023 21.417C19.6023 21.7286 19.6023 22.0174 19.6023 22.3258ZM14.5205 22.3337C14.5205 22.0151 14.5205 21.7129 14.5205 21.4131C13.4372 21.4131 12.3804 21.4131 11.3213 21.4131C11.3213 21.7309 11.3213 22.0276 11.3213 22.3337C12.3977 22.3337 13.4544 22.3337 14.5205 22.3337ZM18.6865 21.4108C17.5969 21.4108 16.5401 21.4108 15.4701 21.4108C15.4701 21.7247 15.4701 22.0205 15.4701 22.3258C16.5511 22.3258 17.6141 22.3258 18.6865 22.3258C18.6865 22.0135 18.6865 21.7239 18.6865 21.4108ZM6.2544 21.3935C6.12368 21.3935 6.02661 21.3935 5.92955 21.3935C5.4137 21.3943 4.89628 21.3787 4.38121 21.4006C3.76517 21.4264 3.24618 21.8342 3.15303 22.3344C4.18317 22.3344 5.21096 22.3344 6.25362 22.3344C6.2544 22.0205 6.2544 21.7239 6.2544 21.3935ZM26.8877 22.3352C26.7006 21.8483 26.3789 21.4992 25.9014 21.4577C25.1914 21.3951 24.4712 21.4413 23.7464 21.4413C23.7464 21.727 23.7464 22.0237 23.7464 22.3352C24.7828 22.3352 25.8027 22.3352 26.8877 22.3352ZM24.0055 6.18649C23.7628 6.19197 23.5577 6.39706 23.5562 6.63424C23.5546 6.88239 23.7769 7.09843 24.0274 7.09217C24.2661 7.08669 24.4728 6.87847 24.4751 6.64129C24.4783 6.38767 24.2638 6.18023 24.0055 6.18649ZM20.8744 5.73327C20.8751 5.48591 20.6841 5.28239 20.4431 5.27378C20.1902 5.26438 19.9781 5.47182 19.9757 5.72935C19.9742 5.98845 20.1816 6.19432 20.4391 6.18728C20.6896 6.18023 20.8736 5.98845 20.8744 5.73327ZM17.29 6.63581C17.2908 6.38767 17.1006 6.19197 16.8524 6.18493C16.5863 6.1771 16.3906 6.36888 16.3914 6.63738C16.3922 6.8863 16.5816 7.08512 16.825 7.09217C17.0795 7.09922 17.2892 6.89334 17.29 6.63581Z" fill="#3F3D56"/>
</g>
<defs>
<clipPath id="clip0_118_2286">
<rect width="30.0023" height="30" fill="white"/>
</clipPath>
</defs>
</svg>
