<svg width="37" height="34" viewBox="0 0 37 34" fill="none" xmlns="http://www.w3.org/2000/svg">
<path d="M5.99998 13.9454C5.99998 13.461 5.99749 13.029 5.99998 12.5946C6.00248 11.8405 6.53431 11.2837 7.29087 11.2812C11.7178 11.2762 16.1448 11.2737 20.5718 11.2812C21.4107 11.2812 21.9451 11.9304 21.8951 12.7868C21.7952 14.4348 21.7153 16.0852 21.6255 17.7356C21.6205 17.818 21.6255 17.9004 21.6255 17.9903C23.3458 17.3461 23.97 17.3961 25.9775 18.2999C25.6354 17.421 25.191 16.652 24.6617 15.9254C24.5768 15.8081 24.4819 15.7007 24.3945 15.5833C24.2247 15.3536 24.2297 15.1289 24.4544 14.9466C24.6716 14.7719 24.9014 14.8168 25.0587 15.0265C25.3982 15.4785 25.7128 15.9479 26.0399 16.4123C26.0749 16.4597 26.1049 16.5122 26.1623 16.6046C26.2147 16.4722 26.2572 16.3724 26.2946 16.2725C26.8914 14.6944 28.372 13.6333 30.0274 13.5808C30.352 13.5709 30.5443 13.6907 30.6791 13.9753C31.1835 15.0265 31.2584 16.1002 30.8914 17.2038C30.8539 17.3162 30.809 17.4285 30.7615 17.5584C31.8227 17.6832 32.6966 18.1501 33.4132 18.9142C33.6829 19.2013 33.7078 19.436 33.4981 19.6383C33.3058 19.823 33.0312 19.7806 32.774 19.5209C31.6279 18.3699 30.4969 18.0802 29.0761 18.8193C27.6279 19.5709 26.3071 19.5634 24.8614 18.8143C22.3296 17.5009 20.2996 19.8979 20.1173 21.7381C20.1148 21.7606 20.1273 21.7831 20.1398 21.833C21.2309 22.0103 22.2671 22.3748 23.2035 22.9991C24.8639 24.1052 25.9201 25.6383 26.382 27.5734C26.5468 28.2675 26.4294 28.9391 26.0424 29.5509C25.99 29.6308 25.9401 29.7132 25.8901 29.7956C25.8851 29.8031 25.8926 29.818 25.9001 29.8705C25.995 29.8705 26.0974 29.8705 26.1997 29.8705C27.4432 29.8705 28.6841 29.8805 29.9276 29.8605C30.1248 29.858 30.3595 29.7781 30.5118 29.6557C32.0724 28.3823 32.9962 26.6994 33.5056 24.7843C33.6929 24.0802 33.7528 23.3411 33.8602 22.6145C33.9126 22.26 34.0649 22.0852 34.3495 22.1252C34.6666 22.1676 34.7565 22.3873 34.7391 22.6745C34.5743 25.3012 33.6479 27.6133 31.8926 29.5858C31.8302 29.6557 31.7628 29.7232 31.6479 29.8455C31.8027 29.858 31.8976 29.873 31.995 29.873C33.0087 29.8755 34.0225 29.883 35.0362 29.8705C35.5905 29.8655 36.0299 30.0627 36.3071 30.5446C36.5892 31.0415 36.5368 31.5359 36.2272 32.0128C35.945 32.4473 35.6654 32.8842 35.3833 33.3187C35.0836 33.7831 34.6567 34.0003 34.1073 34.0003C23.5281 33.9978 12.9488 33.9978 2.36952 34.0003C1.83519 34.0003 1.41072 33.7956 1.11858 33.3411C0.823952 32.8867 0.52183 32.4348 0.237186 31.9729C-0.364562 30.9941 0.237186 29.8955 1.38325 29.873C1.84018 29.863 2.29961 29.8705 2.79149 29.8705C2.75903 29.7931 2.74655 29.7381 2.71659 29.6957C2.17476 28.9441 2.05491 28.1077 2.36952 27.2587C2.65167 26.4972 3.03369 25.7706 3.39074 25.039C3.46565 24.8867 3.53556 24.7893 3.39823 24.632C2.73906 23.8705 2.50935 22.9491 2.39449 21.9729C2.19224 20.3249 1.98999 18.6745 1.75529 17.0315C1.52308 15.3986 2.66915 13.9903 4.31459 13.9479C4.88138 13.9329 5.44567 13.9454 5.99998 13.9454ZM7.39574 22.0977C8.52433 21.7057 9.67289 21.7756 10.8165 21.7756C13.4706 21.7731 16.1248 21.7756 18.779 21.7756C18.9213 21.7756 19.0612 21.7756 19.2135 21.7756C19.3633 20.6295 19.8102 19.6657 20.5793 18.8518C20.6467 18.7818 20.6841 18.662 20.6916 18.5621C20.7965 16.6595 20.8989 14.7569 20.9937 12.8543C21.0237 12.24 20.9213 12.1451 20.2971 12.1451C16.0624 12.1451 11.8277 12.1451 7.59299 12.1451C7.5081 12.1451 7.4232 12.1426 7.34081 12.1476C7.04118 12.1651 6.87389 12.3199 6.87139 12.627C6.8689 12.7594 6.88138 12.8917 6.88887 13.024C7.00373 15.1064 7.11609 17.1888 7.23344 19.2712C7.28338 20.1976 7.33831 21.1239 7.39574 22.0977ZM3.186 27.6408C3.36078 27.6408 3.5056 27.6408 3.64792 27.6408C8.48438 27.6408 13.3208 27.6408 18.1598 27.6408C18.5543 27.6408 18.7366 27.7831 18.7416 28.0752C18.7441 28.3699 18.5668 28.5072 18.1673 28.5122C18.0699 28.5147 17.975 28.5122 17.8776 28.5122C13.1136 28.5122 8.34954 28.5122 3.583 28.5122C3.44567 28.5122 3.30585 28.5122 3.09611 28.5122C3.20348 28.7494 3.2634 28.9317 3.36328 29.089C3.75029 29.6807 4.32957 29.8755 5.01122 29.8755C11.211 29.873 17.4107 29.873 23.6105 29.873C23.6954 29.873 23.7803 29.8755 23.8627 29.8705C25.0562 29.8031 25.7952 28.8143 25.4781 27.6607C24.7291 24.9192 22.9338 23.2887 20.1523 22.7419C19.995 22.7119 19.7927 22.7619 19.6479 22.8418C18.6991 23.3636 17.8701 24.0378 17.151 24.8493C16.9088 25.1239 16.6766 25.1539 16.4644 24.9641C16.2622 24.7818 16.2547 24.5147 16.5044 24.2675C16.9912 23.7856 17.5056 23.3287 18.0075 22.8617C18.0699 22.8043 18.1323 22.7469 18.2422 22.6445C17.4831 22.6445 16.799 22.6395 16.1123 22.6495C16 22.652 15.8826 22.7094 15.7803 22.7669C14.8015 23.3087 13.9326 23.9878 13.186 24.8243C12.9213 25.1214 12.6941 25.1614 12.4744 24.9641C12.2622 24.7719 12.2647 24.5197 12.5393 24.24C12.9413 23.8255 13.3683 23.436 13.7902 23.0415C13.9226 22.9167 14.0749 22.8143 14.2921 22.6445C13.5455 22.6445 12.9063 22.6345 12.2696 22.652C12.0999 22.657 11.9126 22.7069 11.7628 22.7893C10.804 23.3162 9.95254 23.9828 9.22345 24.7993C8.93631 25.1214 8.71409 25.1689 8.48687 24.9666C8.26465 24.7644 8.27464 24.5347 8.57177 24.215C8.87389 23.888 9.19848 23.5808 9.52557 23.2787C9.7478 23.074 9.98999 22.8917 10.2547 22.672C6.33706 22.3699 3.7478 25.029 3.186 27.6408ZM18.2746 30.7469C12.7391 30.7469 7.20348 30.7469 1.6679 30.7469C1.57052 30.7469 1.47564 30.7419 1.37826 30.7469C0.933815 30.7694 0.744052 31.1189 0.976262 31.5009C1.19349 31.8605 1.45816 32.1976 1.65292 32.5696C1.88013 33.0016 2.19973 33.1264 2.67664 33.1264C13.0487 33.1139 23.4207 33.1164 33.7927 33.1164C33.9251 33.1164 34.0649 33.1364 34.1897 33.1064C34.3221 33.074 34.4919 33.024 34.5618 32.9242C34.9063 32.4323 35.2359 31.9279 35.5455 31.4111C35.7053 31.1414 35.5206 30.8093 35.2085 30.7569C35.0911 30.7369 34.9688 30.7494 34.8464 30.7494C29.3208 30.7469 23.7977 30.7469 18.2746 30.7469ZM6.12233 14.8268C5.4232 14.8268 4.784 14.7918 4.14979 14.8343C3.22595 14.8992 2.50185 15.818 2.61671 16.7344C2.84892 18.6096 3.08612 20.4822 3.33082 22.3574C3.41571 23.0066 3.65042 23.6008 4.10485 24.1052C4.42695 23.8106 4.72657 23.5384 4.93881 23.3461C4.73406 22.8243 4.4644 22.3773 4.387 21.8979C4.15978 20.4722 3.99249 19.0365 3.83768 17.6033C3.73531 16.6695 4.23469 16.1576 5.186 16.1501C5.5056 16.1476 5.8252 16.1501 6.12233 16.1501C6.12233 15.6832 6.12233 15.2787 6.12233 14.8268ZM27.0761 18.5971C27.191 18.5721 27.2884 18.5621 27.3758 18.5297C28.1273 18.245 28.8789 17.9604 29.623 17.6582C29.7178 17.6208 29.7902 17.4935 29.8452 17.3911C30.2671 16.6021 30.3495 15.7731 30.1049 14.9117C29.9675 14.4273 29.965 14.4273 29.4632 14.5346C27.6654 14.9117 26.4744 16.9142 27.0761 18.5971ZM6.2247 17.0465C5.85766 17.0465 5.54555 17.0465 5.23344 17.0465C4.72408 17.049 4.64667 17.1489 4.71409 17.6483C4.85891 18.7469 4.97626 19.848 5.14355 20.9441C5.22096 21.4585 5.37077 21.9679 5.53307 22.4647C5.57052 22.5771 5.86265 22.7294 5.92508 22.6895C6.1473 22.5471 6.55179 22.5921 6.51933 22.1401C6.44193 21.059 6.39449 19.9729 6.33456 18.8917C6.29711 18.29 6.26215 17.6907 6.2247 17.0465Z" fill="#3F3D56"/>
<path d="M14.7815 1.88046C14.7815 1.41854 14.779 1.00905 14.7815 0.602061C14.7865 0.227529 14.9488 0.0103004 15.216 0.000312836C15.4956 -0.00967468 15.6754 0.220038 15.6779 0.609551C15.6829 1.11642 15.6829 1.62328 15.6779 2.13015C15.6754 2.61954 15.5406 2.75187 15.0587 2.76186C14.5293 2.77185 13.995 2.75437 13.4682 2.79931C12.9888 2.84176 12.6667 3.2138 12.6192 3.6907C12.5743 4.15013 12.8464 4.57959 13.2959 4.72441C13.4407 4.77185 13.603 4.77934 13.7578 4.77934C14.4344 4.78433 15.1086 4.77185 15.7853 4.78433C16.8065 4.8068 17.598 5.53839 17.7054 6.54463C17.8027 7.45599 17.1461 8.36486 16.1972 8.55462C15.8127 8.63202 15.4057 8.59457 15.0087 8.59956C14.5493 8.60456 14.0924 8.59457 13.6329 8.60206C12.8165 8.61704 12.2447 9.11642 12.1124 9.91792C12.1024 9.97784 12.0924 10.0378 12.0874 10.0977C12.0624 10.3898 11.8926 10.5546 11.6155 10.5272C11.3383 10.4997 11.2135 10.3024 11.211 10.0178C11.2035 8.85924 12.2647 7.76561 13.4482 7.74064C14.2072 7.72566 14.9688 7.74563 15.7278 7.73315C16.3396 7.72316 16.764 7.33864 16.804 6.78184C16.8489 6.19507 16.4519 5.71317 15.8552 5.6907C15.1436 5.66323 14.432 5.6882 13.7203 5.67322C12.7491 5.65325 12.015 5.11642 11.7903 4.27996C11.4707 3.09145 12.3246 1.93539 13.568 1.88546C13.96 1.86798 14.3446 1.88046 14.7815 1.88046Z" fill="#3F3D56"/>
<path d="M34.0474 21.2687C33.7952 21.2313 33.6329 21.0914 33.6429 20.8193C33.6529 20.5496 33.8077 20.3973 34.0823 20.4048C34.3595 20.4123 34.5093 20.5871 34.5018 20.8443C34.4968 21.1014 34.327 21.2487 34.0474 21.2687Z" fill="#3F3D56"/>
</svg>
