<svg width="37" height="45" viewBox="0 0 37 45" fill="none" xmlns="http://www.w3.org/2000/svg">
<g clip-path="url(#clip0_118_1484)">
<path d="M31.7313 28.9443C31.2866 30.4291 29.9204 31.4296 28.2553 31.5136C26.8892 31.5828 26.2715 31.4247 24.8905 30.6415C24.7966 30.938 24.725 31.2394 24.6039 31.5186C24.0481 32.8008 23.0673 33.6901 21.8024 34.1867C20.7821 34.5869 20.3399 35.3379 20.1126 36.299C19.9075 37.1636 19.9421 38.0333 20.1274 38.9053C20.2806 39.6242 20.6956 40.106 21.3281 40.4148C22.5337 41.0028 23.8257 41.1263 25.1573 41.0843C25.0659 40.7286 24.935 40.4074 24.9103 40.0764C24.7818 38.3668 26.2369 37.1785 27.991 37.5367C29.8957 37.927 31.2175 39.6712 31.0371 41.5636C30.8518 43.5301 29.2435 44.9951 27.2523 44.9976C21.2144 45.0025 15.1766 45.0025 9.1362 44.9976C7.17216 44.9951 5.57375 43.5474 5.3687 41.5957C5.16859 39.7008 6.51254 37.9147 8.42964 37.5342C10.1689 37.1883 11.6042 38.3569 11.498 40.0492C11.4758 40.3802 11.3473 40.7039 11.2509 41.0917C12.7654 41.1041 14.2427 41.0127 15.5422 40.1208C16.2142 39.6588 16.3179 38.9128 16.3994 38.1889C16.4909 37.386 16.434 36.5831 16.1524 35.8148C15.893 35.1131 15.5076 34.5721 14.7492 34.2583C13.3014 33.658 12.1576 32.6945 11.666 31.1258C11.619 30.9751 11.5795 30.8194 11.5227 30.6168C10.3146 31.4617 9.0028 31.7088 7.60697 31.4247C6.19879 31.1381 5.09942 30.4439 4.66461 28.9344C3.47136 29.5372 2.35717 29.31 1.33439 28.5466C0.487011 27.9141 0.0274995 27.0272 0.0176175 25.9773C-0.00955788 22.8373 0.000324085 19.6973 0.0102061 16.5597C0.0126765 15.621 0.716767 14.9465 1.66296 14.9268C1.95695 14.9193 2.25341 14.9268 2.60916 14.9268C2.60916 14.3635 2.62152 13.8323 2.59681 13.3061C2.59187 13.2147 2.45846 13.0912 2.35717 13.0467C1.35168 12.5971 0.855114 11.8337 0.882289 10.7294C0.892171 10.3588 0.88723 9.98577 0.88476 9.61272C0.879819 9.23474 1.06016 9.01239 1.44062 9.00745C2.58446 8.99757 3.73077 8.99757 4.87707 9.00745C5.25259 9.00992 5.44529 9.21992 5.44282 9.60284C5.44035 10.0352 5.44529 10.465 5.44035 10.8974C5.43046 11.893 4.94378 12.5946 4.0544 12.9973C3.79006 13.1159 3.69865 13.2443 3.711 13.521C3.73077 13.9657 3.71594 14.4129 3.71594 14.8922C4.62014 14.8922 5.49964 14.8922 6.32478 14.8922C7.12522 12.476 6.67065 10.008 6.767 7.56963C6.78676 7.03847 6.91276 6.61108 7.32039 6.27262C7.38956 6.2158 7.43897 6.13427 7.51062 6.08486C8.52599 5.40301 8.50129 4.34564 8.33082 3.35744C8.24188 2.83617 8.14059 2.32477 8.14553 1.79609C8.15295 0.647311 8.80268 0.0198066 9.94899 0.00251315C10.4851 -0.00489832 11.036 0.00498363 11.3843 0.444731C11.6388 0.765895 11.8587 1.18588 11.8982 1.58363C11.9526 2.13949 11.8735 2.70523 11.7623 3.28085C11.5968 4.15541 11.4288 5.17078 12.3429 5.8724C12.543 6.02557 12.7481 6.20098 12.8716 6.41097C13.0495 6.71731 13.2619 7.06565 13.2693 7.39916C13.3064 9.30391 13.2842 11.2087 13.294 13.1134C13.294 13.3061 13.3953 13.4988 13.4447 13.694C13.5411 14.0769 13.63 14.4574 13.7363 14.8922C14.1389 14.8922 14.6182 14.8922 15.1148 14.8922C15.4557 13.568 16.313 12.7774 17.6396 12.4983C17.6396 10.6701 17.6396 8.85922 17.6396 6.994C16.6292 7.03847 15.6583 6.99153 14.8653 6.27015C14.092 5.56606 13.8277 4.67174 13.8845 3.64402C13.4892 3.57237 13.0742 3.54026 13.1088 3.01651C13.1384 2.55453 13.509 2.52736 13.8623 2.48536C13.9117 2.08761 13.845 1.59104 14.4403 1.60833C14.9888 1.62316 14.969 2.07031 14.9888 2.49524C15.3915 2.50018 15.7621 2.61382 15.7497 3.08816C15.7374 3.52049 15.3791 3.60943 15.0234 3.61437C14.764 5.20043 15.809 6.09969 17.6347 5.86993C17.6347 4.64704 17.6347 3.4192 17.6347 2.16666C17.2345 2.16419 16.8515 2.08761 16.8713 1.5861C16.8911 1.13894 17.2394 1.06482 17.6248 1.07224C17.731 0.667075 17.484 0.0173361 18.2029 0.0272181C18.8823 0.0371 18.6847 0.6399 18.7439 1.06977C19.1615 1.06482 19.537 1.15376 19.5147 1.65033C19.495 2.09749 19.1417 2.16913 18.7489 2.16172C18.7489 3.39944 18.7489 4.62974 18.7489 5.85511C20.4634 6.18615 21.5603 5.26466 21.38 3.63166C21.0119 3.59461 20.6042 3.51802 20.6388 3.02639C20.6685 2.61135 20.9995 2.48536 21.3973 2.515C21.4269 2.08514 21.3948 1.6108 21.9704 1.6108C22.5263 1.6108 22.4941 2.07031 22.5189 2.47548C22.8894 2.53971 23.3045 2.56935 23.2822 3.08569C23.2649 3.54273 22.9166 3.60696 22.5016 3.6119C22.5658 4.66927 22.299 5.57841 21.5084 6.28744C20.7253 6.98906 19.7692 7.04341 18.7612 6.994C18.7612 8.8444 18.7612 10.6528 18.7612 12.5007C19.8927 12.728 20.7203 13.3778 21.1749 14.5191C21.9284 10.8628 24.1271 8.7777 27.7761 8.20702C27.8452 7.80432 27.7168 7.23364 28.3714 7.26082C28.9644 7.28552 28.8853 7.80433 28.9051 8.21196C29.3621 8.3083 29.8019 8.37748 30.2293 8.49112C33.137 9.27427 35.2468 11.8164 35.5112 14.823C35.526 14.9836 35.6446 15.1738 35.773 15.28C36.3857 15.7939 36.4747 16.4733 36.3536 17.1848C36.324 17.3528 36.0226 17.5479 35.8175 17.5899C35.5383 17.6468 35.3605 17.4294 35.3209 17.1378C35.3185 17.123 35.3185 17.1082 35.316 17.0934C35.1851 16.0162 35.1851 16.0162 34.0832 16.0162C33.3273 16.0162 32.5713 16.0162 31.7783 16.0162C31.7684 16.1966 31.7511 16.3399 31.7511 16.4832C31.7486 18.7733 31.7857 21.0659 31.7338 23.3561C31.7091 24.4431 32.5713 25.0508 33.562 24.7618C34.602 24.4579 35.2641 23.6229 35.3061 22.4519C35.3185 22.0961 35.3061 21.7379 35.316 21.3797C35.3234 21.0462 35.5087 20.8411 35.8373 20.8288C36.1461 20.8189 36.3783 21.014 36.3783 21.3105C36.3882 22.9756 36.4549 24.6481 36.3363 26.3058C36.193 28.3736 33.8041 29.9622 31.7313 28.9443ZM12.5801 16.0409C12.5801 16.2658 12.5801 16.4288 12.5801 16.5919C12.5801 19.8183 12.6072 23.0473 12.5677 26.2737C12.5504 27.7239 13.1903 28.7368 14.3563 29.4903C15.3124 30.1104 16.3772 30.4167 17.5013 30.5007C19.3986 30.6415 21.1724 30.2883 22.6646 29.016C23.4403 28.3563 23.8282 27.509 23.8257 26.4714C23.8134 23.156 23.8208 19.8381 23.8208 16.5227C23.8208 16.3646 23.8084 16.2065 23.801 16.0409C20.0508 16.0409 16.3402 16.0409 12.5801 16.0409ZM24.9103 16.036C24.9029 16.1645 24.893 16.2386 24.893 16.3127C24.893 19.2402 24.8955 22.1678 24.8905 25.0953C24.8905 25.666 25.1351 26.1131 25.5897 26.417C26.8892 27.2891 28.2553 27.3212 29.6363 26.6295C30.3281 26.2836 30.6715 25.7203 30.6641 24.9051C30.6394 22.1109 30.6542 19.3168 30.6542 16.5252C30.6542 16.367 30.6394 16.2089 30.6295 16.0385C28.705 16.036 26.8249 16.036 24.9103 16.036ZM5.74916 16.0335C5.74916 16.2361 5.74916 16.3819 5.74916 16.5301C5.74916 19.3242 5.76398 22.1184 5.73928 24.91C5.73186 25.7055 6.06538 26.2589 6.73488 26.6097C8.02448 27.2866 9.3289 27.2767 10.6012 26.5603C11.2139 26.2169 11.5227 25.6857 11.5178 24.9495C11.5005 22.1406 11.5103 19.3316 11.5103 16.5252C11.5103 16.367 11.5103 16.2089 11.5103 16.0335C9.57348 16.0335 7.69343 16.0335 5.74916 16.0335ZM22.3262 14.8971C26.3456 14.8971 30.3676 14.8971 34.3896 14.8971C34.2562 11.7868 31.3262 9.16309 28.1738 9.30391C24.4236 9.47191 22.3533 12.6045 22.3262 14.8971ZM4.64979 16.0187C3.59736 16.0187 2.60669 16.0039 1.61603 16.0261C1.23063 16.0335 1.09475 16.3176 1.09475 16.6734C1.09475 18.6177 1.07252 20.5644 1.10463 22.5087C1.1244 23.6846 1.83837 24.5147 2.94021 24.7741C3.94076 25.0088 4.64732 24.4604 4.64979 23.4327C4.65473 21.9924 4.65226 20.5521 4.65226 19.1118C4.64979 18.1013 4.64979 17.0934 4.64979 16.0187ZM15.7225 41.2968C14.6676 41.8502 13.4892 42.1244 12.2638 42.1689C11.2534 42.2059 10.243 42.2158 9.23255 42.1861C9.03738 42.1812 8.77057 41.9762 8.67916 41.7933C8.61493 41.6599 8.74586 41.3783 8.86939 41.2251C8.95091 41.1238 9.16338 41.114 9.32396 41.0893C9.91441 40.9978 10.3517 40.563 10.4307 39.9751C10.4974 39.481 10.201 38.8955 9.697 38.7176C9.37584 38.6039 8.99044 38.5595 8.6594 38.6163C7.3031 38.8559 6.34208 40.0912 6.45078 41.3832C6.5743 42.8532 7.68355 43.918 9.16091 43.9278C11.5252 43.9451 13.8894 43.9328 16.2512 43.9328C16.3204 43.9328 16.3896 43.9229 16.3846 43.9229C16.1598 43.0409 15.9424 42.1738 15.7225 41.2968ZM20.0212 43.9278C22.4423 43.9278 24.9103 43.9575 27.3758 43.9155C28.7988 43.8908 29.871 42.7667 29.96 41.3412C30.0415 40.0418 29.0558 38.8362 27.7118 38.5916C26.8496 38.4335 26.1208 38.8806 25.9825 39.6539C25.8713 40.274 26.3852 41.0892 27.2103 41.1016C27.5414 41.1065 27.781 41.2943 27.7686 41.6649C27.7538 42.0602 27.487 42.1936 27.1337 42.201C26.7483 42.2084 26.3605 42.1985 25.9751 42.2034C24.1395 42.2281 22.3163 42.1738 20.6833 41.2918C20.4609 42.1689 20.2435 43.0335 20.0212 43.9278ZM12.6072 29.4631C12.4837 30.5897 12.8074 31.4914 13.5732 32.2177C14.7887 33.3714 16.2833 33.8161 17.9188 33.8705C19.5493 33.9248 21.0786 33.5913 22.4052 32.5908C23.4132 31.8274 23.9443 30.8293 23.7961 29.5002C20.7796 32.4771 15.2136 32.1634 12.6072 29.4631ZM7.85402 11.6632C7.85402 12.3229 7.87378 12.8417 7.84413 13.358C7.82931 13.6149 7.72061 13.8669 7.65638 14.1214C7.59214 14.3734 7.53038 14.6253 7.46368 14.8922C9.23502 14.8922 10.8927 14.8922 12.6171 14.8922C12.5554 14.6204 12.5084 14.3956 12.4516 14.1757C12.38 13.8941 12.2515 13.6199 12.2293 13.3358C12.1922 12.8244 12.2194 12.3105 12.2194 11.6805C11.9155 11.804 11.6857 11.8535 11.5054 11.977C10.5716 12.6168 9.48701 12.6119 8.54822 11.9671C8.38517 11.846 8.17024 11.7942 7.85402 11.6632ZM5.74916 27.3039C5.74916 27.6621 5.76645 27.9685 5.74669 28.2748C5.69481 29.0703 6.0802 29.6015 6.73982 29.972C7.43156 30.3624 8.19 30.5427 8.96821 30.434C11.1126 30.1326 11.7722 29.2432 11.4609 27.3286C9.57595 28.4774 7.69343 28.4799 5.74916 27.3039ZM24.893 27.2965C24.893 27.6374 24.9128 27.9166 24.8905 28.1908C24.8115 29.1074 25.2858 29.683 26.0492 30.056C27.0275 30.5328 28.0577 30.6094 29.0731 30.2339C30.6394 29.6558 30.8148 28.9246 30.585 27.3459C28.7124 28.4725 26.8397 28.4799 24.893 27.2965ZM19.4678 41.2647C19.4802 40.4939 19.3517 39.7527 18.9292 39.0956C18.4747 38.3915 17.941 38.3964 17.4741 39.0906C16.7503 40.1678 16.7503 42.2998 17.4766 43.3868C17.941 44.086 18.4722 44.0909 18.9292 43.3868C19.3418 42.7445 19.4752 42.0206 19.4678 41.2647ZM12.1749 8.37007C12.2836 7.70056 12.296 7.14223 11.7129 6.75684C11.5919 6.67531 11.5029 6.54684 11.3942 6.44555C10.8532 5.9391 10.5889 5.32148 10.6185 4.57539C10.6333 4.17764 10.621 3.77989 10.621 3.36485C10.2084 3.36485 9.8477 3.36485 9.45242 3.36485C9.45242 3.64649 9.43019 3.89848 9.45737 4.148C9.56854 5.21031 9.23008 6.09227 8.38023 6.73707C7.83672 7.14964 7.77743 7.67092 7.91084 8.35524C8.08624 8.28607 8.27153 8.25642 8.40246 8.15266C9.45737 7.32011 10.6358 7.31764 11.6685 8.14278C11.7994 8.24901 11.9871 8.28854 12.1749 8.37007ZM7.87872 10.5293C8.30118 10.68 8.73598 10.7319 9.03738 10.9616C9.71924 11.4829 10.3813 11.5026 11.0484 10.9394C11.2139 10.7986 11.4585 10.7319 11.6783 10.6775C11.8389 10.638 12.0193 10.6701 12.2021 10.6701C12.2021 10.2229 12.2021 9.84248 12.2021 9.55096C11.7994 9.39285 11.372 9.33356 11.1077 9.09639C10.4258 8.48371 9.63277 8.46642 8.97068 9.10874C8.8101 9.26438 8.54575 9.32615 8.31847 9.39779C8.18506 9.43979 8.03436 9.42002 7.87872 9.42991C7.87872 9.85236 7.87872 10.2328 7.87872 10.5293ZM1.1244 25.0484C1.1244 25.4535 1.09228 25.792 1.12934 26.1255C1.26027 27.2644 2.11754 28.0796 3.24655 28.1711C3.91111 28.2254 4.52873 27.84 4.61026 27.2224C4.67943 26.7061 4.62508 26.1724 4.62508 25.6116C3.33796 26.1774 2.21635 25.8883 1.1244 25.0484ZM31.7535 25.6017C31.7535 26.0785 31.7461 26.5035 31.756 26.9284C31.7758 27.7214 32.3687 28.2402 33.1617 28.1711C34.6465 28.0426 35.5754 26.6888 35.2444 25.0904C34.1895 25.8735 33.0604 26.1897 31.7535 25.6017ZM17.0862 34.9501C17.2592 35.8073 17.4346 36.6819 17.6075 37.5317C18.0028 37.5317 18.4228 37.5317 18.7983 37.5317C18.9688 36.672 19.1442 35.7975 19.3122 34.9501C18.5809 34.9501 17.8027 34.9501 17.0862 34.9501ZM1.96931 10.1019C1.93966 10.8356 1.8606 11.5372 2.59928 11.9498C2.9995 12.1746 3.58007 12.1153 3.93088 11.8115C4.4818 11.3371 4.38545 10.717 4.34839 10.0994C3.53807 10.1019 2.77469 10.1019 1.96931 10.1019ZM20.1101 14.9095C19.8334 13.9558 18.9786 13.4617 17.8817 13.5779C17.0813 13.6619 16.3822 14.2622 16.3402 14.9095C17.5853 14.9095 18.8329 14.9095 20.1101 14.9095ZM10.9372 2.22348C10.8038 1.82327 10.784 1.34646 10.5617 1.21058C10.2899 1.05 9.79582 1.07224 9.48701 1.21058C9.08679 1.39093 9.28443 1.85044 9.27455 2.22348C9.78841 2.22348 10.2702 2.22348 10.9372 2.22348Z" fill="white"/>
<path d="M35.8645 19.7492C35.531 19.7344 35.3309 19.5664 35.3234 19.2304C35.316 18.8944 35.5137 18.6918 35.8373 18.6844C36.1634 18.6745 36.3759 18.8821 36.3833 19.2057C36.3932 19.5269 36.2005 19.7196 35.8645 19.7492Z" fill="white"/>
</g>
<defs>
<clipPath id="clip0_118_1484">
<rect width="36.4076" height="45" fill="white"/>
</clipPath>
</defs>
</svg>
