<svg width="50" height="42" viewBox="0 0 50 42" fill="none" xmlns="http://www.w3.org/2000/svg">
<g clip-path="url(#clip0_90_446)">
<mask id="path-1-inside-1_90_446" fill="white">
<path d="M0 36.3087C0.233809 35.9323 0.564562 35.7784 1.01507 35.8069C1.47699 35.8354 1.9446 35.8126 2.34949 35.8126C2.34949 29.4998 2.34949 23.244 2.35519 16.9881C2.35519 16.8114 2.34379 16.5833 2.44644 16.4749C2.62322 16.281 2.87984 16.0358 3.10794 16.0301C3.33605 16.0301 3.62688 16.2525 3.76945 16.4635C3.88921 16.6346 3.8664 16.9254 3.8664 17.1649C3.8721 23.0215 3.8721 28.8725 3.8721 34.7291C3.8721 35.6301 4.05458 35.8126 4.93849 35.8126C6.56945 35.8126 8.20611 35.8126 9.83707 35.8126C9.99104 35.8126 10.145 35.8126 10.2762 35.8126C9.56904 35.0998 8.822 34.4554 8.21751 33.6969C6.80896 31.9234 6.16456 29.8818 6.30713 27.6065C6.52383 24.2134 8.14338 21.6871 11.0859 20.0105C11.3768 19.8452 11.4794 19.6627 11.4737 19.3319C11.4566 17.7466 11.4623 16.1613 11.468 14.5759C11.468 13.8346 11.7132 13.5837 12.4489 13.578C13.2016 13.5723 13.9601 13.578 14.7527 13.578C14.7527 12.3918 14.7756 11.2627 14.7413 10.1336C14.7299 9.69446 14.3821 9.51768 13.9544 9.51768C12.888 9.51768 11.8216 9.51768 10.7495 9.51768C8.8277 9.51768 6.9002 9.51768 4.97841 9.51768C4.03177 9.51768 3.8721 9.67165 3.8721 10.6012C3.8721 11.5364 3.8721 12.4774 3.8721 13.4126C3.8721 13.5437 3.8778 13.6749 3.85499 13.8004C3.78086 14.211 3.56415 14.4904 3.11935 14.4961C2.67454 14.5018 2.38371 14.2281 2.38371 13.8175C2.3723 12.4431 2.34949 11.0688 2.45784 9.70016C2.52627 8.82196 3.37597 8.14334 4.25988 8.06921C4.72179 8.02929 5.19511 8.0635 5.70265 8.0635C5.71405 7.8411 5.73116 7.68713 5.73116 7.53316C5.73116 6.5466 5.72546 5.56004 5.73686 4.57348C5.74827 3.29039 6.64929 2.36656 7.92098 2.34945C8.84481 2.33805 9.76293 2.33805 10.6868 2.34945C11.9642 2.36656 12.8766 3.27898 12.8994 4.56208C12.9222 5.6798 12.9165 6.79181 12.9222 7.90953C12.9222 7.92664 12.9336 7.93805 12.9621 8.03499C13.156 8.03499 13.3727 8.0464 13.5951 8.03499C15.3287 7.91524 16.3666 8.94741 16.264 10.7209C16.224 11.4965 16.2582 12.2721 16.2582 13.0476C16.2582 13.2073 16.2754 13.3613 16.2868 13.578C17.0224 13.578 17.7295 13.5723 18.4367 13.578C19.2578 13.5837 19.4916 13.8232 19.4974 14.6558C19.4974 15.591 19.4974 16.5262 19.4974 17.604C21.3393 15.4541 23.6717 14.9751 26.2721 15.0892C26.158 14.9979 26.044 14.9067 25.9242 14.8211C22.6908 12.5287 21.1739 9.38652 21.2937 5.44029C21.3165 4.68754 21.5389 4.45943 22.2859 4.41381C24.3674 4.28835 26.3234 4.73316 28.1483 5.75393C28.3136 5.84517 28.479 5.94212 28.6045 6.01055C29.0094 5.05251 29.3629 4.08876 29.8191 3.17063C30.3723 2.05862 31.1821 1.12909 32.1173 0.319309C32.6134 -0.108389 32.9043 -0.108389 33.389 0.319309C35.0314 1.75067 36.1377 3.51849 36.6965 5.62277C36.7308 5.75963 36.7821 5.8908 36.8391 6.06187C37.9568 5.36615 39.1145 4.8244 40.3862 4.63051C41.3385 4.48224 42.3136 4.43662 43.2774 4.42522C43.9617 4.41951 44.167 4.67043 44.1955 5.34334C44.3894 9.31809 42.8554 12.4659 39.6277 14.7926C39.5022 14.8839 39.3768 14.9751 39.1316 15.1576C39.89 15.1576 40.5116 15.1519 41.1332 15.1576C44.0301 15.1918 46.5051 16.9197 47.4232 19.6228C47.6456 20.2843 47.7654 21.0085 47.7768 21.7099C47.8053 24.8122 47.8053 27.9201 47.7654 31.0224C47.7426 32.7731 46.9898 34.2273 45.7523 35.4419C45.6611 35.5275 45.5413 35.5845 45.433 35.6529C45.4558 35.6928 45.4843 35.7327 45.5071 35.7727C45.644 35.7841 45.7752 35.8012 45.912 35.8012C46.9157 35.8069 47.9193 35.7898 48.9173 35.8126C49.5161 35.824 49.824 36.2688 49.6472 36.8334C48.769 39.6619 46.1743 41.8004 43.1747 41.9201C41.5951 41.9829 40.0098 41.9715 38.4244 41.9829C38.0709 41.9886 37.7002 41.9087 37.5976 41.5323C37.5348 41.3042 37.5576 40.945 37.7002 40.7853C37.8656 40.6028 38.202 40.4945 38.4644 40.4888C39.9185 40.4602 41.3784 40.5173 42.8326 40.4602C45.0566 40.3747 46.7047 39.2969 47.8566 37.3124C32.5108 37.3124 17.2277 37.3124 1.89898 37.3124C2.40652 38.3503 3.17067 39.1087 4.12872 39.6733C5.11527 40.255 6.18737 40.4774 7.3279 40.4774C16.5149 40.4717 25.7018 40.4717 34.8888 40.4774C35.1112 40.4774 35.3963 40.4488 35.5446 40.5629C35.7556 40.734 36.0008 41.0305 35.9894 41.2643C35.978 41.4924 35.6929 41.7433 35.4762 41.9144C35.345 42.0114 35.1055 41.9829 34.9116 41.9829C25.7418 41.9829 16.5719 41.9886 7.40204 41.9829C4.89287 41.9829 2.78289 41.0989 1.26029 39.0631C0.747047 38.3788 0.433401 37.5462 0.0285132 36.7763C0 36.6338 0 36.4684 0 36.3087ZM24.5613 29.6252C24.7267 29.6366 24.8692 29.6594 25.0061 29.6594C29.209 29.6594 33.4118 29.6651 37.6204 29.6537C37.9226 29.6537 38.2363 29.6309 38.5271 29.5454C39.5878 29.2431 40.158 28.3706 40.1637 27.0875C40.1752 25.5307 39.6733 24.6411 38.5613 24.316C38.2248 24.2191 37.8599 24.1849 37.512 24.1849C33.4346 24.1735 29.3629 24.1792 25.2855 24.1792C24.7495 24.1792 24.4358 23.9055 24.4187 23.4721C24.4016 23.033 24.721 22.7136 25.2342 22.7136C29.534 22.7136 33.8338 22.7136 38.1393 22.7307C38.8692 22.7307 39.5251 23.0158 40.1067 23.4492C41.6578 24.6012 41.9373 26.3576 41.4868 28.3649C41.0933 30.1099 39.5764 31.1535 37.7059 31.1535C33.3377 31.1592 28.9752 31.1592 24.6069 31.1478C24.2933 31.1478 24.1165 31.2163 23.991 31.5299C23.3523 33.1666 22.2859 34.4839 20.8774 35.5275C20.7919 35.5902 20.7177 35.6643 20.5523 35.8069C20.769 35.8069 20.8774 35.8069 20.98 35.8069C27.6578 35.8069 34.3356 35.8069 41.0134 35.8012C41.4297 35.8012 41.8574 35.7613 42.2623 35.6643C44.6688 35.1055 46.2884 33.0582 46.2941 30.5833C46.2998 27.7034 46.2998 24.8293 46.2941 21.9495C46.2884 18.9156 44.0815 16.6859 41.042 16.6745C35.6244 16.6574 30.2069 16.6517 24.7894 16.6916C24.0367 16.6973 23.2383 16.857 22.5369 17.1364C21.2424 17.6497 20.3527 18.6305 19.8452 19.982C21.5674 20.9515 22.8676 22.2859 23.7287 24.0309C24.6012 25.7987 24.8236 27.6578 24.5613 29.6252ZM12.9678 18.5678C12.9678 19.0867 12.9678 19.5829 12.9678 20.079C12.9678 20.5067 12.8138 20.826 12.3976 20.9971C12.2208 21.0712 12.0497 21.1739 11.8786 21.2594C8.90183 22.7763 7.20815 26.312 7.89817 29.5682C8.8334 33.9877 13.0933 36.6395 17.4729 35.5275C22.2517 34.3128 24.6525 28.6786 22.2403 24.3902C21.3963 22.8847 20.2102 21.7727 18.6477 21.0598C18.1572 20.8374 17.9348 20.501 17.9633 19.9592C17.9862 19.4973 17.969 19.0354 17.969 18.5678C16.2754 18.5678 14.6501 18.5678 12.9678 18.5678ZM32.7503 1.77919C28.7185 5.56004 29.3458 11.9071 32.7788 14.8154C36.4513 11.2798 36.4513 5.29772 32.7503 1.77919ZM34.6094 15.0607C39.5022 14.7071 42.9923 10.0594 42.6672 5.94782C42.6273 5.93642 42.5817 5.91361 42.536 5.91361C40.58 5.87939 38.8236 6.47247 37.244 7.613C37.1242 7.69853 37.0729 7.93234 37.0444 8.10342C36.8733 9.21544 36.7992 10.3503 36.5369 11.4395C36.2232 12.7568 35.5104 13.9258 34.6094 15.0607ZM22.7992 5.91931C22.611 11.1201 27.0705 14.9523 30.8456 15.0207C30.7487 14.8896 30.6631 14.7812 30.5776 14.6672C29.2831 12.9393 28.5189 10.989 28.4961 8.83906C28.4847 7.86961 28.1141 7.39059 27.3271 6.99711C25.9071 6.28428 24.4358 5.83947 22.7992 5.91931ZM7.20815 7.98937C8.63381 7.98937 9.99104 7.98937 11.3768 7.98937C11.3768 6.79181 11.3882 5.63418 11.3711 4.47084C11.3654 4.03173 11.0574 3.84925 10.6582 3.84355C9.75723 3.83214 8.85051 3.83214 7.94949 3.84355C7.48187 3.84925 7.21385 4.10587 7.20815 4.56208C7.19674 5.6912 7.20815 6.82033 7.20815 7.98937ZM17.9519 15.0778C16.2754 15.0778 14.6501 15.0778 13.002 15.0778C13.002 15.7393 13.002 16.3723 13.002 17.0281C14.6672 17.0281 16.3039 17.0281 17.9519 17.0281C17.9519 16.3666 17.9519 15.7393 17.9519 15.0778Z"/>
</mask>
<path d="M0 36.3087C0.233809 35.9323 0.564562 35.7784 1.01507 35.8069C1.47699 35.8354 1.9446 35.8126 2.34949 35.8126C2.34949 29.4998 2.34949 23.244 2.35519 16.9881C2.35519 16.8114 2.34379 16.5833 2.44644 16.4749C2.62322 16.281 2.87984 16.0358 3.10794 16.0301C3.33605 16.0301 3.62688 16.2525 3.76945 16.4635C3.88921 16.6346 3.8664 16.9254 3.8664 17.1649C3.8721 23.0215 3.8721 28.8725 3.8721 34.7291C3.8721 35.6301 4.05458 35.8126 4.93849 35.8126C6.56945 35.8126 8.20611 35.8126 9.83707 35.8126C9.99104 35.8126 10.145 35.8126 10.2762 35.8126C9.56904 35.0998 8.822 34.4554 8.21751 33.6969C6.80896 31.9234 6.16456 29.8818 6.30713 27.6065C6.52383 24.2134 8.14338 21.6871 11.0859 20.0105C11.3768 19.8452 11.4794 19.6627 11.4737 19.3319C11.4566 17.7466 11.4623 16.1613 11.468 14.5759C11.468 13.8346 11.7132 13.5837 12.4489 13.578C13.2016 13.5723 13.9601 13.578 14.7527 13.578C14.7527 12.3918 14.7756 11.2627 14.7413 10.1336C14.7299 9.69446 14.3821 9.51768 13.9544 9.51768C12.888 9.51768 11.8216 9.51768 10.7495 9.51768C8.8277 9.51768 6.9002 9.51768 4.97841 9.51768C4.03177 9.51768 3.8721 9.67165 3.8721 10.6012C3.8721 11.5364 3.8721 12.4774 3.8721 13.4126C3.8721 13.5437 3.8778 13.6749 3.85499 13.8004C3.78086 14.211 3.56415 14.4904 3.11935 14.4961C2.67454 14.5018 2.38371 14.2281 2.38371 13.8175C2.3723 12.4431 2.34949 11.0688 2.45784 9.70016C2.52627 8.82196 3.37597 8.14334 4.25988 8.06921C4.72179 8.02929 5.19511 8.0635 5.70265 8.0635C5.71405 7.8411 5.73116 7.68713 5.73116 7.53316C5.73116 6.5466 5.72546 5.56004 5.73686 4.57348C5.74827 3.29039 6.64929 2.36656 7.92098 2.34945C8.84481 2.33805 9.76293 2.33805 10.6868 2.34945C11.9642 2.36656 12.8766 3.27898 12.8994 4.56208C12.9222 5.6798 12.9165 6.79181 12.9222 7.90953C12.9222 7.92664 12.9336 7.93805 12.9621 8.03499C13.156 8.03499 13.3727 8.0464 13.5951 8.03499C15.3287 7.91524 16.3666 8.94741 16.264 10.7209C16.224 11.4965 16.2582 12.2721 16.2582 13.0476C16.2582 13.2073 16.2754 13.3613 16.2868 13.578C17.0224 13.578 17.7295 13.5723 18.4367 13.578C19.2578 13.5837 19.4916 13.8232 19.4974 14.6558C19.4974 15.591 19.4974 16.5262 19.4974 17.604C21.3393 15.4541 23.6717 14.9751 26.2721 15.0892C26.158 14.9979 26.044 14.9067 25.9242 14.8211C22.6908 12.5287 21.1739 9.38652 21.2937 5.44029C21.3165 4.68754 21.5389 4.45943 22.2859 4.41381C24.3674 4.28835 26.3234 4.73316 28.1483 5.75393C28.3136 5.84517 28.479 5.94212 28.6045 6.01055C29.0094 5.05251 29.3629 4.08876 29.8191 3.17063C30.3723 2.05862 31.1821 1.12909 32.1173 0.319309C32.6134 -0.108389 32.9043 -0.108389 33.389 0.319309C35.0314 1.75067 36.1377 3.51849 36.6965 5.62277C36.7308 5.75963 36.7821 5.8908 36.8391 6.06187C37.9568 5.36615 39.1145 4.8244 40.3862 4.63051C41.3385 4.48224 42.3136 4.43662 43.2774 4.42522C43.9617 4.41951 44.167 4.67043 44.1955 5.34334C44.3894 9.31809 42.8554 12.4659 39.6277 14.7926C39.5022 14.8839 39.3768 14.9751 39.1316 15.1576C39.89 15.1576 40.5116 15.1519 41.1332 15.1576C44.0301 15.1918 46.5051 16.9197 47.4232 19.6228C47.6456 20.2843 47.7654 21.0085 47.7768 21.7099C47.8053 24.8122 47.8053 27.9201 47.7654 31.0224C47.7426 32.7731 46.9898 34.2273 45.7523 35.4419C45.6611 35.5275 45.5413 35.5845 45.433 35.6529C45.4558 35.6928 45.4843 35.7327 45.5071 35.7727C45.644 35.7841 45.7752 35.8012 45.912 35.8012C46.9157 35.8069 47.9193 35.7898 48.9173 35.8126C49.5161 35.824 49.824 36.2688 49.6472 36.8334C48.769 39.6619 46.1743 41.8004 43.1747 41.9201C41.5951 41.9829 40.0098 41.9715 38.4244 41.9829C38.0709 41.9886 37.7002 41.9087 37.5976 41.5323C37.5348 41.3042 37.5576 40.945 37.7002 40.7853C37.8656 40.6028 38.202 40.4945 38.4644 40.4888C39.9185 40.4602 41.3784 40.5173 42.8326 40.4602C45.0566 40.3747 46.7047 39.2969 47.8566 37.3124C32.5108 37.3124 17.2277 37.3124 1.89898 37.3124C2.40652 38.3503 3.17067 39.1087 4.12872 39.6733C5.11527 40.255 6.18737 40.4774 7.3279 40.4774C16.5149 40.4717 25.7018 40.4717 34.8888 40.4774C35.1112 40.4774 35.3963 40.4488 35.5446 40.5629C35.7556 40.734 36.0008 41.0305 35.9894 41.2643C35.978 41.4924 35.6929 41.7433 35.4762 41.9144C35.345 42.0114 35.1055 41.9829 34.9116 41.9829C25.7418 41.9829 16.5719 41.9886 7.40204 41.9829C4.89287 41.9829 2.78289 41.0989 1.26029 39.0631C0.747047 38.3788 0.433401 37.5462 0.0285132 36.7763C0 36.6338 0 36.4684 0 36.3087ZM24.5613 29.6252C24.7267 29.6366 24.8692 29.6594 25.0061 29.6594C29.209 29.6594 33.4118 29.6651 37.6204 29.6537C37.9226 29.6537 38.2363 29.6309 38.5271 29.5454C39.5878 29.2431 40.158 28.3706 40.1637 27.0875C40.1752 25.5307 39.6733 24.6411 38.5613 24.316C38.2248 24.2191 37.8599 24.1849 37.512 24.1849C33.4346 24.1735 29.3629 24.1792 25.2855 24.1792C24.7495 24.1792 24.4358 23.9055 24.4187 23.4721C24.4016 23.033 24.721 22.7136 25.2342 22.7136C29.534 22.7136 33.8338 22.7136 38.1393 22.7307C38.8692 22.7307 39.5251 23.0158 40.1067 23.4492C41.6578 24.6012 41.9373 26.3576 41.4868 28.3649C41.0933 30.1099 39.5764 31.1535 37.7059 31.1535C33.3377 31.1592 28.9752 31.1592 24.6069 31.1478C24.2933 31.1478 24.1165 31.2163 23.991 31.5299C23.3523 33.1666 22.2859 34.4839 20.8774 35.5275C20.7919 35.5902 20.7177 35.6643 20.5523 35.8069C20.769 35.8069 20.8774 35.8069 20.98 35.8069C27.6578 35.8069 34.3356 35.8069 41.0134 35.8012C41.4297 35.8012 41.8574 35.7613 42.2623 35.6643C44.6688 35.1055 46.2884 33.0582 46.2941 30.5833C46.2998 27.7034 46.2998 24.8293 46.2941 21.9495C46.2884 18.9156 44.0815 16.6859 41.042 16.6745C35.6244 16.6574 30.2069 16.6517 24.7894 16.6916C24.0367 16.6973 23.2383 16.857 22.5369 17.1364C21.2424 17.6497 20.3527 18.6305 19.8452 19.982C21.5674 20.9515 22.8676 22.2859 23.7287 24.0309C24.6012 25.7987 24.8236 27.6578 24.5613 29.6252ZM12.9678 18.5678C12.9678 19.0867 12.9678 19.5829 12.9678 20.079C12.9678 20.5067 12.8138 20.826 12.3976 20.9971C12.2208 21.0712 12.0497 21.1739 11.8786 21.2594C8.90183 22.7763 7.20815 26.312 7.89817 29.5682C8.8334 33.9877 13.0933 36.6395 17.4729 35.5275C22.2517 34.3128 24.6525 28.6786 22.2403 24.3902C21.3963 22.8847 20.2102 21.7727 18.6477 21.0598C18.1572 20.8374 17.9348 20.501 17.9633 19.9592C17.9862 19.4973 17.969 19.0354 17.969 18.5678C16.2754 18.5678 14.6501 18.5678 12.9678 18.5678ZM32.7503 1.77919C28.7185 5.56004 29.3458 11.9071 32.7788 14.8154C36.4513 11.2798 36.4513 5.29772 32.7503 1.77919ZM34.6094 15.0607C39.5022 14.7071 42.9923 10.0594 42.6672 5.94782C42.6273 5.93642 42.5817 5.91361 42.536 5.91361C40.58 5.87939 38.8236 6.47247 37.244 7.613C37.1242 7.69853 37.0729 7.93234 37.0444 8.10342C36.8733 9.21544 36.7992 10.3503 36.5369 11.4395C36.2232 12.7568 35.5104 13.9258 34.6094 15.0607ZM22.7992 5.91931C22.611 11.1201 27.0705 14.9523 30.8456 15.0207C30.7487 14.8896 30.6631 14.7812 30.5776 14.6672C29.2831 12.9393 28.5189 10.989 28.4961 8.83906C28.4847 7.86961 28.1141 7.39059 27.3271 6.99711C25.9071 6.28428 24.4358 5.83947 22.7992 5.91931ZM7.20815 7.98937C8.63381 7.98937 9.99104 7.98937 11.3768 7.98937C11.3768 6.79181 11.3882 5.63418 11.3711 4.47084C11.3654 4.03173 11.0574 3.84925 10.6582 3.84355C9.75723 3.83214 8.85051 3.83214 7.94949 3.84355C7.48187 3.84925 7.21385 4.10587 7.20815 4.56208C7.19674 5.6912 7.20815 6.82033 7.20815 7.98937ZM17.9519 15.0778C16.2754 15.0778 14.6501 15.0778 13.002 15.0778C13.002 15.7393 13.002 16.3723 13.002 17.0281C14.6672 17.0281 16.3039 17.0281 17.9519 17.0281C17.9519 16.3666 17.9519 15.7393 17.9519 15.0778Z" fill="#3F3D56" stroke="#3F3D56" stroke-width="0.4" mask="url(#path-1-inside-1_90_446)"/>
</g>
<defs>
<clipPath id="clip0_90_446">
<rect width="49.6815" height="42" fill="white"/>
</clipPath>
</defs>
</svg>
