<svg width="37" height="45" viewBox="0 0 37 45" fill="none" xmlns="http://www.w3.org/2000/svg">
<g clip-path="url(#clip0_90_443)">
<path d="M31.7311 28.9443C31.2864 30.4291 29.9202 31.4296 28.2551 31.5136C26.8889 31.5828 26.2713 31.4247 24.8903 30.6415C24.7964 30.938 24.7248 31.2394 24.6037 31.5186C24.0478 32.8008 23.0671 33.6901 21.8022 34.1867C20.7819 34.5869 20.3396 35.3379 20.1124 36.299C19.9073 37.1636 19.9419 38.0333 20.1272 38.9053C20.2803 39.6242 20.6954 40.106 21.3278 40.4148C22.5334 41.0028 23.8255 41.1263 25.1571 41.0843C25.0657 40.7286 24.9347 40.4074 24.91 40.0764C24.7816 38.3668 26.2367 37.1785 27.9907 37.5367C29.8955 37.927 31.2172 39.6712 31.0369 41.5636C30.8516 43.5301 29.2433 44.9951 27.2521 44.9976C21.2142 45.0025 15.1763 45.0025 9.13596 44.9976C7.17192 44.9951 5.57351 43.5474 5.36846 41.5957C5.16835 39.7008 6.51229 37.9147 8.4294 37.5342C10.1686 37.1883 11.604 38.3569 11.4977 40.0492C11.4755 40.3802 11.347 40.7039 11.2507 41.0917C12.7651 41.1041 14.2425 41.0127 15.5419 40.1208C16.2139 39.6588 16.3177 38.9128 16.3992 38.1889C16.4906 37.386 16.4338 36.5831 16.1522 35.8148C15.8928 35.1131 15.5074 34.5721 14.7489 34.2583C13.3012 33.658 12.1574 32.6945 11.6657 31.1258C11.6188 30.9751 11.5793 30.8194 11.5225 30.6168C10.3144 31.4617 9.00255 31.7088 7.60672 31.4247C6.19854 31.1381 5.09917 30.4439 4.66437 28.9344C3.47112 29.5372 2.35693 29.31 1.33415 28.5466C0.486767 27.9141 0.0272553 27.0272 0.0173734 25.9773C-0.00980202 22.8373 7.99443e-05 19.6973 0.00996191 16.5597C0.0124324 15.621 0.716522 14.9465 1.66272 14.9268C1.95671 14.9193 2.25317 14.9268 2.60892 14.9268C2.60892 14.3635 2.62127 13.8323 2.59657 13.3061C2.59163 13.2147 2.45822 13.0912 2.35693 13.0467C1.35144 12.5971 0.85487 11.8337 0.882045 10.7294C0.891927 10.3588 0.886986 9.98577 0.884516 9.61272C0.879575 9.23474 1.05992 9.01239 1.44038 9.00745C2.58421 8.99757 3.73052 8.99757 4.87683 9.00745C5.25234 9.00992 5.44504 9.21992 5.44257 9.60284C5.4401 10.0352 5.44504 10.465 5.4401 10.8974C5.43022 11.893 4.94353 12.5946 4.05416 12.9973C3.78981 13.1159 3.69841 13.2443 3.71076 13.521C3.73052 13.9657 3.7157 14.4129 3.7157 14.8922C4.6199 14.8922 5.49939 14.8922 6.32454 14.8922C7.12498 12.476 6.67041 10.008 6.76676 7.56963C6.78652 7.03847 6.91251 6.61108 7.32015 6.27262C7.38932 6.2158 7.43873 6.13427 7.51037 6.08486C8.52575 5.40301 8.50104 4.34564 8.33058 3.35744C8.24164 2.83617 8.14035 2.32477 8.14529 1.79609C8.1527 0.647311 8.80244 0.0198066 9.94875 0.00251315C10.4848 -0.00489832 11.0358 0.00498363 11.3841 0.444731C11.6386 0.765895 11.8584 1.18588 11.898 1.58363C11.9523 2.13949 11.8733 2.70523 11.7621 3.28085C11.5966 4.15541 11.4286 5.17078 12.3427 5.8724C12.5428 6.02557 12.7478 6.20098 12.8713 6.41097C13.0492 6.71731 13.2617 7.06565 13.2691 7.39916C13.3061 9.30391 13.2839 11.2087 13.2938 13.1134C13.2938 13.3061 13.3951 13.4988 13.4445 13.694C13.5408 14.0769 13.6298 14.4574 13.736 14.8922C14.1387 14.8922 14.618 14.8922 15.1145 14.8922C15.4555 13.568 16.3127 12.7774 17.6394 12.4983C17.6394 10.6701 17.6394 8.85922 17.6394 6.994C16.629 7.03847 15.6581 6.99153 14.865 6.27015C14.0918 5.56606 13.8274 4.67174 13.8842 3.64402C13.489 3.57237 13.0739 3.54026 13.1085 3.01651C13.1382 2.55453 13.5087 2.52736 13.862 2.48536C13.9114 2.08761 13.8447 1.59104 14.4401 1.60833C14.9886 1.62316 14.9688 2.07031 14.9886 2.49524C15.3912 2.50018 15.7618 2.61382 15.7495 3.08816C15.7371 3.52049 15.3789 3.60943 15.0231 3.61437C14.7637 5.20043 15.8088 6.09969 17.6344 5.86993C17.6344 4.64704 17.6344 3.4192 17.6344 2.16666C17.2342 2.16419 16.8513 2.08761 16.8711 1.5861C16.8908 1.13894 17.2392 1.06482 17.6246 1.07224C17.7308 0.667075 17.4837 0.0173361 18.2027 0.0272181C18.882 0.0371 18.6844 0.6399 18.7437 1.06977C19.1612 1.06482 19.5367 1.15376 19.5145 1.65033C19.4947 2.09749 19.1414 2.16913 18.7486 2.16172C18.7486 3.39944 18.7486 4.62974 18.7486 5.85511C20.4632 6.18615 21.5601 5.26466 21.3797 3.63166C21.0116 3.59461 20.604 3.51802 20.6386 3.02639C20.6682 2.61135 20.9993 2.48536 21.397 2.515C21.4267 2.08514 21.3945 1.6108 21.9702 1.6108C22.526 1.6108 22.4939 2.07031 22.5186 2.47548C22.8892 2.53971 23.3042 2.56935 23.282 3.08569C23.2647 3.54273 22.9164 3.60696 22.5013 3.6119C22.5655 4.66927 22.2987 5.57841 21.5082 6.28744C20.725 6.98906 19.769 7.04341 18.761 6.994C18.761 8.8444 18.761 10.6528 18.761 12.5007C19.8925 12.728 20.7201 13.3778 21.1747 14.5191C21.9282 10.8628 24.1269 8.7777 27.7758 8.20702C27.845 7.80432 27.7165 7.23364 28.3712 7.26082C28.9641 7.28552 28.8851 7.80433 28.9048 8.21196C29.3619 8.3083 29.8016 8.37748 30.229 8.49112C33.1368 9.27427 35.2466 11.8164 35.5109 14.823C35.5257 14.9836 35.6443 15.1738 35.7728 15.28C36.3855 15.7939 36.4744 16.4733 36.3534 17.1848C36.3237 17.3528 36.0223 17.5479 35.8173 17.5899C35.5381 17.6468 35.3602 17.4294 35.3207 17.1378C35.3182 17.123 35.3182 17.1082 35.3158 17.0934C35.1848 16.0162 35.1848 16.0162 34.083 16.0162C33.327 16.0162 32.571 16.0162 31.778 16.0162C31.7681 16.1966 31.7508 16.3399 31.7508 16.4832C31.7484 18.7733 31.7854 21.0659 31.7335 23.3561C31.7088 24.4431 32.571 25.0508 33.5617 24.7618C34.6018 24.4579 35.2639 23.6229 35.3059 22.4519C35.3182 22.0961 35.3059 21.7379 35.3158 21.3797C35.3232 21.0462 35.5085 20.8411 35.837 20.8288C36.1458 20.8189 36.3781 21.014 36.3781 21.3105C36.3879 22.9756 36.4547 24.6481 36.3361 26.3058C36.1928 28.3736 33.8038 29.9622 31.7311 28.9443ZM12.5798 16.0409C12.5798 16.2658 12.5798 16.4288 12.5798 16.5919C12.5798 19.8183 12.607 23.0473 12.5675 26.2737C12.5502 27.7239 13.19 28.7368 14.3561 29.4903C15.3122 30.1104 16.377 30.4167 17.501 30.5007C19.3984 30.6415 21.1722 30.2883 22.6644 29.016C23.4401 28.3563 23.828 27.509 23.8255 26.4714C23.8131 23.156 23.8206 19.8381 23.8206 16.5227C23.8206 16.3646 23.8082 16.2065 23.8008 16.0409C20.0506 16.0409 16.3399 16.0409 12.5798 16.0409ZM24.91 16.036C24.9026 16.1645 24.8928 16.2386 24.8928 16.3127C24.8928 19.2402 24.8952 22.1678 24.8903 25.0953C24.8903 25.666 25.1349 26.1131 25.5894 26.417C26.8889 27.2891 28.2551 27.3212 29.6361 26.6295C30.3278 26.2836 30.6712 25.7203 30.6638 24.9051C30.6391 22.1109 30.6539 19.3168 30.6539 16.5252C30.6539 16.367 30.6391 16.2089 30.6292 16.0385C28.7047 16.036 26.8247 16.036 24.91 16.036ZM5.74891 16.0335C5.74891 16.2361 5.74891 16.3819 5.74891 16.5301C5.74891 19.3242 5.76374 22.1184 5.73903 24.91C5.73162 25.7055 6.06514 26.2589 6.73464 26.6097C8.02424 27.2866 9.32866 27.2767 10.601 26.5603C11.2136 26.2169 11.5225 25.6857 11.5175 24.9495C11.5002 22.1406 11.5101 19.3316 11.5101 16.5252C11.5101 16.367 11.5101 16.2089 11.5101 16.0335C9.57323 16.0335 7.69319 16.0335 5.74891 16.0335ZM22.3259 14.8971C26.3454 14.8971 30.3674 14.8971 34.3893 14.8971C34.2559 11.7868 31.3259 9.16309 28.1736 9.30391C24.4234 9.47191 22.3531 12.6045 22.3259 14.8971ZM4.64954 16.0187C3.59712 16.0187 2.60645 16.0039 1.61578 16.0261C1.23038 16.0335 1.09451 16.3176 1.09451 16.6734C1.09451 18.6177 1.07227 20.5644 1.10439 22.5087C1.12415 23.6846 1.83813 24.5147 2.93996 24.7741C3.94051 25.0088 4.64707 24.4604 4.64954 23.4327C4.65449 21.9924 4.65202 20.5521 4.65202 19.1118C4.64954 18.1013 4.64954 17.0934 4.64954 16.0187ZM15.7223 41.2968C14.6674 41.8502 13.489 42.1244 12.2636 42.1689C11.2532 42.2059 10.2427 42.2158 9.23231 42.1861C9.03714 42.1812 8.77032 41.9762 8.67892 41.7933C8.61468 41.6599 8.74562 41.3783 8.86914 41.2251C8.95067 41.1238 9.16313 41.114 9.32372 41.0893C9.91416 40.9978 10.3514 40.563 10.4305 39.9751C10.4972 39.481 10.2007 38.8955 9.69676 38.7176C9.3756 38.6039 8.9902 38.5595 8.65915 38.6163C7.30285 38.8559 6.34183 40.0912 6.45053 41.3832C6.57406 42.8532 7.68331 43.918 9.16066 43.9278C11.5249 43.9451 13.8892 43.9328 16.251 43.9328C16.3201 43.9328 16.3893 43.9229 16.3844 43.9229C16.1596 43.0409 15.9422 42.1738 15.7223 41.2968ZM20.0209 43.9278C22.442 43.9278 24.91 43.9575 27.3756 43.9155C28.7986 43.8908 29.8708 42.7667 29.9597 41.3412C30.0413 40.0418 29.0555 38.8362 27.7116 38.5916C26.8494 38.4335 26.1206 38.8806 25.9822 39.6539C25.8711 40.274 26.3849 41.0892 27.2101 41.1016C27.5411 41.1065 27.7808 41.2943 27.7684 41.6649C27.7536 42.0602 27.4868 42.1936 27.1335 42.201C26.7481 42.2084 26.3602 42.1985 25.9748 42.2034C24.1393 42.2281 22.316 42.1738 20.683 41.2918C20.4607 42.1689 20.2433 43.0335 20.0209 43.9278ZM12.607 29.4631C12.4835 30.5897 12.8071 31.4914 13.573 32.2177C14.7884 33.3714 16.2831 33.8161 17.9186 33.8705C19.5491 33.9248 21.0783 33.5913 22.405 32.5908C23.4129 31.8274 23.9441 30.8293 23.7959 29.5002C20.7794 32.4771 15.2134 32.1634 12.607 29.4631ZM7.85377 11.6632C7.85377 12.3229 7.87354 12.8417 7.84389 13.358C7.82907 13.6149 7.72037 13.8669 7.65613 14.1214C7.5919 14.3734 7.53014 14.6253 7.46343 14.8922C9.23478 14.8922 10.8925 14.8922 12.6169 14.8922C12.5551 14.6204 12.5082 14.3956 12.4514 14.1757C12.3797 13.8941 12.2512 13.6199 12.229 13.3358C12.192 12.8244 12.2191 12.3105 12.2191 11.6805C11.9153 11.804 11.6855 11.8535 11.5052 11.977C10.5713 12.6168 9.48677 12.6119 8.54798 11.9671C8.38493 11.846 8.17 11.7942 7.85377 11.6632ZM5.74891 27.3039C5.74891 27.6621 5.76621 27.9685 5.74644 28.2748C5.69456 29.0703 6.07996 29.6015 6.73958 29.972C7.43132 30.3624 8.18976 30.5427 8.96796 30.434C11.1124 30.1326 11.772 29.2432 11.4607 27.3286C9.5757 28.4774 7.69319 28.4799 5.74891 27.3039ZM24.8928 27.2965C24.8928 27.6374 24.9125 27.9166 24.8903 28.1908C24.8112 29.1074 25.2856 29.683 26.0489 30.056C27.0273 30.5328 28.0575 30.6094 29.0728 30.2339C30.6391 29.6558 30.8145 28.9246 30.5848 27.3459C28.7121 28.4725 26.8395 28.4799 24.8928 27.2965ZM19.4676 41.2647C19.4799 40.4939 19.3514 39.7527 18.929 39.0956C18.4744 38.3915 17.9408 38.3964 17.4739 39.0906C16.75 40.1678 16.75 42.2998 17.4763 43.3868C17.9408 44.086 18.4719 44.0909 18.929 43.3868C19.3416 42.7445 19.475 42.0206 19.4676 41.2647ZM12.1747 8.37007C12.2834 7.70056 12.2957 7.14223 11.7127 6.75684C11.5916 6.67531 11.5027 6.54684 11.394 6.44555C10.8529 5.9391 10.5886 5.32148 10.6183 4.57539C10.6331 4.17764 10.6207 3.77989 10.6207 3.36485C10.2082 3.36485 9.84746 3.36485 9.45218 3.36485C9.45218 3.64649 9.42994 3.89848 9.45712 4.148C9.56829 5.21031 9.22984 6.09227 8.37999 6.73707C7.83648 7.14964 7.77719 7.67092 7.91059 8.35524C8.086 8.28607 8.27129 8.25642 8.40222 8.15266C9.45712 7.32011 10.6355 7.31764 11.6682 8.14278C11.7991 8.24901 11.9869 8.28854 12.1747 8.37007ZM7.87848 10.5293C8.30093 10.68 8.73574 10.7319 9.03714 10.9616C9.71899 11.4829 10.3811 11.5026 11.0481 10.9394C11.2136 10.7986 11.4582 10.7319 11.6781 10.6775C11.8387 10.638 12.019 10.6701 12.2018 10.6701C12.2018 10.2229 12.2018 9.84248 12.2018 9.55096C11.7991 9.39285 11.3718 9.33356 11.1074 9.09639C10.4256 8.48371 9.63253 8.46642 8.97043 9.10874C8.80985 9.26438 8.54551 9.32615 8.31822 9.39779C8.18482 9.43979 8.03412 9.42002 7.87848 9.42991C7.87848 9.85236 7.87848 10.2328 7.87848 10.5293ZM1.12415 25.0484C1.12415 25.4535 1.09204 25.792 1.12909 26.1255C1.26003 27.2644 2.11729 28.0796 3.24631 28.1711C3.91087 28.2254 4.52849 27.84 4.61002 27.2224C4.67919 26.7061 4.62484 26.1724 4.62484 25.6116C3.33771 26.1774 2.21611 25.8883 1.12415 25.0484ZM31.7533 25.6017C31.7533 26.0785 31.7459 26.5035 31.7558 26.9284C31.7755 27.7214 32.3685 28.2402 33.1615 28.1711C34.6463 28.0426 35.5752 26.6888 35.2441 25.0904C34.1892 25.8735 33.0602 26.1897 31.7533 25.6017ZM17.086 34.9501C17.2589 35.8073 17.4343 36.6819 17.6073 37.5317C18.0026 37.5317 18.4225 37.5317 18.798 37.5317C18.9685 36.672 19.1439 35.7975 19.3119 34.9501C18.5806 34.9501 17.8024 34.9501 17.086 34.9501ZM1.96906 10.1019C1.93942 10.8356 1.86036 11.5372 2.59904 11.9498C2.99926 12.1746 3.57982 12.1153 3.93063 11.8115C4.48155 11.3371 4.3852 10.717 4.34815 10.0994C3.53782 10.1019 2.77444 10.1019 1.96906 10.1019ZM20.1099 14.9095C19.8332 13.9558 18.9784 13.4617 17.8815 13.5779C17.0811 13.6619 16.3819 14.2622 16.3399 14.9095C17.585 14.9095 18.8326 14.9095 20.1099 14.9095ZM10.9369 2.22348C10.8035 1.82327 10.7838 1.34646 10.5614 1.21058C10.2897 1.05 9.79558 1.07224 9.48677 1.21058C9.08655 1.39093 9.28419 1.85044 9.27431 2.22348C9.78817 2.22348 10.2699 2.22348 10.9369 2.22348Z" fill="#3F3D56"/>
<path d="M35.8642 19.7492C35.5307 19.7344 35.3306 19.5664 35.3232 19.2304C35.3158 18.8944 35.5134 18.6918 35.8371 18.6844C36.1632 18.6745 36.3756 18.8821 36.383 19.2057C36.3929 19.5269 36.2002 19.7196 35.8642 19.7492Z" fill="#3F3D56"/>
</g>
<defs>
<clipPath id="clip0_90_443">
<rect width="36.4076" height="45" fill="white"/>
</clipPath>
</defs>
</svg>
