<svg width="46" height="45" viewBox="0 0 46 45" fill="none" xmlns="http://www.w3.org/2000/svg">
<g clip-path="url(#clip0_90_424)">
<path d="M45.0126 29.0008C44.7661 29.3408 44.4261 29.4188 44.0206 29.4157C35.4954 29.4094 26.9701 29.4094 18.448 29.4094C18.2609 29.4094 18.0737 29.4094 17.8398 29.4094C17.977 30.2704 18.1049 31.072 18.2359 31.8768C18.3701 32.7004 18.5042 33.5207 18.6477 34.3411C18.6726 34.4722 18.7257 34.6437 18.8224 34.7092C20.3321 35.7105 21.7982 36.793 23.3798 37.6633C25.7224 38.9547 28.1929 38.7769 30.651 37.9315C30.9411 37.8317 31.2281 37.7257 31.5213 37.6321C31.9736 37.4886 32.3167 37.629 32.4634 38.0126C32.6037 38.3838 32.4197 38.7145 31.9705 38.8954C28.1025 40.4582 24.3998 40.2555 20.9217 37.8286C19.4088 36.7742 17.9209 35.6825 16.408 34.6312C14.9606 33.6268 13.4726 32.6754 11.7164 32.3229C7.56768 31.49 4.09583 32.6879 1.34454 35.9164C1.29775 35.9726 1.26032 36.035 1.21041 36.0911C0.92655 36.4062 0.57718 36.4529 0.274602 36.2252C-0.0186188 36.0038 -0.105961 35.5982 0.162305 35.2925C0.739388 34.6344 1.30399 33.945 1.97778 33.3929C5.63056 30.3983 10.9584 29.6184 15.6468 32.5506C16.1303 32.8532 16.6107 33.1558 17.1535 33.4989C16.9601 32.3135 16.7823 31.1843 16.5889 30.0582C16.4766 29.4094 16.4672 29.4125 15.8091 29.4125C10.9023 29.4125 5.99552 29.4125 1.08876 29.4125C0.914072 29.4125 0.733149 29.4157 0.564703 29.3813C0.221573 29.3096 0.0250524 29.085 0.0312911 28.7294C0.0344105 28.3738 0.243408 28.1586 0.583419 28.0899C0.739388 28.0587 0.904714 28.065 1.0638 28.065C5.94249 28.065 10.8181 28.065 15.6968 28.065C15.8683 28.065 16.0399 28.065 16.2645 28.065C15.8122 25.3605 15.3786 22.709 14.9419 20.0607C14.2712 20.2728 13.6598 21.218 13.6349 22.0727C13.6286 22.2473 13.6754 22.4345 13.6286 22.5967C13.5725 22.7932 13.482 23.0615 13.3323 23.1239C13.1576 23.1988 12.8332 23.1582 12.699 23.0334C12.4869 22.8369 12.3434 22.5437 12.2374 22.2661C11.8724 21.3178 11.0458 20.7313 10.0413 20.7501C8.9402 20.7719 7.97632 21.4457 7.72053 22.4283C7.63319 22.7589 7.65814 23.1239 7.65814 23.4701C7.65814 23.9193 7.48346 24.1814 7.11538 24.2437C6.74105 24.3061 6.45719 24.0909 6.33553 23.6511C6.02048 22.5031 5.1065 21.7358 4.02096 21.7077C3.00717 21.6796 2.0464 22.3628 1.74694 23.3766C1.65024 23.7041 1.644 24.0659 1.65648 24.4122C1.67208 24.8707 1.47868 25.1702 1.05756 25.2295C0.589658 25.295 0.277721 25.0829 0.215334 24.6118C-0.539553 19.0188 1.11059 14.2555 5.19696 10.3782C7.53025 8.16028 10.3502 6.85639 13.5257 6.36041C21.6298 5.09394 29.3565 10.2347 31.3778 18.1048C31.4901 18.5415 31.5931 18.9876 31.6461 19.4337C31.7022 19.9078 31.409 20.2354 30.9879 20.2322C30.5761 20.2291 30.4139 19.9733 30.3359 19.599C30.1082 18.5384 29.2816 17.8522 28.2273 17.8241C26.9982 17.7929 26.0094 18.4324 25.738 19.4867C25.6569 19.8049 25.6787 20.1511 25.6787 20.488C25.6787 20.9622 25.5196 21.2024 25.1422 21.2554C24.7492 21.3115 24.4528 21.1088 24.3624 20.6689C24.0036 18.9533 22.3597 18.4916 21.1057 18.9377C20.0639 19.3089 19.5149 20.2385 19.6615 21.3614C19.7301 21.898 19.4525 22.2536 18.9659 22.2505C18.5635 22.2473 18.4168 21.9853 18.3389 21.6422C18.1143 20.6471 17.4873 20.0388 16.5109 19.7799C16.4548 19.7643 16.3955 19.7737 16.252 19.7643C16.7043 22.5281 17.1535 25.27 17.612 28.0618C17.8117 28.0618 17.9988 28.0618 18.1829 28.0618C26.7955 28.0618 35.408 28.065 44.0206 28.0556C44.4261 28.0556 44.7693 28.1211 45.0126 28.4705C45.0126 28.6514 45.0126 28.8261 45.0126 29.0008ZM11.941 19.8985C11.5418 16.0336 11.13 12.2155 11.8038 8.34432C11.2454 8.78104 10.6964 9.22087 10.2285 9.73556C9.3426 10.715 8.76552 11.8817 8.31321 13.1107C8.13541 13.5911 7.80476 13.7595 7.40236 13.6067C7.02179 13.4601 6.87206 13.1107 7.06235 12.6678C7.38364 11.916 7.73301 11.1767 8.09486 10.4437C8.25082 10.1286 8.46294 9.8385 8.6501 9.53904C6.4759 10.7462 4.78833 12.4307 3.48131 14.5176C1.99025 16.8976 1.24473 20.2821 1.45996 21.3396C2.86368 20.2385 4.36097 20.0513 5.86139 20.8592C5.96433 19.3339 6.05791 17.8022 6.17333 16.2738C6.21388 15.7497 6.48214 15.5126 6.92197 15.5563C7.35557 15.5969 7.52713 15.8776 7.49282 16.4141C7.41795 17.6556 7.35869 18.8971 7.2963 20.1387C7.29006 20.2416 7.32125 20.3445 7.33685 20.4787C8.7624 19.2403 10.2722 19.0812 11.941 19.8985ZM17.8179 18.8379C17.793 18.6632 17.7899 18.5322 17.7587 18.4105C17.3219 16.698 16.9227 14.9761 16.4298 13.2823C15.9588 11.654 15.3817 10.0537 14.4833 8.60011C14.2743 8.26322 13.9905 7.97312 13.666 7.5676C13.5007 7.91385 13.3416 8.12285 13.3011 8.35056C13.1295 9.32693 12.8768 10.3095 12.8675 11.289C12.8488 13.3509 12.9486 15.4128 13.0328 17.4747C13.0609 18.1516 13.1794 18.8223 13.2668 19.5647C14.6642 18.3076 16.1553 18.083 17.8179 18.8379ZM15.5689 7.73917C17.4966 11.2266 18.342 14.9387 19.1904 18.6944C20.4631 17.4061 21.9199 17.091 23.6262 17.743C22.9025 15.3598 21.923 13.2043 20.4413 11.3015C19.4525 10.0288 18.3108 8.93076 16.8353 8.22891C16.4579 8.0511 16.0586 7.92633 15.5689 7.73917ZM29.4875 16.6949C28.9322 14.87 27.1823 12.4619 25.2919 10.8835C23.4609 9.35812 20.1138 7.78596 18.8567 7.86706C22.1601 10.4218 23.8976 13.9467 25.0642 17.8615C26.312 16.4952 27.7562 16.1209 29.4875 16.6949Z" fill="#3F3D56"/>
<path d="M45.0125 38.8486C44.5446 39.3509 44.2857 39.4039 43.8303 39.0358C41.5874 37.2141 39.0514 36.8554 36.3063 37.4824C35.7324 37.6134 35.3643 37.4637 35.2676 37.0581C35.1803 36.69 35.3643 36.3376 35.7511 36.244C38.9828 35.4517 41.9898 35.8135 44.6382 37.9877C44.7817 38.1062 44.8908 38.2684 45.0156 38.4088C45.0125 38.5554 45.0125 38.702 45.0125 38.8486Z" fill="#3F3D56"/>
<path d="M45.0126 7.55512C44.7849 7.88265 44.4761 8.01054 44.0799 7.98559C43.6744 7.96375 43.2626 7.99183 42.8571 7.97623C42.4235 7.96063 42.1334 7.68613 42.1272 7.31493C42.1178 6.94684 42.4048 6.65986 42.8384 6.64426C43.3344 6.62866 43.8335 6.60059 44.3232 6.65674C44.5665 6.68481 44.788 6.89693 45.0157 7.02482C45.0126 7.20263 45.0126 7.37731 45.0126 7.55512Z" fill="#3F3D56"/>
<path d="M31.6523 45.0001C31.5213 44.8192 31.2842 44.6352 31.2811 44.4543C31.2811 44.2203 31.4121 43.9115 31.5931 43.768C31.8301 43.5746 32.2045 43.6152 32.3542 43.9053C32.4696 44.1267 32.4322 44.4418 32.4135 44.71C32.4072 44.813 32.2606 44.9034 32.1795 45.0001C32.0048 45.0001 31.8301 45.0001 31.6523 45.0001Z" fill="#3F3D56"/>
<path d="M37.6477 3.65275C39.6472 3.60284 41.3005 5.19996 41.366 7.24314C41.4284 9.21458 39.7689 10.9302 37.7693 10.9677C35.7792 11.0051 34.0885 9.37055 34.0448 7.3648C33.998 5.37464 35.6201 3.70266 37.6477 3.65275ZM37.7007 4.99096C36.4093 4.99408 35.3955 6.00787 35.3955 7.29929C35.3955 8.58447 36.4093 9.61074 37.6976 9.62322C38.9952 9.6357 40.0278 8.59695 40.0215 7.28369C40.0122 5.9954 38.9952 4.99096 37.7007 4.99096Z" fill="#3F3D56"/>
<path d="M34.99 32.5848C33.2182 32.5848 31.4464 32.5848 29.6777 32.5817C29.5186 32.5817 29.3533 32.5755 29.2004 32.5381C28.8729 32.4601 28.6982 32.2199 28.7013 31.8986C28.7045 31.5804 28.8791 31.3402 29.2098 31.2685C29.3658 31.2342 29.528 31.2279 29.6871 31.2279C33.2431 31.2248 36.8023 31.2248 40.3584 31.2279C40.4894 31.2279 40.6236 31.2248 40.7515 31.2466C41.1164 31.3028 41.3317 31.518 41.3535 31.8923C41.3753 32.2386 41.1195 32.5162 40.739 32.5724C40.6111 32.5911 40.4769 32.5848 40.3459 32.5848C38.5617 32.5848 36.7774 32.5848 34.99 32.5848Z" fill="#3F3D56"/>
<path d="M28.0744 35.2582C27.3008 35.2582 26.5241 35.2614 25.7505 35.2582C25.2139 35.2551 24.8957 34.9962 24.9051 34.5845C24.9176 34.1883 25.2326 33.9325 25.7349 33.9325C27.3289 33.9294 28.9229 33.9294 30.5169 33.9325C31.0222 33.9325 31.3092 34.1914 31.2998 34.6125C31.2936 35.0212 31.0284 35.252 30.5293 35.2551C29.7121 35.2645 28.8948 35.2582 28.0744 35.2582Z" fill="#3F3D56"/>
<path d="M37.0332 1.39744C37.0332 1.14789 37.0145 0.898342 37.0363 0.651912C37.0707 0.243275 37.3514 -0.0187519 37.7226 -3.5724e-05C38.125 0.0186805 38.3465 0.261991 38.3652 0.642554C38.3933 1.16661 38.3901 1.6969 38.3652 2.22095C38.3465 2.62647 38.0439 2.89474 37.6883 2.88226C37.3296 2.86978 37.0707 2.59528 37.0332 2.18664C37.0301 2.15857 37.0301 2.12737 37.0301 2.0993C37.0301 1.86535 37.0301 1.63139 37.0301 1.39744C37.0332 1.39744 37.0332 1.39744 37.0332 1.39744Z" fill="#3F3D56"/>
<path d="M38.3651 13.1731C38.3651 13.4507 38.3869 13.7314 38.3589 14.0059C38.3214 14.374 38.1031 14.5861 37.7225 14.6017C37.3638 14.6142 37.0674 14.3802 37.0456 13.9966C37.0144 13.4444 37.0144 12.8861 37.0456 12.3308C37.0674 11.9627 37.3981 11.6945 37.7319 11.7288C38.0968 11.7631 38.3277 11.9721 38.3589 12.3433C38.3869 12.6178 38.3682 12.8954 38.3651 13.1731Z" fill="#3F3D56"/>
<path d="M41.2537 10.1536C41.4876 10.2877 41.6842 10.3594 41.8277 10.4905C42.1739 10.8055 42.4983 11.1424 42.8227 11.4793C43.1378 11.8099 43.1534 12.1687 42.8851 12.4525C42.6137 12.7426 42.2145 12.7333 41.8776 12.4151C41.5188 12.072 41.1414 11.7382 40.8388 11.3483C40.7047 11.1767 40.6579 10.8492 40.7234 10.6402C40.7889 10.4468 41.0572 10.3251 41.2537 10.1536Z" fill="#3F3D56"/>
<path d="M32.9655 1.84985C33.1932 1.98087 33.3773 2.04637 33.5083 2.16803C33.8639 2.49556 34.2039 2.83869 34.5346 3.18806C34.8434 3.51248 34.8559 3.8868 34.5876 4.16442C34.31 4.45141 33.945 4.45453 33.6144 4.14259C33.2432 3.7901 32.8564 3.44385 32.5475 3.04145C32.4134 2.86989 32.3697 2.53611 32.4384 2.32712C32.4976 2.13995 32.769 2.0183 32.9655 1.84985Z" fill="#3F3D56"/>
<path d="M31.8956 6.64745C32.1452 6.64745 32.3947 6.63185 32.6411 6.65057C33.0248 6.68176 33.2993 6.95003 33.29 7.29004C33.2806 7.65813 33.0716 7.92951 32.716 7.95447C32.1358 7.99502 31.5462 7.99814 30.966 7.95135C30.6135 7.92327 30.3983 7.66124 30.417 7.27756C30.4357 6.897 30.651 6.68488 31.0222 6.65369C31.3123 6.63185 31.6055 6.65057 31.8987 6.65057C31.8956 6.64745 31.8956 6.64745 31.8956 6.64745Z" fill="#3F3D56"/>
<path d="M43.1596 2.5485C43.0286 2.77933 42.963 2.96337 42.8414 3.09439C42.5045 3.45935 42.1489 3.81184 41.787 4.15185C41.472 4.44819 41.1226 4.44819 40.845 4.18617C40.5549 3.91166 40.5518 3.54046 40.8606 3.21292C41.2131 2.84172 41.5562 2.4518 41.9586 2.13986C42.1302 2.00573 42.4577 1.96206 42.6667 2.02756C42.8601 2.08995 42.988 2.3551 43.1596 2.5485Z" fill="#3F3D56"/>
<path d="M34.781 10.7713C34.7748 11.3078 33.4241 12.6897 33.0217 12.6398C32.8096 12.6117 32.5288 12.4589 32.4415 12.2842C32.3542 12.1064 32.3822 11.7601 32.507 11.6073C32.8657 11.1675 33.2713 10.7588 33.7111 10.4001C33.8639 10.2753 34.2008 10.2472 34.3911 10.3252C34.5814 10.4032 34.6968 10.6684 34.781 10.7713Z" fill="#3F3D56"/>
<path d="M39.6941 40.0028C40.0466 39.9966 40.3273 40.2711 40.346 40.636C40.3647 41.0322 40.1027 41.3192 39.7159 41.3223C39.3541 41.3285 39.0764 41.0665 39.0577 40.7015C39.039 40.3303 39.3322 40.009 39.6941 40.0028Z" fill="#3F3D56"/>
<path d="M3.68087 38.0533C3.6871 38.4245 3.38141 38.7427 3.02268 38.7364C2.67019 38.7302 2.3988 38.4494 2.39257 38.0814C2.38321 37.6883 2.65771 37.4013 3.04139 37.4076C3.397 37.4107 3.67463 37.6914 3.68087 38.0533Z" fill="#3F3D56"/>
<path d="M15.0542 36.7649C15.051 37.1392 14.7953 37.4168 14.4428 37.4293C14.0716 37.4418 13.7939 37.1517 13.7939 36.7586C13.7939 36.3531 14.0529 36.0973 14.4521 36.1098C14.8265 36.1192 15.0573 36.3718 15.0542 36.7649Z" fill="#3F3D56"/>
<path d="M12.1344 42.411C11.7757 42.411 11.5074 42.1396 11.4981 41.7684C11.4856 41.3785 11.7632 41.0759 12.1313 41.0759C12.5025 41.0759 12.7708 41.3692 12.7614 41.7653C12.7521 42.1459 12.4963 42.411 12.1344 42.411Z" fill="#3F3D56"/>
</g>
<defs>
<clipPath id="clip0_90_424">
<rect width="45.0125" height="45" fill="white"/>
</clipPath>
</defs>
</svg>
