<svg width="25" height="24" viewBox="0 0 25 24" fill="none" xmlns="http://www.w3.org/2000/svg">
<path d="M24.9776 21.4217C24.8743 21.5995 24.729 21.7241 24.5173 21.6458C24.1636 21.5156 24.3113 21.1869 24.2619 20.9164C17.7798 20.9164 11.2952 20.9164 4.78302 20.9164C4.78302 21.0547 4.78866 21.1856 4.78177 21.3158C4.7705 21.5281 4.64088 21.6577 4.44677 21.6621C4.25391 21.6665 4.10864 21.5425 4.0886 21.3359C4.07483 21.1988 4.0861 21.0597 4.0861 20.9207C3.78679 20.8462 3.33971 21.0316 3.32969 20.5538C3.31842 20.0447 3.78554 20.2507 4.06919 20.1743C4.06919 13.6879 4.06919 7.20902 4.06919 0.703807C3.96963 0.703807 3.87821 0.699424 3.78742 0.704434C3.58516 0.715704 3.40295 0.676256 3.33282 0.46023C3.26331 0.245456 3.38041 0.103317 3.55824 0C9.08918 0 14.6195 0 20.1505 0C20.3208 0.108952 20.4447 0.247961 20.3696 0.463361C20.2957 0.676256 20.1141 0.70506 19.9119 0.70506C14.9827 0.702555 10.0541 0.703181 5.12491 0.703181C5.0241 0.703181 4.92329 0.703181 4.79805 0.703181C4.79367 0.801489 4.78615 0.884142 4.78615 0.967422C4.78553 7.28666 4.78678 13.6059 4.78115 19.9258C4.78115 20.1437 4.84188 20.1981 5.05541 20.1975C11.3747 20.1919 17.694 20.1931 24.0139 20.1931C24.0903 20.1931 24.1673 20.1931 24.2594 20.1931C24.2594 16.5351 24.2594 12.9008 24.2594 9.25469C23.9876 9.25469 23.7259 9.25469 23.4284 9.25469C23.4284 9.49889 23.4297 9.73746 23.4278 9.97603C23.4241 10.4914 23.1323 10.7907 22.6144 10.7951C21.9425 10.8007 21.2707 10.7969 20.5988 10.7969C20.5149 10.7969 20.4316 10.7969 20.3352 10.7969C20.3352 11.0893 20.3352 11.3517 20.3352 11.6391C20.4247 11.6435 20.5074 11.6504 20.59 11.6504C21.2619 11.6516 21.9338 11.6485 22.6057 11.6516C23.1348 11.6541 23.4272 11.9503 23.4278 12.4838C23.4291 14.4913 23.4291 16.4988 23.4278 18.5063C23.4272 19.0347 23.1298 19.3403 22.6025 19.3409C20.3295 19.3441 18.0565 19.3441 15.7829 19.3409C15.2551 19.3403 14.957 19.0347 14.9545 18.5088C14.952 18.0185 14.9539 17.5282 14.9539 17.0241C14.6646 17.0241 14.3966 17.0241 14.106 17.0241C14.106 17.5182 14.1067 18.0003 14.106 18.4825C14.1048 19.0479 13.8211 19.3403 13.2607 19.3409C11.0034 19.3428 8.74542 19.3428 6.48808 19.3409C5.92954 19.3403 5.63712 19.0454 5.63712 18.4843C5.63524 16.4925 5.63524 14.5007 5.63712 12.5089C5.63774 11.9328 5.9239 11.651 6.50499 11.651C8.74667 11.6504 10.989 11.6504 13.2307 11.651C13.8299 11.651 14.1054 11.9253 14.106 12.5208C14.1067 12.738 14.106 12.9553 14.106 13.1876C14.3947 13.1876 14.6633 13.1876 14.9539 13.1876C14.9539 12.9566 14.9533 12.7393 14.9539 12.522C14.9551 11.9328 15.2382 11.6529 15.8336 11.6516C16.0503 11.651 16.2676 11.6516 16.4949 11.6516C16.4949 11.3592 16.4949 11.0962 16.4949 10.7969C16.2569 10.7969 16.0253 10.7994 15.7942 10.7963C15.2438 10.7894 14.957 10.502 14.9539 9.95599C14.9526 9.72995 14.9539 9.5039 14.9539 9.26095C14.6708 9.26095 14.4029 9.26095 14.106 9.26095C14.106 9.51392 14.1079 9.76126 14.1054 10.0086C14.1004 10.4838 13.8105 10.7907 13.3346 10.7938C12.21 10.8013 11.0848 10.7988 9.96018 10.7951C9.69532 10.7944 9.55318 10.6623 9.55443 10.445C9.55568 10.2284 9.70033 10.0969 9.96394 10.0963C11.0109 10.0925 12.0572 10.0944 13.1042 10.0944C13.1956 10.0944 13.287 10.0944 13.4029 10.0944C13.4029 9.72431 13.4022 9.38305 13.4029 9.04179C13.4035 8.64919 13.5099 8.54274 13.9032 8.54086C13.9871 8.54024 14.0716 8.54086 14.1568 8.54086C14.2451 8.2497 14.0309 7.77882 14.54 7.78696C15.0215 7.79448 14.8343 8.24156 14.91 8.54086C15.0221 8.54086 15.1367 8.53773 15.2513 8.54149C15.5274 8.55088 15.6514 8.67236 15.6546 8.94662C15.6589 9.31919 15.6558 9.69175 15.6558 10.095C16.009 10.095 16.3352 10.095 16.6608 10.095C17.1261 10.0956 17.2043 10.1733 17.2093 10.6385C17.21 10.7074 17.2156 10.7763 17.22 10.8752C17.3596 10.8752 17.4899 10.8708 17.6195 10.8765C17.8374 10.8858 17.9864 11.0286 17.9889 11.2208C17.9914 11.4131 17.8436 11.5602 17.6282 11.5765C17.5581 11.5815 17.4874 11.5765 17.4172 11.5784C17.3565 11.5803 17.2957 11.5859 17.2087 11.5915C17.2087 11.7155 17.2112 11.8307 17.2081 11.9459C17.1999 12.224 17.0879 12.3454 16.8073 12.3529C16.4792 12.3617 16.1511 12.3555 15.823 12.3573C15.7773 12.3573 15.7322 12.3686 15.6564 12.3792C15.6564 12.708 15.6564 13.0336 15.6564 13.3586C15.6564 13.8232 15.5769 13.9033 15.1142 13.9077C15.0522 13.9083 14.9902 13.9077 14.8856 13.9077C14.8856 14.0473 14.8925 14.177 14.8844 14.3053C14.8687 14.5464 14.7297 14.6835 14.5193 14.6766C14.3183 14.6697 14.1956 14.5351 14.1856 14.3028C14.1806 14.1801 14.1849 14.0567 14.1849 13.9077C14.0484 13.9077 13.9407 13.9102 13.8337 13.9071C13.5312 13.8989 13.4066 13.7768 13.4035 13.4769C13.4004 13.1119 13.4029 12.7474 13.4029 12.368C13.3002 12.363 13.2244 12.3561 13.148 12.3561C10.9683 12.3555 8.78925 12.3586 6.60956 12.3511C6.39666 12.3504 6.33342 12.4049 6.33404 12.6234C6.34281 14.5451 6.34093 16.4668 6.3353 18.3879C6.33467 18.5732 6.37349 18.6459 6.57825 18.6453C8.77297 18.6384 10.9683 18.6409 13.163 18.6402C13.2319 18.6402 13.3008 18.6327 13.4022 18.6265C13.4022 18.3466 13.4022 18.0767 13.4022 17.8068C13.4022 17.4712 13.4016 17.135 13.4022 16.7993C13.4029 16.4193 13.5099 16.3115 13.8869 16.3097C13.972 16.309 14.0578 16.3097 14.1849 16.3097C14.1849 16.1688 14.1806 16.0398 14.1862 15.9114C14.1956 15.6854 14.3265 15.5414 14.5199 15.5339C14.7184 15.5263 14.87 15.6779 14.8844 15.9102C14.8919 16.0335 14.8856 16.1575 14.8856 16.3103C15.014 16.3103 15.1211 16.309 15.2281 16.3103C15.5337 16.3153 15.6539 16.4318 15.6558 16.7355C15.6583 17.3059 15.6564 17.8757 15.6571 18.4461C15.6571 18.4994 15.6652 18.5526 15.6708 18.6233C18.0171 18.6233 20.3558 18.6233 22.709 18.6233C22.709 16.5395 22.709 14.4662 22.709 12.3705C22.6207 12.3655 22.538 12.3567 22.4548 12.3567C21.6971 12.3555 20.9394 12.3567 20.1818 12.3561C19.6984 12.3555 19.6245 12.2822 19.6182 11.8025C19.6176 11.7343 19.6101 11.666 19.6057 11.5965C19.3101 11.5308 18.8493 11.7143 18.8555 11.2177C18.8612 10.7381 19.3095 10.9222 19.6088 10.8577C19.6119 10.7857 19.6176 10.7105 19.6182 10.6348C19.6232 10.1745 19.7027 10.0963 20.1717 10.0963C20.9294 10.0963 21.6871 10.0963 22.4447 10.0963C22.5286 10.0963 22.6125 10.0963 22.724 10.0963C22.724 9.72682 22.7234 9.38556 22.724 9.0443C22.7246 8.64731 22.8261 8.54525 23.2206 8.54274C23.3045 8.54212 23.3884 8.54274 23.4698 8.54274C23.5512 8.24782 23.3564 7.79761 23.838 7.78884C24.3477 7.77945 24.1373 8.24907 24.2237 8.5346C24.4885 8.56215 24.7979 8.47011 24.977 8.76816C24.9776 12.9854 24.9776 17.2032 24.9776 21.4217Z" fill="#3F3D56"/>
<path d="M24.9795 5.90792C24.8073 6.22226 24.4961 6.1227 24.2 6.15025C24.2 6.28112 24.2043 6.40447 24.1993 6.52657C24.1887 6.77078 24.0578 6.91229 23.8499 6.91104C23.6439 6.90978 23.5124 6.76765 23.4999 6.52407C23.4936 6.4076 23.4986 6.29051 23.4986 6.14211C23.3778 6.14211 23.2713 6.14336 23.1649 6.14211C22.8474 6.13773 22.7272 6.01938 22.7266 5.70192C22.7253 4.64746 22.726 3.593 22.726 2.53854C22.726 2.45463 22.726 2.37073 22.726 2.27117C20.3628 2.27117 18.0253 2.27117 15.6578 2.27117C15.6578 2.36635 15.6578 2.44962 15.6578 2.5329C15.6578 3.55605 15.6578 4.57921 15.6578 5.60236C15.6578 6.05069 15.5714 6.13835 15.1299 6.14023C15.061 6.14086 14.9915 6.14023 14.8869 6.14023C14.8869 6.28425 14.8938 6.41386 14.8857 6.54285C14.87 6.77892 14.7229 6.92043 14.5169 6.91041C14.319 6.90102 14.1969 6.76326 14.1875 6.53158C14.1825 6.40885 14.1869 6.28613 14.1869 6.14023C14.0679 6.14023 13.9759 6.14086 13.8845 6.14023C13.5206 6.13835 13.4054 6.02627 13.4054 5.66748C13.4042 4.62867 13.4048 3.58987 13.4048 2.55106C13.4048 2.4659 13.4048 2.38012 13.4048 2.27493C11.0542 2.27493 8.71668 2.27493 6.35979 2.27493C6.35979 4.86974 6.35979 7.46582 6.35979 10.0944C6.45121 10.0944 6.53449 10.0944 6.61777 10.0944C7.21138 10.0944 7.80498 10.0926 8.39859 10.0951C8.68412 10.0963 8.85507 10.2391 8.84693 10.4589C8.83941 10.6699 8.67849 10.7958 8.39859 10.7964C7.74237 10.7989 7.08614 10.802 6.43054 10.7951C5.939 10.7895 5.64095 10.4952 5.63969 10.003C5.63594 7.44891 5.63531 4.89542 5.64032 2.3413C5.64095 1.85602 5.95528 1.55359 6.43931 1.55296C8.72796 1.55045 11.016 1.55045 13.3046 1.55296C13.8024 1.55359 14.1061 1.86041 14.1074 2.35821C14.1092 3.37259 14.108 4.38697 14.108 5.41952C14.3885 5.41952 14.6565 5.41952 14.9558 5.41952C14.9558 5.33624 14.9558 5.25358 14.9558 5.17093C14.9558 4.24922 14.9546 3.32751 14.9565 2.40642C14.9571 1.84913 15.2526 1.55296 15.8099 1.55296C18.0673 1.55233 20.324 1.55233 22.5813 1.55296C23.1355 1.55296 23.4298 1.85101 23.4304 2.41018C23.4316 3.40891 23.431 4.40764 23.431 5.42265C23.7128 5.42265 23.9808 5.42265 24.2638 5.42265C24.2638 3.8635 24.2638 2.30498 24.2638 0.715779C24.1874 0.712648 24.1054 0.70576 24.0234 0.70576C23.2112 0.705134 22.3991 0.703256 21.5863 0.706387C21.3885 0.707013 21.2081 0.68948 21.1242 0.472828C21.0391 0.251792 21.1749 0.124055 21.3246 0.00195312C22.3559 0.00195312 23.3872 0.00195312 24.4179 0.00195312C24.684 0.110906 24.8743 0.295624 24.9802 0.564248C24.9795 2.34568 24.9795 4.12649 24.9795 5.90792Z" fill="#3F3D56"/>
<path d="M2.24675 0.00195312C2.40642 0.141588 2.54168 0.307521 2.40642 0.516659C2.34631 0.609331 2.20042 0.680088 2.08457 0.696368C1.87919 0.725172 1.66629 0.699499 1.45715 0.706387C1.25615 0.712648 1.07895 0.677583 1.00318 0.465314C0.926162 0.248035 1.05703 0.116541 1.21545 0.00195312C1.55922 0.00195312 1.90299 0.00195312 2.24675 0.00195312Z" fill="#3F3D56"/>
<path d="M24.9788 23.7653C24.8636 23.9231 24.7321 24.0546 24.5154 23.977C24.3025 23.9012 24.2669 23.724 24.2744 23.523C24.2806 23.3527 24.28 23.1818 24.2744 23.0108C24.2681 22.8142 24.2881 22.6307 24.501 22.5481C24.7114 22.4667 24.8511 22.5888 24.9782 22.7334C24.9788 23.0778 24.9788 23.4216 24.9788 23.7653Z" fill="#3F3D56"/>
<path d="M22.7277 22.5001C22.7277 22.3467 22.7208 22.2145 22.7296 22.0837C22.7427 21.8846 22.8554 21.7681 23.0545 21.7499C23.2443 21.733 23.4158 21.8645 23.4208 22.0649C23.4334 22.6034 23.4334 23.1425 23.4202 23.6804C23.4152 23.8783 23.2355 24.016 23.052 23.9953C22.8567 23.9728 22.7402 23.8582 22.7289 23.6578C22.7214 23.5264 22.7277 23.3936 22.7277 23.2427C17.2675 23.2427 11.8223 23.2427 6.33959 23.2427C6.33959 23.3754 6.34523 23.5051 6.33834 23.6341C6.32644 23.8563 6.18681 23.9985 5.99144 23.9979C5.8061 23.9972 5.64956 23.8639 5.64517 23.656C5.6339 23.1331 5.6339 22.6096 5.64517 22.0868C5.64956 21.8758 5.80046 21.7487 5.99144 21.748C6.19244 21.7474 6.32582 21.8827 6.33834 22.1093C6.34523 22.2327 6.33959 22.3567 6.33959 22.5001C11.8067 22.5001 17.2512 22.5001 22.7277 22.5001Z" fill="#3F3D56"/>
<path d="M2.48078 18.6427C2.61854 18.6427 2.74941 18.6365 2.87965 18.644C3.09318 18.6565 3.2253 18.7855 3.23219 18.9752C3.23907 19.1675 3.11634 19.3278 2.9072 19.3328C2.37684 19.3465 1.84522 19.3465 1.31486 19.334C1.10885 19.329 0.977979 19.1662 0.982988 18.9802C0.987372 18.7936 1.1245 18.6571 1.33239 18.644C1.46263 18.6358 1.59413 18.6427 1.74253 18.6427C1.74253 13.1707 1.74253 7.72558 1.74253 2.25416C1.60227 2.25416 1.4714 2.25917 1.34116 2.25291C1.13515 2.24289 0.993007 2.10889 0.982988 1.92417C0.972344 1.72881 1.11261 1.561 1.32738 1.55724C1.85023 1.54722 2.37371 1.54722 2.89656 1.55787C3.10069 1.56163 3.23344 1.72004 3.23219 1.90852C3.23093 2.10576 3.08817 2.24414 2.86838 2.25416C2.74503 2.2598 2.62167 2.25541 2.48078 2.25541C2.48078 7.71994 2.48078 13.1651 2.48078 18.6427Z" fill="#3F3D56"/>
<path d="M2.5786 22.8794C2.76958 23.0579 2.93364 23.2013 3.08705 23.3559C3.26864 23.5394 3.28054 23.7404 3.13276 23.8907C2.98123 24.0447 2.78273 24.036 2.59801 23.8556C2.4421 23.7035 2.29495 23.5413 2.11962 23.3578C1.94742 23.53 1.79151 23.6884 1.63246 23.8431C1.43647 24.0341 1.23422 24.0485 1.08018 23.8882C0.93303 23.7341 0.947432 23.5382 1.13215 23.3534C1.28619 23.2 1.44962 23.056 1.6431 22.8769C1.45275 22.696 1.28681 22.5457 1.12965 22.3873C0.946805 22.2026 0.934282 22.0059 1.08331 21.8525C1.23234 21.6997 1.43396 21.711 1.61868 21.8863C1.77648 22.0366 1.93114 22.1907 2.08768 22.3428C2.09207 22.3472 2.10271 22.3453 2.1647 22.3541C2.29432 22.2138 2.4421 22.0441 2.60114 21.8857C2.78023 21.7073 2.98749 21.7004 3.13526 21.8538C3.27678 22.0003 3.26801 22.1994 3.10145 22.3722C2.94428 22.535 2.77772 22.6872 2.5786 22.8794Z" fill="#3F3D56"/>
<path d="M4.78507 23.2559C4.78507 23.3886 4.79007 23.5214 4.78444 23.6535C4.7763 23.8551 4.66171 23.9703 4.46697 23.9954C4.28413 24.0192 4.10755 23.8852 4.09565 23.6854C4.07812 23.398 4.07562 23.1081 4.09941 22.8213C4.11507 22.6272 4.25908 22.5164 4.45821 22.5276C4.65545 22.5389 4.77254 22.6554 4.78381 22.8576C4.7907 22.9904 4.78507 23.1231 4.78507 23.2559Z" fill="#3F3D56"/>
<path d="M1.7244 20.197C1.85715 20.197 1.9899 20.1914 2.12202 20.1982C2.32427 20.2089 2.44011 20.3266 2.45264 20.5239C2.46453 20.7111 2.36372 20.862 2.1815 20.8764C1.8728 20.9008 1.55847 20.8996 1.24977 20.8726C1.0663 20.8563 0.969868 20.7011 0.986149 20.5151C1.00243 20.3316 1.11326 20.2139 1.30362 20.2001C1.44325 20.1901 1.58414 20.1982 1.7244 20.1982C1.7244 20.1976 1.7244 20.1976 1.7244 20.197Z" fill="#3F3D56"/>
</svg>
