<svg width="46" height="45" viewBox="0 0 46 45" fill="none" xmlns="http://www.w3.org/2000/svg">
<g clip-path="url(#clip0_118_1465)">
<path d="M45.0122 29.0008C44.7658 29.3408 44.4258 29.4188 44.0202 29.4157C35.495 29.4094 26.9698 29.4094 18.4477 29.4094C18.2605 29.4094 18.0733 29.4094 17.8394 29.4094C17.9766 30.2704 18.1045 31.072 18.2356 31.8768C18.3697 32.7004 18.5038 33.5207 18.6473 34.3411C18.6723 34.4722 18.7253 34.6437 18.822 34.7092C20.3318 35.7105 21.7979 36.793 23.3794 37.6633C25.722 38.9547 28.1926 38.7769 30.6506 37.9315C30.9407 37.8317 31.2277 37.7257 31.5209 37.6321C31.9733 37.4886 32.3164 37.629 32.463 38.0126C32.6034 38.3838 32.4193 38.7145 31.9701 38.8954C28.1021 40.4582 24.3994 40.2555 20.9213 37.8286C19.4084 36.7742 17.9205 35.6825 16.4076 34.6312C14.9602 33.6268 13.4723 32.6754 11.7161 32.3229C7.56732 31.49 4.09546 32.6879 1.34418 35.9164C1.29739 35.9726 1.25996 36.035 1.21005 36.0911C0.926183 36.4062 0.576814 36.4529 0.274236 36.2252C-0.018985 36.0038 -0.106327 35.5982 0.161938 35.2925C0.739021 34.6344 1.30363 33.945 1.97741 33.3929C5.63019 30.3983 10.9581 29.6184 15.6465 32.5506C16.13 32.8532 16.6104 33.1558 17.1531 33.4989C16.9597 32.3135 16.7819 31.1843 16.5885 30.0582C16.4762 29.4094 16.4669 29.4125 15.8087 29.4125C10.9019 29.4125 5.99516 29.4125 1.08839 29.4125C0.913706 29.4125 0.732783 29.4157 0.564337 29.3813C0.221206 29.3096 0.0246862 29.085 0.0309249 28.7294C0.0340443 28.3738 0.243042 28.1586 0.583053 28.0899C0.739021 28.0587 0.904348 28.065 1.06344 28.065C5.94213 28.065 10.8177 28.065 15.6964 28.065C15.868 28.065 16.0395 28.065 16.2641 28.065C15.8118 25.3605 15.3782 22.709 14.9415 20.0607C14.2708 20.2728 13.6594 21.218 13.6345 22.0727C13.6282 22.2473 13.675 22.4345 13.6282 22.5967C13.5721 22.7932 13.4816 23.0615 13.3319 23.1239C13.1572 23.1988 12.8328 23.1582 12.6987 23.0334C12.4866 22.8369 12.3431 22.5437 12.237 22.2661C11.872 21.3178 11.0454 20.7313 10.041 20.7501C8.93984 20.7719 7.97595 21.4457 7.72017 22.4283C7.63282 22.7589 7.65778 23.1239 7.65778 23.4701C7.65778 23.9193 7.48309 24.1814 7.11501 24.2437C6.74068 24.3061 6.45682 24.0909 6.33517 23.6511C6.02011 22.5031 5.10614 21.7358 4.0206 21.7077C3.0068 21.6796 2.04604 22.3628 1.74658 23.3766C1.64988 23.7041 1.64364 24.0659 1.65612 24.4122C1.67171 24.8707 1.47831 25.1702 1.0572 25.2295C0.589292 25.295 0.277355 25.0829 0.214968 24.6118C-0.539919 19.0188 1.11023 14.2555 5.1966 10.3782C7.52988 8.16028 10.3498 6.85639 13.5253 6.36041C21.6294 5.09394 29.3561 10.2347 31.3775 18.1048C31.4897 18.5415 31.5927 18.9876 31.6457 19.4337C31.7019 19.9078 31.4086 20.2354 30.9875 20.2322C30.5758 20.2291 30.4136 19.9733 30.3356 19.599C30.1079 18.5384 29.2812 17.8522 28.2269 17.8241C26.9979 17.7929 26.009 18.4324 25.7376 19.4867C25.6565 19.8049 25.6784 20.1511 25.6784 20.488C25.6784 20.9622 25.5193 21.2024 25.1418 21.2554C24.7488 21.3115 24.4525 21.1088 24.362 20.6689C24.0033 18.9533 22.3594 18.4916 21.1054 18.9377C20.0635 19.3089 19.5145 20.2385 19.6611 21.3614C19.7297 21.898 19.4521 22.2536 18.9655 22.2505C18.5631 22.2473 18.4165 21.9853 18.3385 21.6422C18.1139 20.6471 17.4869 20.0388 16.5105 19.7799C16.4544 19.7643 16.3951 19.7737 16.2516 19.7643C16.7039 22.5281 17.1531 25.27 17.6117 28.0618C17.8113 28.0618 17.9985 28.0618 18.1825 28.0618C26.7951 28.0618 35.4077 28.065 44.0202 28.0556C44.4258 28.0556 44.7689 28.1211 45.0122 28.4705C45.0122 28.6514 45.0122 28.8261 45.0122 29.0008ZM11.9407 19.8985C11.5414 16.0336 11.1296 12.2155 11.8034 8.34432C11.2451 8.78104 10.696 9.22087 10.2281 9.73556C9.34224 10.715 8.76515 11.8817 8.31285 13.1107C8.13504 13.5911 7.80439 13.7595 7.40199 13.6067C7.02143 13.4601 6.8717 13.1107 7.06198 12.6678C7.38327 11.916 7.73264 11.1767 8.09449 10.4437C8.25046 10.1286 8.46258 9.8385 8.64974 9.53904C6.47554 10.7462 4.78796 12.4307 3.48095 14.5176C1.98989 16.8976 1.24436 20.2821 1.4596 21.3396C2.86331 20.2385 4.36061 20.0513 5.86102 20.8592C5.96396 19.3339 6.05754 17.8022 6.17296 16.2738C6.21351 15.7497 6.48178 15.5126 6.92161 15.5563C7.3552 15.5969 7.52677 15.8776 7.49245 16.4141C7.41759 17.6556 7.35832 18.8971 7.29593 20.1387C7.28969 20.2416 7.32089 20.3445 7.33648 20.4787C8.76204 19.2403 10.2718 19.0812 11.9407 19.8985ZM17.8176 18.8379C17.7926 18.6632 17.7895 18.5322 17.7583 18.4105C17.3216 16.698 16.9223 14.9761 16.4294 13.2823C15.9584 11.654 15.3813 10.0537 14.483 8.60011C14.274 8.26322 13.9901 7.97312 13.6657 7.5676C13.5004 7.91385 13.3413 8.12285 13.3007 8.35056C13.1291 9.32693 12.8765 10.3095 12.8671 11.289C12.8484 13.3509 12.9482 15.4128 13.0324 17.4747C13.0605 18.1516 13.1791 18.8223 13.2664 19.5647C14.6639 18.3076 16.1549 18.083 17.8176 18.8379ZM15.5685 7.73917C17.4963 11.2266 18.3416 14.9387 19.1901 18.6944C20.4628 17.4061 21.9195 17.091 23.6258 17.743C22.9021 15.3598 21.9226 13.2043 20.4409 11.3015C19.4521 10.0288 18.3104 8.93076 16.835 8.22891C16.4575 8.0511 16.0582 7.92633 15.5685 7.73917ZM29.4871 16.6949C28.9319 14.87 27.1819 12.4619 25.2916 10.8835C23.4605 9.35812 20.1134 7.78596 18.8563 7.86706C22.1597 10.4218 23.8972 13.9467 25.0639 17.8615C26.3116 16.4952 27.7559 16.1209 29.4871 16.6949Z" fill="white"/>
<path d="M45.0124 38.8486C44.5445 39.3509 44.2856 39.4039 43.8301 39.0358C41.5873 37.2141 39.0513 36.8554 36.3062 37.4824C35.7323 37.6134 35.3642 37.4637 35.2675 37.0581C35.1801 36.69 35.3642 36.3376 35.751 36.244C38.9826 35.4517 41.9897 35.8135 44.6381 37.9877C44.7815 38.1062 44.8907 38.2684 45.0155 38.4088C45.0124 38.5554 45.0124 38.702 45.0124 38.8486Z" fill="white"/>
<path d="M45.0126 7.55512C44.7849 7.88265 44.4761 8.01054 44.0799 7.98559C43.6744 7.96375 43.2626 7.99183 42.8571 7.97623C42.4235 7.96063 42.1334 7.68613 42.1272 7.31493C42.1178 6.94684 42.4048 6.65986 42.8384 6.64426C43.3344 6.62866 43.8335 6.60059 44.3232 6.65674C44.5665 6.68481 44.788 6.89693 45.0157 7.02482C45.0126 7.20263 45.0126 7.37731 45.0126 7.55512Z" fill="white"/>
<path d="M31.6525 45.0001C31.5214 44.8192 31.2844 44.6352 31.2812 44.4543C31.2812 44.2203 31.4123 43.9115 31.5932 43.768C31.8303 43.5746 32.2046 43.6152 32.3543 43.9053C32.4697 44.1267 32.4323 44.4418 32.4136 44.71C32.4073 44.813 32.2607 44.9034 32.1796 45.0001C32.0049 45.0001 31.8303 45.0001 31.6525 45.0001Z" fill="white"/>
<path d="M37.6478 3.65275C39.6473 3.60284 41.3006 5.19996 41.3661 7.24314C41.4285 9.21458 39.769 10.9302 37.7695 10.9677C35.7793 11.0051 34.0886 9.37055 34.0449 7.3648C33.9981 5.37464 35.6202 3.70266 37.6478 3.65275ZM37.7008 4.99096C36.4094 4.99408 35.3956 6.00787 35.3956 7.29929C35.3956 8.58447 36.4094 9.61074 37.6977 9.62322C38.9954 9.6357 40.0279 8.59695 40.0216 7.28369C40.0123 5.9954 38.9954 4.99096 37.7008 4.99096Z" fill="white"/>
<path d="M34.9899 32.5848C33.2181 32.5848 31.4463 32.5848 29.6776 32.5817C29.5185 32.5817 29.3532 32.5755 29.2003 32.5381C28.8728 32.4601 28.6981 32.2199 28.7012 31.8986C28.7043 31.5804 28.879 31.3402 29.2097 31.2685C29.3656 31.2342 29.5278 31.2279 29.6869 31.2279C33.243 31.2248 36.8022 31.2248 40.3583 31.2279C40.4893 31.2279 40.6234 31.2248 40.7513 31.2466C41.1163 31.3028 41.3315 31.518 41.3534 31.8923C41.3752 32.2386 41.1194 32.5162 40.7389 32.5724C40.611 32.5911 40.4768 32.5848 40.3458 32.5848C38.5615 32.5848 36.7773 32.5848 34.9899 32.5848Z" fill="white"/>
<path d="M28.0748 35.2582C27.3012 35.2582 26.5244 35.2614 25.7508 35.2582C25.2143 35.2551 24.8961 34.9962 24.9055 34.5845C24.918 34.1883 25.233 33.9325 25.7352 33.9325C27.3292 33.9294 28.9232 33.9294 30.5172 33.9325C31.0226 33.9325 31.3095 34.1914 31.3002 34.6125C31.2939 35.0212 31.0288 35.252 30.5297 35.2551C29.7124 35.2645 28.8951 35.2582 28.0748 35.2582Z" fill="white"/>
<path d="M37.0329 1.39744C37.0329 1.14789 37.0141 0.898342 37.036 0.651912C37.0703 0.243275 37.351 -0.0187519 37.7222 -3.5724e-05C38.1246 0.0186805 38.3461 0.261991 38.3648 0.642554C38.3929 1.16661 38.3898 1.6969 38.3648 2.22095C38.3461 2.62647 38.0435 2.89474 37.6879 2.88226C37.3292 2.86978 37.0703 2.59528 37.0329 2.18664C37.0297 2.15857 37.0297 2.12737 37.0297 2.0993C37.0297 1.86535 37.0297 1.63139 37.0297 1.39744C37.0329 1.39744 37.0329 1.39744 37.0329 1.39744Z" fill="white"/>
<path d="M38.3653 13.1731C38.3653 13.4507 38.3872 13.7314 38.3591 14.0059C38.3217 14.374 38.1033 14.5861 37.7228 14.6017C37.364 14.6142 37.0677 14.3802 37.0459 13.9966C37.0147 13.4444 37.0147 12.8861 37.0459 12.3308C37.0677 11.9627 37.3983 11.6945 37.7321 11.7288C38.0971 11.7631 38.3279 11.9721 38.3591 12.3433C38.3872 12.6178 38.3685 12.8954 38.3653 13.1731Z" fill="white"/>
<path d="M41.2539 10.1536C41.4879 10.2877 41.6844 10.3594 41.8279 10.4905C42.1742 10.8055 42.4986 11.1424 42.823 11.4793C43.138 11.8099 43.1536 12.1687 42.8854 12.4525C42.614 12.7426 42.2147 12.7333 41.8778 12.4151C41.5191 12.072 41.1416 11.7382 40.8391 11.3483C40.7049 11.1767 40.6581 10.8492 40.7236 10.6402C40.7892 10.4468 41.0574 10.3251 41.2539 10.1536Z" fill="white"/>
<path d="M32.9655 1.84985C33.1932 1.98087 33.3773 2.04637 33.5083 2.16803C33.8639 2.49556 34.2039 2.83869 34.5346 3.18806C34.8434 3.51248 34.8559 3.8868 34.5876 4.16442C34.31 4.45141 33.945 4.45453 33.6144 4.14259C33.2432 3.7901 32.8564 3.44385 32.5475 3.04145C32.4134 2.86989 32.3697 2.53611 32.4384 2.32712C32.4976 2.13995 32.769 2.0183 32.9655 1.84985Z" fill="white"/>
<path d="M31.8957 6.64745C32.1453 6.64745 32.3948 6.63185 32.6413 6.65057C33.0249 6.68176 33.2994 6.95003 33.2901 7.29004C33.2807 7.65813 33.0717 7.92951 32.7161 7.95447C32.1359 7.99502 31.5464 7.99814 30.9662 7.95135C30.6137 7.92327 30.3984 7.66124 30.4171 7.27756C30.4359 6.897 30.6511 6.68488 31.0223 6.65369C31.3124 6.63185 31.6056 6.65057 31.8988 6.65057C31.8957 6.64745 31.8957 6.64745 31.8957 6.64745Z" fill="white"/>
<path d="M43.1593 2.5485C43.0283 2.77933 42.9628 2.96337 42.8411 3.09439C42.5043 3.45935 42.1486 3.81184 41.7868 4.15185C41.4717 4.44819 41.1224 4.44819 40.8447 4.18617C40.5546 3.91166 40.5515 3.54046 40.8603 3.21292C41.2128 2.84172 41.556 2.4518 41.9584 2.13986C42.1299 2.00573 42.4575 1.96206 42.6665 2.02756C42.8599 2.08995 42.9878 2.3551 43.1593 2.5485Z" fill="white"/>
<path d="M34.7808 10.7713C34.7745 11.3078 33.4239 12.6897 33.0215 12.6398C32.8093 12.6117 32.5286 12.4589 32.4413 12.2842C32.3539 12.1064 32.382 11.7601 32.5068 11.6073C32.8655 11.1675 33.271 10.7588 33.7108 10.4001C33.8637 10.2753 34.2006 10.2472 34.3909 10.3252C34.5811 10.4032 34.6966 10.6684 34.7808 10.7713Z" fill="white"/>
<path d="M39.6938 40.0028C40.0463 39.9966 40.3271 40.2711 40.3458 40.636C40.3645 41.0322 40.1025 41.3192 39.7157 41.3223C39.3538 41.3285 39.0762 41.0665 39.0575 40.7015C39.0388 40.3303 39.332 40.009 39.6938 40.0028Z" fill="white"/>
<path d="M3.68111 38.0533C3.68735 38.4245 3.38165 38.7427 3.02292 38.7364C2.67043 38.7302 2.39905 38.4494 2.39281 38.0814C2.38345 37.6883 2.65796 37.4013 3.04164 37.4076C3.39725 37.4107 3.67487 37.6914 3.68111 38.0533Z" fill="white"/>
<path d="M15.0542 36.7649C15.051 37.1392 14.7953 37.4168 14.4428 37.4293C14.0716 37.4418 13.7939 37.1517 13.7939 36.7586C13.7939 36.3531 14.0529 36.0973 14.4521 36.1098C14.8265 36.1192 15.0573 36.3718 15.0542 36.7649Z" fill="white"/>
<path d="M12.1348 42.411C11.7761 42.411 11.5078 42.1396 11.4985 41.7684C11.486 41.3785 11.7636 41.0759 12.1317 41.0759C12.5029 41.0759 12.7712 41.3692 12.7618 41.7653C12.7524 42.1459 12.4966 42.411 12.1348 42.411Z" fill="white"/>
</g>
<defs>
<clipPath id="clip0_118_1465">
<rect width="45.0125" height="45" fill="white"/>
</clipPath>
</defs>
</svg>
