<svg width="30" height="34" viewBox="0 0 30 34" fill="none" xmlns="http://www.w3.org/2000/svg">
<path d="M2.33742 27.3027C2.41622 27.3479 2.50211 27.3691 2.58622 27.3691C2.75799 27.3691 2.92534 27.2797 3.01831 27.1203L7.19924 19.8776C7.33648 19.6394 7.25503 19.3348 7.01685 19.1976L6.72909 19.032C6.61398 18.9656 6.53164 18.8585 6.49711 18.7301C6.46258 18.6017 6.48029 18.4671 6.54669 18.352L7.34711 16.9655C7.45336 16.7813 7.43122 16.5511 7.29221 16.3899C5.02643 13.7744 4.63331 10.5497 6.24299 7.76333C7.53039 5.53385 9.77315 4.23229 12.3975 4.19156C12.6729 4.18713 12.8925 3.96047 12.888 3.68599C12.8836 3.41328 12.6614 3.19547 12.3904 3.19547C12.3878 3.19547 12.3851 3.19547 12.3825 3.19547C9.39951 3.24151 6.84773 4.72458 5.3806 7.26484C4.49961 8.7913 4.13393 10.494 4.32341 12.1886C4.50404 13.8054 5.18935 15.3815 6.31117 16.7689L5.68518 17.8535C5.48596 18.1997 5.43284 18.6017 5.53555 18.9869C5.62409 19.3189 5.81976 19.6031 6.09247 19.8032L2.15503 26.6218C2.01779 26.8609 2.09924 27.1655 2.33742 27.3027Z" fill="#3F3D56"/>
<path d="M8.52301 13.9329C8.28484 13.7957 7.98025 13.8771 7.84301 14.1153C7.70577 14.3535 7.78723 14.6581 8.02541 14.7953L15.0804 18.8682C15.1592 18.9134 15.2442 18.9355 15.3292 18.9355C15.501 18.9355 15.6692 18.8461 15.7613 18.6858C15.8985 18.4477 15.8171 18.1431 15.5789 18.0058L8.52301 13.9329Z" fill="#3F3D56"/>
<path d="M16.6564 16.6361C16.8281 16.6361 16.9955 16.5467 17.0876 16.3864C17.2257 16.1483 17.1433 15.8437 16.9052 15.7064L9.85016 11.6335C9.61199 11.4963 9.3074 11.5777 9.17016 11.8159C9.03292 12.0541 9.11438 12.3587 9.35256 12.4959L16.4076 16.5697C16.4864 16.614 16.5722 16.6361 16.6564 16.6361Z" fill="#3F3D56"/>
<path d="M29.4621 24.812C29.7375 24.812 29.9606 24.5889 29.9606 24.3135V9.29688C29.9606 7.4251 29.2284 5.66755 27.9003 4.34828C26.5845 3.04229 24.842 2.32422 22.9889 2.32422C22.988 2.32422 22.9862 2.32422 22.9844 2.32422C22.0742 0.883646 20.4876 0 18.7707 0C16.0251 0 13.7903 2.23391 13.7903 4.98047C13.7903 5.60469 13.9071 6.20234 14.1188 6.75484C13.9204 6.92927 13.7486 7.13734 13.6096 7.37729C13.2546 7.99266 13.1829 8.69745 13.406 9.36328C13.6344 10.0424 14.1471 10.6277 14.8873 11.0553C15.4478 11.3794 16.0215 11.5441 16.5705 11.5441C16.7476 11.5441 16.922 11.5272 17.0938 11.4918C17.7817 11.3528 18.3564 10.9376 18.7114 10.3231C19.0665 9.70771 19.1391 9.00292 18.9151 8.33708C18.6866 7.65797 18.1748 7.07271 17.4337 6.64505C16.6927 6.2174 15.9294 6.06599 15.2282 6.20766C15.1511 6.22359 15.075 6.24307 15.0006 6.26521C14.8625 5.86057 14.7864 5.42849 14.7864 4.97958C14.7864 4.81313 14.7979 4.64932 14.8182 4.48729C15.8515 4.75026 16.8963 5.185 17.9322 5.78266C20.322 7.16214 21.9573 8.99849 22.6612 11.0943C23.3138 13.036 23.1004 15.0964 22.0618 16.8955C20.453 19.6828 17.4639 20.9552 14.0656 20.2999C13.8567 20.2601 13.6459 20.3557 13.5397 20.5399L12.7393 21.9265C12.6729 22.0416 12.5648 22.1239 12.4373 22.1584C12.309 22.193 12.1744 22.1753 12.0593 22.1089L11.7715 21.9424C11.5333 21.8043 11.2288 21.8866 11.0906 22.1248L10.531 23.0943C10.4425 23.2475 10.2769 23.3431 10.0998 23.3431H9.3012C8.76109 23.3431 8.27766 23.6229 8.0076 24.0904C7.73755 24.5588 7.73755 25.1166 8.0076 25.585L8.40693 26.2765C8.49547 26.4297 8.49547 26.6209 8.40693 26.775L7.74286 27.9252C7.65432 28.0783 7.48875 28.174 7.31167 28.174H6.51302C5.97292 28.174 5.48948 28.4538 5.21943 28.9213C4.94938 29.3888 4.94938 29.9474 5.21943 30.4158L5.61875 31.1065C5.70729 31.2596 5.70729 31.4509 5.61875 31.6049L4.95469 32.7551C4.86615 32.9092 4.70057 33.0039 4.52349 33.0039C4.5226 33.0039 4.52083 33.0039 4.51995 33.0039L2.50828 32.9906C2.33297 32.9897 2.17005 32.895 2.08151 32.7445L2.0762 32.7356L8.92401 20.8746C9.06214 20.6364 8.97979 20.3318 8.74161 20.1946C8.50344 20.0573 8.19885 20.1388 8.06161 20.377L1.49714 31.7475L1.06417 31.0091C0.973854 30.855 0.972969 30.6629 1.0624 30.5079L2.09036 28.7273C2.2276 28.4892 2.14615 28.1846 1.90797 28.0473C1.66979 27.9101 1.36521 27.9916 1.22797 28.2297L0.2 30.0094C-0.0682811 30.4734 -0.0665102 31.0498 0.204427 31.512L1.22177 33.2483C1.48651 33.7007 1.97703 33.9832 2.5012 33.9867L4.51375 34H4.52349C5.05562 34 5.55146 33.714 5.81708 33.2527L6.48115 32.1026C6.74677 31.6421 6.74677 31.0693 6.48115 30.608L6.08182 29.9173C5.95255 29.6924 6.03844 29.4941 6.08182 29.4189C6.12521 29.3436 6.25359 29.1701 6.51302 29.1701H7.31167C7.8438 29.1701 8.33964 28.8841 8.60526 28.4228L9.26932 27.2726C9.53495 26.8122 9.53495 26.2393 9.26932 25.778L8.87 25.0874C8.74073 24.8625 8.82661 24.6642 8.87 24.5889C8.91339 24.5136 9.04177 24.3401 9.3012 24.3401H10.0998C10.632 24.3401 11.1278 24.0541 11.3934 23.5928L11.7095 23.0465C12.3966 23.3476 13.2183 23.089 13.6026 22.4241L14.2285 21.3394C14.8324 21.4342 15.4301 21.4731 16.0153 21.4581V29.4737C16.0153 30.847 17.1327 31.9644 18.5051 31.9644H27.4699C28.8432 31.9644 29.9606 30.8479 29.9606 29.4737V26.3057C29.9606 26.0304 29.7375 25.8072 29.4621 25.8072C29.1877 25.8072 28.9645 26.0304 28.9645 26.3057V29.4737C28.9645 30.2981 28.2943 30.9683 27.4699 30.9683H18.5051C17.6817 30.9683 17.0114 30.2981 17.0114 29.4737V21.3775C17.7729 21.273 18.5042 21.0711 19.1886 20.771C19.7606 20.5204 20.2954 20.2052 20.7886 19.8316L26.4951 22.3399C26.5589 22.3683 26.6279 22.3824 26.6952 22.3824C26.7908 22.3824 26.8856 22.355 26.967 22.3019C27.1078 22.2098 27.1928 22.0531 27.1928 21.8848V17.8783C27.1928 17.603 26.9697 17.3798 26.6943 17.3798C26.419 17.3798 26.1967 17.603 26.1967 17.8783V21.1216L21.6147 19.1073C22.1149 18.6044 22.5559 18.0306 22.9233 17.394C23.1208 17.0514 23.2917 16.7007 23.4369 16.3439H26.6943C26.9697 16.3439 27.1928 16.1208 27.1928 15.8454V14.2889C27.1928 14.0135 26.9697 13.7904 26.6943 13.7904C26.419 13.7904 26.1967 14.0135 26.1967 14.2889V15.3478H23.7689C23.9274 14.7448 24.0142 14.1295 24.0266 13.5106C24.3055 13.6239 24.6074 13.6841 24.9164 13.6841C26.2189 13.6841 27.2778 12.6252 27.2778 11.3227C27.2778 10.1973 26.4765 9.2225 25.3733 9.00557C25.1032 8.95245 24.842 9.12865 24.788 9.39781C24.7349 9.66786 24.9111 9.92906 25.1811 9.98307C25.8186 10.1079 26.2817 10.6719 26.2817 11.3227C26.2817 12.0753 25.669 12.688 24.9164 12.688C24.5543 12.688 24.2125 12.5455 23.9575 12.294C23.8893 11.7849 23.7724 11.2776 23.6033 10.7764C23.3235 9.94323 22.9136 9.1499 22.385 8.40438C22.8197 7.94396 23.1668 7.40297 23.3997 6.81682C23.5015 6.56094 23.3758 6.27141 23.1208 6.17047C22.8649 6.06865 22.5754 6.19437 22.4735 6.44937C22.3053 6.87349 22.0618 7.26661 21.7599 7.61016C20.9515 6.6787 19.9412 5.83844 18.7495 5.11151C19.8571 3.97818 21.3553 3.33182 22.941 3.32031C24.5445 3.30792 26.0577 3.92417 27.1964 5.05484C28.335 6.18552 28.9628 7.6925 28.9628 9.29688V24.3135C28.9636 24.5889 29.1868 24.812 29.4621 24.812ZM14.472 7.87578C14.5092 7.81026 14.5508 7.75005 14.596 7.69339C14.967 8.26359 15.4513 8.75411 16.0189 9.13219C16.0162 9.21453 16.0144 9.29688 16.0144 9.37922V10.4647C15.809 10.4063 15.5974 10.316 15.3858 10.1938C14.3764 9.60943 14.009 8.67885 14.472 7.87578ZM17.0105 10.4878V9.63953C17.2708 9.73781 17.5418 9.81484 17.8216 9.86885C17.6259 10.1858 17.3443 10.393 17.0105 10.4878ZM16.9353 7.50833C17.5674 7.87313 17.9473 8.37427 18.0296 8.8949C16.953 8.69213 16.033 8.05729 15.4504 7.18073C15.8931 7.10104 16.412 7.20552 16.9353 7.50833ZM17.8579 4.60682C16.9299 4.12338 15.9941 3.75948 15.0635 3.52307C15.647 2.04531 17.0884 0.996094 18.7707 0.996094C19.9625 0.996094 21.0764 1.52823 21.8254 2.4225C20.3069 2.68193 18.9133 3.44427 17.8579 4.60682Z" fill="#3F3D56"/>
<path d="M24.4285 28.9761C24.7039 28.9761 24.927 28.753 24.927 28.4776V24.3135C24.927 24.0382 24.7039 23.815 24.4285 23.815C24.1532 23.815 23.93 24.0382 23.93 24.3135V25.8258H22.0441V24.3135C22.0441 24.0382 21.821 23.815 21.5456 23.815C21.2711 23.815 21.0471 24.0382 21.0471 24.3135V28.4776C21.0471 28.753 21.2702 28.9761 21.5456 28.9761C21.821 28.9761 22.0441 28.753 22.0441 28.4776V26.8219H23.93V28.4776C23.93 28.753 24.1532 28.9761 24.4285 28.9761Z" fill="#3F3D56"/>
</svg>
