<svg width="38" height="30" viewBox="0 0 38 30" fill="none" xmlns="http://www.w3.org/2000/svg">
<g clip-path="url(#clip0_118_2269)">
<path d="M-0.000963353 11.2936C0.1574 10.8967 0.449383 10.775 0.871026 10.778C2.88323 10.7948 4.89643 10.7849 6.90963 10.7849C7.04226 10.7849 7.17489 10.7849 7.34711 10.7849C7.34711 10.5285 7.34414 10.3098 7.34711 10.0911C7.36591 8.69646 7.31741 7.29792 7.42035 5.90927C7.62919 3.08545 9.99277 0.574394 12.781 0.110191C15.8136 -0.394593 18.5919 1.00099 19.9855 3.72979C20.0231 3.80303 20.0647 3.87429 20.1231 3.97921C20.6041 2.94886 21.2603 2.09666 22.1303 1.41372C25.9776 -1.61003 31.7321 0.470468 32.7318 5.26097C32.8516 5.83503 32.8793 6.43483 32.8902 7.02375C32.9129 8.25701 32.8971 9.49125 32.8971 10.7681C33.0436 10.775 33.1732 10.7849 33.3029 10.7849C34.5866 10.7859 35.8714 10.7849 37.1551 10.7869C37.2778 10.7869 37.4065 10.7849 37.5213 10.8205C37.8024 10.9066 37.9528 11.1056 37.9271 11.4045C37.9034 11.6836 37.74 11.8568 37.4619 11.8984C37.3164 11.9202 37.167 11.9172 37.0185 11.9172C32.5853 11.9182 28.1531 11.9182 23.7199 11.9182C23.5635 11.9182 23.4062 11.9182 23.2102 11.9182C23.2102 12.1023 23.2102 12.2339 23.2102 12.3665C23.2102 14.9716 23.2141 17.5777 23.2042 20.1828C23.2033 20.4559 23.2933 20.643 23.4774 20.8301C25.2105 22.582 27.874 22.4583 29.4359 20.547C29.8615 20.0264 30.1653 20.0274 30.5879 20.548C32.2013 22.5365 35.0192 22.578 36.7226 20.6391C36.8205 20.5282 36.9027 20.3995 37.0145 20.3055C37.2264 20.1254 37.4708 20.1145 37.6965 20.2738C37.938 20.4441 38.0142 20.6935 37.8737 20.9568C37.7707 21.1498 37.6242 21.324 37.4748 21.4863C35.4784 23.6499 32.4111 23.7816 30.2297 21.803C30.1663 21.7456 30.103 21.6882 30.0119 21.6051C28.9954 22.6087 27.7879 23.2016 26.3478 23.2036C24.9057 23.2065 23.6932 22.6275 22.65 21.5981C21.6335 22.6097 20.4269 23.1976 18.9928 23.2036C17.5507 23.2095 16.3372 22.6344 15.291 21.6011C14.2676 22.6087 13.0522 23.2065 11.6011 23.2045C10.161 23.2026 8.95252 22.6146 7.92117 21.6001C7.26595 22.2405 6.5444 22.7225 5.69122 22.9858C3.71167 23.5965 1.50646 22.872 0.20392 21.1864C0.136615 21.0993 0.0693105 21.0132 0.00101619 20.9271C0.00101619 20.7786 0.00101619 20.6311 0.00101619 20.4827C0.481056 20.0303 0.706724 20.0452 1.14321 20.5609C2.7704 22.484 5.40319 22.5919 7.12045 20.7915C7.24714 20.6579 7.33523 20.4312 7.33919 20.2451C7.35997 19.2207 7.34909 18.1963 7.34909 17.1719C7.34909 16.9126 7.34117 16.6532 7.35206 16.3939C7.36789 16.0267 7.59752 15.7862 7.91425 15.7822C8.23493 15.7783 8.45466 16.0059 8.48534 16.383C8.49425 16.4939 8.4893 16.6047 8.4893 16.7166C8.4893 17.8895 8.48831 19.0614 8.49128 20.2342C8.49128 20.355 8.47941 20.5094 8.54473 20.5906C8.89016 21.0241 9.31081 21.3695 9.86806 21.6407C9.86806 21.4269 9.86806 21.2814 9.86806 21.1359C9.86806 16.4206 9.8641 11.7054 9.87399 6.9901C9.87498 6.56252 9.91754 6.12405 10.0155 5.70834C10.4491 3.87726 12.2237 2.28868 14.5675 2.54998C16.4787 2.76377 18.0891 4.48894 18.1495 6.50808C18.1881 7.79082 18.1623 9.07555 18.1663 10.3583C18.1663 10.4899 18.1663 10.6216 18.1663 10.7651C18.6533 10.7651 19.0917 10.7651 19.5649 10.7651C19.5649 10.6245 19.5649 10.5038 19.5649 10.384C19.5649 9.1864 19.5678 7.98977 19.5639 6.79214C19.554 3.22401 16.5233 0.647637 13.0066 1.21478C10.6233 1.59881 8.58432 3.81689 8.52197 6.22995C8.45664 8.74595 8.49623 11.2649 8.48732 13.7829C8.48633 13.9423 8.519 14.1402 8.43882 14.2521C8.31609 14.4243 8.12111 14.6301 7.938 14.6499C7.77469 14.6678 7.55199 14.4817 7.42233 14.3283C7.33622 14.2263 7.35107 14.0244 7.34909 13.867C7.34216 13.2296 7.34612 12.5922 7.34612 11.9182C7.15311 11.9182 7.00761 11.9182 6.86113 11.9182C4.86179 11.9182 2.86146 11.9103 0.862118 11.9241C0.429588 11.9271 0.11583 11.8192 -0.00195312 11.3688C-0.000963353 11.3431 -0.000963353 11.3184 -0.000963353 11.2936ZM20.6873 21.5784C20.7209 21.6011 20.7546 21.6239 20.7892 21.6457C21.1069 21.4002 21.4266 21.1557 21.7424 20.9073C22.0007 20.7034 22.0927 20.449 22.0927 20.1066C22.0809 15.7367 22.0828 11.3669 22.0878 6.99802C22.0878 6.67931 22.1125 6.35763 22.1571 6.04091C22.5104 3.51501 25.1957 1.88485 27.5919 2.75288C29.5061 3.44671 30.586 5.18574 30.3662 7.41966C30.3375 7.71065 30.1346 7.87891 29.8337 7.88287C29.515 7.88782 29.3131 7.71659 29.2765 7.40679C29.2448 7.13856 29.2735 6.8644 29.2617 6.5932C29.1924 5.00956 27.9334 3.70405 26.4329 3.65457C24.7602 3.60013 23.3606 4.75618 23.2607 6.40514C23.1736 7.8314 23.231 9.26657 23.226 10.6968C23.226 10.7166 23.2527 10.7364 23.2666 10.7562C25.259 10.7562 27.2514 10.7562 29.2369 10.7562C29.2508 10.7067 29.2617 10.6839 29.2626 10.6602C29.2656 10.3266 29.2646 9.99406 29.2676 9.6605C29.2716 9.25371 29.4715 9.01022 29.8041 8.99934C30.1515 8.98845 30.3722 9.24084 30.3761 9.66149C30.3801 10.0267 30.3771 10.3929 30.3771 10.7512C30.876 10.7512 31.3243 10.7512 31.7212 10.7512C31.7212 9.14186 31.845 7.55229 31.6915 5.98944C31.4817 3.85648 30.2544 2.33025 28.2709 1.52952C26.2824 0.726819 24.388 1.0386 22.7173 2.39459C21.3276 3.52194 20.6902 5.02738 20.6892 6.80798C20.6882 11.6222 20.6882 16.4355 20.6882 21.2497C20.6873 21.3616 20.6873 21.4705 20.6873 21.5784ZM17.038 10.7681C17.038 9.28637 17.0974 7.84229 17.0231 6.40415C16.9301 4.59584 15.1416 3.32398 13.3748 3.72385C12.0693 4.0188 11.0657 5.17486 11.03 6.51204C10.9934 7.89178 11.0172 9.2735 11.0162 10.6542C11.0162 10.6869 11.038 10.7205 11.0548 10.7671C13.0393 10.7681 15.0188 10.7681 17.038 10.7681ZM19.55 18.4903C16.6935 18.4903 13.8717 18.4903 11.034 18.4903C11.034 19.676 11.034 20.84 11.034 22.0673C11.4745 22.0465 11.8971 22.0693 12.3029 21.999C13.3332 21.8199 14.1459 21.2596 14.7852 20.4461C15.001 20.1709 15.2603 20.0907 15.5602 20.2501C15.6939 20.3204 15.7889 20.4688 15.8938 20.5886C16.8628 21.6942 18.0574 22.2098 19.55 22.0198C19.55 20.836 19.55 19.68 19.55 18.4903ZM11.032 14.6232C13.8816 14.6232 16.7094 14.6232 19.5391 14.6232C19.5391 13.7136 19.5391 12.8327 19.5391 11.939C16.6935 11.939 13.8727 11.939 11.032 11.939C11.032 12.8436 11.032 13.7245 11.032 14.6232ZM19.546 15.8208C16.6925 15.8208 13.8717 15.8208 11.0399 15.8208C11.0399 16.3276 11.0399 16.8116 11.0399 17.3035C13.8885 17.3035 16.7084 17.3035 19.546 17.3035C19.546 16.8047 19.546 16.3276 19.546 15.8208Z" fill="#3F3D56"/>
<path d="M26.347 28.4193C24.0923 30.6255 20.9775 30.4216 18.9821 28.4341C18.6198 28.7043 18.2655 28.9884 17.8914 29.2418C17.5578 29.4684 17.2262 29.4169 17.0421 29.1477C16.8501 28.8666 16.959 28.5539 17.2836 28.2975C17.6687 27.9927 18.0537 27.6799 18.3902 27.3256C18.8326 26.8594 19.1197 26.8445 19.5304 27.3325C20.3994 28.3658 21.4912 28.928 22.863 28.8577C24.0715 28.7954 25.0177 28.2203 25.7808 27.3117C26.1629 26.8574 26.4895 26.8475 26.8617 27.2978C28.6007 29.3962 31.3928 29.4061 33.1378 27.3196C33.1695 27.282 33.1982 27.2414 33.2309 27.2048C33.4753 26.9306 33.796 26.8871 34.0474 27.094C34.279 27.285 34.3206 27.6205 34.1118 27.8917C33.22 29.0438 32.0699 29.7772 30.6089 29.9564C28.9362 30.1603 27.5367 29.5704 26.347 28.4193Z" fill="#3F3D56"/>
<path d="M11.6058 28.4C10.812 29.1621 9.93602 29.7184 8.86509 29.9015C6.79349 30.2558 5.14156 29.5234 3.841 27.92C3.60742 27.6319 3.63909 27.2934 3.88059 27.0935C4.14288 26.8767 4.46753 26.9213 4.71893 27.2321C5.35041 28.0169 6.12639 28.5841 7.12507 28.7801C8.70178 29.0889 9.98452 28.5494 11.0188 27.3568C11.4751 26.8302 11.7404 26.8362 12.1957 27.3657C12.9786 28.2763 13.9486 28.8246 15.1749 28.8632C15.6104 28.8771 15.8766 29.1314 15.8469 29.4818C15.8182 29.8213 15.5461 30.0113 15.1204 29.9955C13.7437 29.943 12.5995 29.3749 11.6058 28.4Z" fill="#3F3D56"/>
</g>
<defs>
<clipPath id="clip0_118_2269">
<rect width="37.9429" height="30" fill="white"/>
</clipPath>
</defs>
</svg>
