<svg width="34" height="34" viewBox="0 0 34 34" fill="none" xmlns="http://www.w3.org/2000/svg">
<g clip-path="url(#clip0_90_461)">
<path d="M13.0823 34C13.0823 33.6808 13.0823 33.3615 13.0823 33.0051C13.2382 33.0051 13.3669 33.0051 13.4956 33.0051C19.2968 33.0051 25.0954 33.0026 30.8966 33.0101C31.1836 33.0101 31.399 32.9457 31.5895 32.7254C31.79 32.4953 32.0276 32.2973 32.3171 32.0176C30.9956 32.0176 29.7754 32.0176 28.533 32.0176C28.533 31.6786 28.533 31.3742 28.533 31.0326C30.0056 31.0326 31.4831 31.0326 32.9829 31.0326C32.9829 23.6674 32.9829 16.3343 32.9829 8.98386C25.036 8.98386 17.0842 8.98386 9.10765 8.98386C9.10765 9.62733 9.10765 10.2658 9.10765 10.9291C8.77107 10.9291 8.45676 10.9291 8.1177 10.9291C8.11275 10.8252 8.10285 10.7163 8.10285 10.6099C8.10285 7.93203 8.10533 5.25173 8.0979 2.5739C8.0979 2.35611 8.16225 2.20514 8.31569 2.05417C8.94926 1.43545 9.56551 0.799404 10.204 0.185632C10.308 0.0841618 10.4862 0.00496537 10.6297 0.00496537C17.5817 -0.00493418 24.5312 -0.00245929 31.4831 0.00496537C31.6192 0.00496537 31.7875 0.0717873 31.884 0.165833C32.5448 0.804354 33.1933 1.45525 33.8318 2.11357C33.9258 2.21009 33.9951 2.37838 33.9951 2.5145C34.0025 12.1666 34.0025 21.8186 33.9951 31.4707C33.9951 31.6142 33.9184 31.7924 33.8194 31.8964C33.1363 32.6067 32.4384 33.2996 31.7479 34C25.5261 34 19.3042 34 13.0823 34ZM32.9928 3.00948C25.0138 3.00948 17.0644 3.00948 9.1225 3.00948C9.1225 4.67508 9.1225 6.31593 9.1225 7.95183C17.0916 7.95183 25.0336 7.95183 32.9928 7.95183C32.9928 6.2986 32.9928 4.66518 32.9928 3.00948ZM9.79072 1.9725C17.3367 1.9725 24.7737 1.9725 32.2924 1.9725C32.0028 1.68541 31.7529 1.45772 31.5227 1.21024C31.3767 1.05184 31.2257 0.980071 31.0055 0.987496C30.508 1.00482 30.0105 0.992445 29.5131 0.992445C23.3828 0.992445 17.255 0.992445 11.1247 0.997395C10.9811 0.997395 10.8054 1.02462 10.704 1.11124C10.407 1.35625 10.1397 1.63839 9.79072 1.9725Z" fill="#3F3D56"/>
<path d="M0 25.3008C0.363808 24.9444 0.715242 24.5806 1.0939 24.2415C1.21022 24.1376 1.39336 24.051 1.5468 24.0485C4.54389 24.0386 7.53851 24.0386 10.5356 24.0485C10.689 24.0485 10.8573 24.145 10.991 24.2341C11.1271 24.3232 11.2162 24.4816 11.3498 24.5757C11.9735 25.0236 12.2012 25.6126 12.0972 26.3724C12.0626 26.6249 12.0379 26.8352 11.8275 27.0035C11.6493 27.1495 11.4909 27.3203 11.2954 27.5084C11.6988 27.9464 12.1443 28.2756 12.1245 28.9958C12.1047 29.6912 11.7928 30.0922 11.236 30.5278C11.4959 30.7554 11.7211 30.9411 11.9339 31.1465C12.0057 31.2158 12.075 31.3271 12.0774 31.4212C12.0948 31.8073 12.0948 32.1958 12.0774 32.5819C12.0725 32.6859 11.9908 32.8022 11.9141 32.8814C11.5577 33.2576 11.189 33.6238 10.8252 33.9951C7.6375 33.9951 4.44985 33.9951 1.26219 33.9951C0.841462 33.5743 0.420731 33.1536 0 32.7329C0 32.2453 0 31.7578 0 31.2727C0.247489 31.0128 0.494977 30.753 0.710293 30.5253C0.472703 30.2654 0.235114 30.0056 0 29.7432C0 29.2557 0 28.7681 0 28.283C0.247489 28.0232 0.494977 27.7633 0.712767 27.5356C0.475178 27.2758 0.237589 27.0159 0 26.756C0 26.2759 0 25.7883 0 25.3008ZM4.48945 30.0179C4.63546 30.0179 4.75673 30.0179 4.87553 30.0179C6.6228 30.0179 8.37254 30.0179 10.1198 30.0179C10.3797 30.0179 11.0429 29.4784 11.09 29.2309C11.189 28.7161 10.6074 28.0256 10.0728 28.0232C7.39496 28.0232 4.71713 28.0232 2.04178 28.0232C1.5369 28.0232 0.99243 28.5973 0.99243 29.1047C0.99243 29.4561 1.31169 29.5551 1.47008 29.7803C1.61115 29.9783 1.79924 30.0353 2.04426 30.0254C2.51696 30.0056 2.98966 30.0204 3.47969 30.0204C3.47969 30.3644 3.47969 30.6787 3.47969 31.0153C2.99461 31.0153 2.52933 31.0153 2.06653 31.0153C1.51958 31.0153 0.913233 31.6093 1.01718 32.134C1.06668 32.3864 1.32901 32.6116 1.52948 32.817C1.63095 32.921 1.80914 33.0026 1.95021 33.0026C4.68249 33.0125 7.41476 33.0101 10.1495 33.0101C10.3846 33.0101 11.0429 32.4582 11.09 32.2255C11.1914 31.7157 10.6074 31.0153 10.0777 31.0153C8.34037 31.0153 6.603 31.0153 4.86563 31.0153C4.74683 31.0153 4.62804 31.0153 4.48945 31.0153C4.48945 30.6762 4.48945 30.3718 4.48945 30.0179ZM6.06595 25.0335C4.72951 25.0335 3.3906 25.0335 2.05416 25.0335C1.52948 25.0335 0.928083 25.6176 1.01718 26.1299C1.05925 26.3724 1.32159 26.5778 1.48246 26.8031C1.61858 26.9911 1.79924 27.0357 2.02693 27.0332C4.72456 27.0258 7.41971 27.0283 10.1173 27.0283C10.3772 27.0283 11.0405 26.4912 11.09 26.2437C11.1914 25.7339 10.6074 25.036 10.0777 25.0335C8.7413 25.0335 7.40239 25.0335 6.06595 25.0335Z" fill="#3F3D56"/>
<path d="M21.2964 29.7878C16.5396 29.8991 12.6986 26.2833 12.2878 21.7963C11.8299 16.7971 15.5942 12.6393 20.2322 12.2161C25.2686 11.7557 29.4091 15.5596 29.8248 20.1852C30.2728 25.1795 26.4243 29.6269 21.2964 29.7878ZM21.0489 13.1986C16.7401 13.2011 13.2753 16.6634 13.2654 20.9722C13.2579 25.2909 16.7376 28.773 21.0588 28.7706C25.3676 28.7681 28.8349 25.3057 28.8423 20.9945C28.8497 16.6758 25.37 13.1961 21.0489 13.1986Z" fill="#3F3D56"/>
<path d="M9.07539 23.0264C8.7487 23.0264 8.44429 23.0264 8.12256 23.0264C8.12256 19.3363 8.12256 15.6611 8.12256 11.9686C8.44429 11.9686 8.7487 11.9686 9.07539 11.9686C9.07539 15.6487 9.07539 19.3239 9.07539 23.0264Z" fill="#3F3D56"/>
<path d="M28.043 10.9316C28.043 10.6049 28.043 10.3005 28.043 9.97876C29.3646 9.97876 30.6713 9.97876 31.9954 9.97876C31.9954 10.298 31.9954 10.6049 31.9954 10.9316C30.6837 10.9316 29.3769 10.9316 28.043 10.9316Z" fill="#3F3D56"/>
<path d="M14.0525 32.5027C13.7432 32.5027 13.4412 32.5027 13.1121 32.5027C13.1121 32.1785 13.1121 31.8592 13.1121 31.5177C13.4214 31.5177 13.7234 31.5177 14.0525 31.5177C14.0525 31.8394 14.0525 32.1612 14.0525 32.5027Z" fill="#3F3D56"/>
<path d="M16.0545 32.5002C15.713 32.5002 15.4086 32.5002 15.0918 32.5002C15.0918 32.1661 15.0918 31.8518 15.0918 31.5177C15.416 31.5177 15.7278 31.5177 16.0545 31.5177C16.0545 31.8518 16.0545 32.1661 16.0545 32.5002Z" fill="#3F3D56"/>
<path d="M27.0159 9.97876C27.0159 10.303 27.0159 10.6074 27.0159 10.9341C26.6991 10.9341 26.3873 10.9341 26.0557 10.9341C26.0557 10.6198 26.0557 10.3079 26.0557 9.97876C26.37 9.97876 26.6744 9.97876 27.0159 9.97876Z" fill="#3F3D56"/>
<path d="M10.1099 6.94454C10.1099 5.96449 10.1099 4.99433 10.1099 4.00685C12.4239 4.00685 14.728 4.00685 17.0494 4.00685C17.0494 4.98196 17.0494 5.94964 17.0494 6.94454C14.7528 6.94454 12.4486 6.94454 10.1099 6.94454ZM16.0669 4.99928C14.3939 4.99928 12.753 4.99928 11.1147 4.99928C11.1147 5.33587 11.1147 5.6477 11.1147 5.94964C12.7803 5.94964 14.4211 5.94964 16.0669 5.94964C16.0669 5.62295 16.0669 5.32597 16.0669 4.99928Z" fill="#3F3D56"/>
<path d="M21.0538 5.4522C21.0612 4.62559 21.7319 3.97717 22.5709 3.98459C23.3975 3.99202 24.0459 4.66271 24.0385 5.5017C24.0311 6.32831 23.3604 6.97673 22.5214 6.9693C21.6948 6.96188 21.0463 6.29119 21.0538 5.4522ZM22.5536 4.98197C22.3011 4.97702 22.0611 5.20718 22.0512 5.4621C22.0413 5.71454 22.2665 5.95708 22.5239 5.97192C22.7862 5.98677 23.0436 5.73929 23.0436 5.47447C23.0411 5.22451 22.8035 4.98444 22.5536 4.98197Z" fill="#3F3D56"/>
<path d="M28.0255 5.47693C28.0255 6.31097 27.3672 6.97177 26.5332 6.97177C25.6991 6.97177 25.0408 6.31345 25.0383 5.47941C25.0383 4.64537 25.6966 3.98705 26.5307 3.98705C27.3647 3.98458 28.0255 4.6429 28.0255 5.47693ZM27.0281 5.47198C27.0257 5.22202 26.7856 4.98443 26.5356 4.98196C26.2832 4.97948 26.0456 5.21212 26.0382 5.46703C26.0308 5.73185 26.2832 5.98181 26.5455 5.97439C26.798 5.96449 27.0306 5.72442 27.0281 5.47198Z" fill="#3F3D56"/>
<path d="M32.0101 5.48188C32.0101 6.31345 31.3469 6.97177 30.5128 6.97177C29.6813 6.97177 29.0229 6.3085 29.0229 5.47446C29.0229 4.6429 29.6862 3.98458 30.5203 3.98705C31.3518 3.98458 32.0101 4.64537 32.0101 5.48188ZM31.0128 5.46951C31.0078 5.21955 30.7677 4.98196 30.5178 4.97948C30.2653 4.97948 30.0278 5.21212 30.0203 5.46456C30.0129 5.72937 30.2653 5.97934 30.5302 5.96944C30.7851 5.96201 31.0152 5.72195 31.0128 5.46951Z" fill="#3F3D56"/>
<path d="M26.2116 25.3874C25.9715 25.1845 25.7315 24.979 25.4741 24.7588C26.0186 24.0831 26.4269 23.3605 26.6521 22.4943C26.4962 22.4943 26.3774 22.4943 26.2586 22.4943C24.8875 22.4943 23.514 22.5017 22.1429 22.4844C21.9795 22.4819 21.7791 22.3977 21.6578 22.2839C21.1034 21.7592 20.5738 21.2073 20.0293 20.6727C19.9501 20.5935 19.8289 20.5094 19.7274 20.5094C18.2573 20.4995 16.7872 20.502 15.3196 20.502C15.0325 22.0191 15.775 24.3678 17.7079 25.7314C19.6606 27.1075 22.5587 27.2559 24.8281 25.4146C25.0336 25.6497 25.2415 25.8873 25.4469 26.1224C23.6699 27.9044 19.7893 28.684 16.8021 26.3081C13.7382 23.8728 13.3645 19.3784 15.9878 16.4308C18.5741 13.5228 23.0982 13.3916 25.8725 16.1709C28.6543 18.9601 28.3004 23.1229 26.2116 25.3874ZM23.316 19.4724C24.4396 19.4724 25.5285 19.4724 26.6249 19.4724C26.2314 17.5544 24.056 14.9112 20.5095 15.2032C17.7277 15.4334 15.7998 17.7054 15.4953 19.4774C15.6191 19.4774 15.7404 19.4774 15.8592 19.4774C17.2104 19.4774 18.5593 19.4823 19.9105 19.4724C20.1506 19.47 20.3238 19.5293 20.4946 19.7075C20.9921 20.2273 21.5143 20.7222 22.0117 21.242C22.1701 21.4053 22.331 21.4771 22.5611 21.4746C23.8679 21.4647 25.1722 21.4697 26.4789 21.4697C26.5878 21.4697 26.6942 21.4598 26.8229 21.4548C26.8229 21.1331 26.8229 20.8311 26.8229 20.4921C25.6374 20.4921 24.4817 20.4921 23.316 20.4921C23.316 20.1456 23.316 19.8387 23.316 19.4724Z" fill="#3F3D56"/>
</g>
<defs>
<clipPath id="clip0_90_461">
<rect width="34" height="34" fill="white"/>
</clipPath>
</defs>
</svg>
