<svg width="36" height="30" viewBox="0 0 36 30" fill="none" xmlns="http://www.w3.org/2000/svg">
<g clip-path="url(#clip0_118_2275)">
<path d="M0.00195312 1.50577C0.13158 1.25479 0.231789 0.981747 0.397271 0.758347C0.785233 0.235241 1.33316 0.00356615 1.97854 0.00264681C3.30883 0.000808121 4.63912 0.000808121 5.96941 0.00264681C6.42908 0.00356615 6.66719 0.182838 6.67362 0.524834C6.68006 0.877861 6.4346 1.06817 5.95286 1.06908C4.66854 1.07184 3.38422 1.06908 2.09897 1.07092C1.3396 1.07184 1.04081 1.37247 1.03897 2.1346C1.03713 2.87927 1.03897 3.62394 1.03897 4.40262C8.63826 4.40262 16.2192 4.40262 23.8157 4.40262C23.8157 3.49799 23.8433 2.59519 23.8019 1.69608C23.7863 1.35592 23.4985 1.14079 23.1455 1.08747C22.9883 1.06357 22.8256 1.07092 22.6647 1.07092C17.9742 1.07 13.2837 1.07092 8.59229 1.06908C8.44428 1.06908 8.29259 1.07 8.14733 1.04242C7.87888 0.99186 7.72076 0.820862 7.71524 0.54322C7.70972 0.246273 7.88532 0.0789523 8.1602 0.0145983C8.25857 -0.00838531 8.36522 0.00172746 8.46818 0.00172746C13.2506 0.000808121 18.033 0.000808121 22.8154 0.00172746C24.1163 0.00172746 24.9042 0.798798 24.9051 2.10978C24.906 6.99517 24.9051 11.8815 24.9051 16.7669C24.9051 16.902 24.9051 17.0381 24.9051 17.2026C25.0917 17.2026 25.2489 17.2026 25.4052 17.2026C26.9764 17.2026 28.5485 17.2311 30.1187 17.1953C32.2893 17.1456 33.6508 18.7646 33.7418 20.321C33.7428 20.3422 33.7584 20.3624 33.7795 20.413C33.8632 20.4203 33.9616 20.4323 34.0599 20.4369C34.8478 20.4727 35.3525 21.0786 35.2165 21.8536C34.8074 24.186 34.3918 26.5174 33.9726 28.8479C33.8283 29.6515 33.4164 29.9843 32.5954 29.9843C26.5397 29.9852 20.4849 29.9852 14.4292 29.9833C14.3051 29.9833 14.1736 29.9797 14.0569 29.9438C13.8096 29.8666 13.6422 29.6744 13.7121 29.4281C13.7627 29.2497 13.9282 29.0778 14.0863 28.9656C14.1902 28.8921 14.374 28.9187 14.5211 28.9187C16.643 28.916 18.7648 28.9169 20.8867 28.9169C21.0218 28.9169 21.1579 28.9169 21.3298 28.9169C21.1606 27.9479 20.9997 27.0175 20.8343 26.0872C20.5787 24.6456 20.3167 23.2041 20.0639 21.7617C19.9471 21.0905 20.4711 20.4783 21.1836 20.4396C21.4116 20.4268 21.7049 20.5068 21.8501 20.3928C21.989 20.2843 21.9678 19.9772 22.0257 19.7602C22.2675 18.8538 22.7925 18.156 23.5996 17.6798C23.7605 17.5842 23.8525 17.4941 23.8525 17.2854C23.8451 13.4434 23.8479 9.60151 23.846 5.75957C23.846 5.68143 23.8313 5.60328 23.8221 5.50951C16.2339 5.50951 8.65757 5.50951 1.06012 5.50951C1.06012 6.02986 1.06012 6.53826 1.06012 7.08986C1.59334 7.08986 2.11736 7.08986 2.64047 7.08986C2.76642 7.08986 2.89329 7.0871 3.01924 7.09078C3.38789 7.10181 3.62508 7.29763 3.63979 7.60102C3.6545 7.91084 3.41088 8.14435 3.02751 8.15538C2.55773 8.16825 2.08702 8.15906 1.61724 8.15906C1.43705 8.15906 1.25594 8.15906 1.05828 8.15906C1.05828 8.49186 1.05828 8.78421 1.05828 9.12529C1.60345 9.12529 2.13943 9.12529 2.67448 9.12529C2.82342 9.12529 2.97327 9.12069 3.12128 9.13264C3.43478 9.15838 3.64899 9.38086 3.64071 9.66126C3.63244 9.9435 3.4118 10.1651 3.09738 10.1706C2.50073 10.1807 1.90499 10.1733 1.30834 10.1752C1.23111 10.1752 1.15297 10.1844 1.05828 10.1908C1.05828 14.2166 1.05828 18.224 1.05828 22.2765C1.19526 22.2765 1.31753 22.2765 1.43981 22.2765C2.35731 22.2765 3.27481 22.2691 4.19232 22.2792C5.01513 22.2894 5.54283 22.8161 5.5557 23.6399C5.56766 24.3855 5.5649 25.131 5.55662 25.8766C5.54743 26.7335 5.01697 27.2694 4.15646 27.2805C3.26194 27.2915 2.36742 27.2832 1.4729 27.2832C1.34787 27.2832 1.22284 27.2832 1.01783 27.2832C1.04908 27.6684 1.03438 28.0352 1.11987 28.3782C1.19894 28.6944 1.46371 28.8838 1.80938 28.9095C1.94636 28.9197 2.08426 28.9187 2.22217 28.9187C5.41045 28.9197 8.59873 28.9187 11.787 28.9197C11.924 28.9197 12.0637 28.916 12.198 28.9399C12.4802 28.9904 12.6558 29.1642 12.6539 29.4556C12.6521 29.7664 12.4572 29.9319 12.163 29.9797C12.0509 29.998 11.9341 29.9861 11.8192 29.9861C8.6879 29.9861 5.55662 29.9613 2.42626 29.999C1.24674 30.0137 0.402787 29.6386 0.00195313 28.4821C0.00195312 19.49 0.00195312 10.4979 0.00195312 1.50577ZM21.8805 25.9759C22.0267 25.9759 22.1287 25.9759 22.2307 25.9759C25.841 25.9759 29.4522 25.9759 33.0624 25.9759C33.1314 25.9759 33.2105 25.9952 33.2665 25.9676C33.3364 25.9336 33.4274 25.8693 33.4394 25.804C33.5423 25.2791 33.6288 24.7514 33.7253 24.1979C29.6719 24.1979 25.6461 24.1979 21.5707 24.1979C21.6745 24.7955 21.7738 25.3646 21.8805 25.9759ZM34.2015 21.5272C29.8181 21.5272 25.4825 21.5272 21.0944 21.5272C21.1717 21.9612 21.271 22.3601 21.3059 22.7647C21.3316 23.0708 21.4567 23.126 21.7371 23.126C25.6801 23.1168 29.6232 23.1195 33.5653 23.1195C33.6784 23.1195 33.7906 23.1195 33.9174 23.1195C34.0121 22.5891 34.1022 22.0853 34.2015 21.5272ZM33.2187 27.0506C29.4945 27.0506 25.7978 27.0506 22.0726 27.0506C22.1627 27.5563 22.2721 28.0362 22.3273 28.5225C22.3631 28.8397 22.4799 28.927 22.7989 28.9252C26.0304 28.9123 29.2628 28.9169 32.4943 28.9169C32.6175 28.9169 32.7416 28.9169 32.8859 28.9169C32.9999 28.278 33.1075 27.6739 33.2187 27.0506ZM22.9984 20.4176C26.2428 20.4176 29.4595 20.4176 32.6874 20.4176C32.6818 20.3293 32.6846 20.2604 32.6708 20.1942C32.4272 19.011 31.5271 18.2792 30.263 18.2599C29.3345 18.2461 28.406 18.2525 27.4765 18.258C26.6509 18.2626 25.8235 18.2406 25.0016 18.2967C23.9426 18.3693 23.0352 19.3548 22.9984 20.4176ZM1.05736 26.2159C2.13759 26.2159 3.19943 26.2232 4.26035 26.2002C4.33849 26.1984 4.47456 25.9796 4.47823 25.8582C4.49938 25.1595 4.49019 24.4608 4.48835 23.7621C4.48743 23.354 4.45157 23.3199 4.02592 23.319C3.14335 23.3181 2.2617 23.3181 1.37913 23.319C1.27065 23.319 1.16124 23.3282 1.05644 23.3328C1.05736 24.311 1.05736 25.2469 1.05736 26.2159Z" fill="#3F3D56"/>
<path d="M19.9693 16.8807C19.9684 21.0444 16.5825 24.4239 12.4215 24.4138C8.29275 24.4036 4.89302 20.9837 4.91416 16.8614C4.93531 12.7078 8.30746 9.35308 12.4583 9.354C16.6082 9.35492 19.9702 12.7243 19.9693 16.8807ZM12.4509 23.3501C16.0281 23.3464 18.9277 20.4532 18.9286 16.8862C18.9295 13.3228 16.0318 10.414 12.4647 10.3965C8.89675 10.38 5.97784 13.3017 5.97968 16.8899C5.98152 20.4652 8.87469 23.3538 12.4509 23.3501Z" fill="#3F3D56"/>
<path d="M22.4323 8.53217C22.4323 9.43681 21.6978 10.1723 20.7941 10.1714C19.8986 10.1714 19.1475 9.42118 19.1484 8.5285C19.1494 7.64041 19.9097 6.88195 20.7968 6.88379C21.6941 6.88563 22.4323 7.6303 22.4323 8.53217ZM20.7867 7.95483C20.4475 7.95942 20.2112 8.20765 20.2195 8.55056C20.2277 8.8659 20.4778 9.11412 20.7913 9.11688C21.1103 9.11963 21.388 8.84567 21.387 8.52942C21.3861 8.20581 21.1195 7.95023 20.7867 7.95483Z" fill="#3F3D56"/>
<path d="M19.9943 3.28188C19.3995 3.28188 18.8047 3.28464 18.2099 3.28096C17.7815 3.2782 17.5526 3.0925 17.5489 2.7551C17.5452 2.41034 17.7658 2.22004 18.197 2.2182C19.3866 2.2136 20.5763 2.21452 21.7668 2.2182C22.1943 2.21912 22.4297 2.41218 22.4324 2.74315C22.4352 3.08698 22.1934 3.27912 21.7448 3.28096C21.161 3.28372 20.5772 3.28188 19.9943 3.28188Z" fill="#3F3D56"/>
<path d="M3.86988 3.30297C3.72554 3.2763 3.53983 3.29469 3.44606 3.21103C3.30724 3.08692 3.13808 2.88007 3.15555 2.72746C3.17485 2.55738 3.3578 2.35053 3.52328 2.26687C3.6906 2.18321 3.92596 2.21171 4.12913 2.2255C4.44263 2.24756 4.65683 2.48107 4.65224 2.75688C4.64672 3.03268 4.42516 3.25056 4.11442 3.27998C4.03536 3.28734 3.95446 3.2809 3.87447 3.2809C3.87263 3.28734 3.8708 3.29469 3.86988 3.30297Z" fill="#3F3D56"/>
<path d="M6.01906 3.28192C5.99792 3.27824 5.83795 3.30031 5.75981 3.22952C5.61179 3.09529 5.43344 2.92062 5.4077 2.74227C5.3553 2.3828 5.69086 2.19893 6.27004 2.21732C6.68283 2.23019 6.92369 2.43888 6.9099 2.77076C6.89519 3.11736 6.63778 3.28468 6.01906 3.28192Z" fill="#3F3D56"/>
<path d="M8.40313 3.28721C8.30017 3.28077 8.19444 3.28813 8.09607 3.26422C7.83406 3.20171 7.6649 3.02887 7.66214 2.75951C7.65939 2.47451 7.82579 2.28145 8.10986 2.23732C8.30017 2.2079 8.49966 2.20698 8.69089 2.22996C8.98967 2.26582 9.1717 2.44141 9.16803 2.75675C9.16435 3.073 8.97037 3.22929 8.6771 3.27618C8.58792 3.29089 8.49415 3.27801 8.40313 3.27801C8.40313 3.28077 8.40313 3.28353 8.40313 3.28721Z" fill="#3F3D56"/>
<path d="M12.4535 11.8638C15.2106 11.8684 17.4694 14.1244 17.4703 16.8751C17.4712 19.6469 15.2032 21.9012 12.4268 21.8874C9.64118 21.8736 7.43016 19.6331 7.43752 16.8319C7.44395 14.1042 9.71013 11.8592 12.4535 11.8638ZM16.4039 16.877C16.403 14.688 14.6397 12.9229 12.4544 12.9229C10.2719 12.9229 8.49844 14.6834 8.48189 16.8668C8.46534 19.0236 10.2691 20.8421 12.4277 20.8458C14.6268 20.8485 16.4039 19.0751 16.4039 16.877Z" fill="#3F3D56"/>
</g>
<defs>
<clipPath id="clip0_118_2275">
<rect width="35.2375" height="30" fill="white"/>
</clipPath>
</defs>
</svg>
