<svg width="35" height="34" viewBox="0 0 35 34" fill="none" xmlns="http://www.w3.org/2000/svg">
<mask id="mask0_126_3185" style="mask-type:luminance" maskUnits="userSpaceOnUse" x="0" y="0" width="35" height="34">
<path d="M34.8579 0H0.5V34H34.8579V0Z" fill="white"/>
</mask>
<g mask="url(#mask0_126_3185)">
<path d="M34.8516 26.4288L33.021 15.1336C32.8752 14.2353 32.1093 13.5831 31.1993 13.5831H30.6759C30.8056 13.3316 30.8781 13.0462 30.8781 12.7438C30.8781 12.096 30.3511 11.569 29.7033 11.569H29.5181C29.2998 8.26206 26.935 5.76663 23.5466 5.11079C23.5672 4.99985 23.5788 4.88711 23.5788 4.77258C23.5788 3.75527 22.7512 2.92763 21.733 2.92763C20.7157 2.92763 19.8872 3.75527 19.8872 4.77258C19.8872 4.88621 19.8988 4.99985 19.9194 5.11079C18.3473 5.415 16.9954 6.11558 15.9763 7.10874H13.9524L13.6911 5.84806C13.4334 4.60795 12.7785 4.16327 12.2998 3.83937C11.9831 3.62553 11.8417 3.52085 11.7943 3.29358L11.2386 0.61295C11.2011 0.429529 11.0498 0.111898 10.4665 0.0456872C10.2159 0.0170556 9.90547 0.0376346 9.59142 0.10295C8.67968 0.29174 8.17774 0.722108 8.28242 1.22585L8.83805 3.90648C8.88547 4.13374 8.7969 4.28584 8.592 4.60795C8.28153 5.09558 7.85653 5.76484 8.11332 7.00495L8.13479 7.10874H7.86547C7.51116 7.10874 7.17832 7.26711 6.95463 7.54179C6.73095 7.81737 6.64326 8.17437 6.71574 8.52153L7.76526 13.5822H6.84279C6.09389 13.5822 5.44253 14.0242 5.15442 14.6809C4.42968 14.5628 4.08789 14.0805 3.67184 13.4909C3.15468 12.7581 2.51047 11.8464 1.00374 11.8464C0.725474 11.8464 0.5 12.0718 0.5 12.3501C0.5 12.6275 0.725474 12.8538 1.00374 12.8538C1.98974 12.8538 2.36911 13.3916 2.84958 14.0716C3.29426 14.7015 3.83379 15.4638 4.93521 15.6651L4.32411 19.4364C4.27937 19.7111 4.46637 19.9688 4.74016 20.0135C5.01484 20.0574 5.27342 19.8713 5.31726 19.5975L6.01516 15.2938C6.08137 14.8858 6.42942 14.5887 6.84279 14.5887H31.1993C31.6127 14.5887 31.9616 14.8849 32.0269 15.2938L33.7887 26.1631C32.5853 26.5066 31.2959 26.4601 30.1158 26.0244C28.6404 25.4795 26.9601 25.4884 25.3853 26.0485C24.0933 26.5075 22.6725 26.5031 21.3841 26.036C19.8603 25.4831 18.1827 25.4831 16.6598 26.036C15.3714 26.5031 13.9506 26.5084 12.6586 26.0485C11.0829 25.4884 9.40353 25.4795 7.92721 26.0244C6.74705 26.4601 5.45774 26.5066 4.25342 26.1631L4.96832 21.7502C5.01305 21.4755 4.82605 21.2169 4.55226 21.1731C4.27758 21.1284 4.019 21.3145 3.97516 21.5892L3.19047 26.4279C3.152 26.6668 3.288 26.8994 3.51526 26.9817C4.27758 27.2582 5.07747 27.3969 5.87737 27.3969C6.32384 27.3969 6.77032 27.3522 7.20963 27.2663V28.3462H6.70589C6.42853 28.3462 6.20216 28.5717 6.20216 28.8499C6.20216 29.1282 6.42763 29.3537 6.70589 29.3537H7.21053V30.4784C6.95821 30.3495 6.67368 30.2762 6.37126 30.2762C5.35305 30.2762 4.52632 31.1038 4.52632 32.122C4.52632 33.1393 5.35395 33.9678 6.37126 33.9678C7.38858 33.9678 8.21711 33.1402 8.21711 32.122V29.3546H29.825V30.4793C29.5727 30.3504 29.2882 30.2771 28.9857 30.2771C27.9675 30.2771 27.1399 31.1047 27.1399 32.1229C27.1399 33.1411 27.9675 33.9687 28.9857 33.9687C30.0031 33.9687 30.8316 33.1411 30.8316 32.1229V29.3555H31.3353C31.6136 29.3555 31.8391 29.13 31.8391 28.8517C31.8391 28.5735 31.6136 28.348 31.3353 28.348H8.21711V26.9916C8.2359 26.9844 8.25558 26.9791 8.27526 26.9719C9.53058 26.5084 10.9666 26.5183 12.3204 26.9996C13.8316 27.5374 15.494 27.532 17.0025 26.9844C18.3044 26.512 19.7386 26.512 21.0405 26.9844C22.5481 27.5311 24.2105 27.5374 25.7226 26.9996C27.0764 26.5183 28.5124 26.5084 29.7677 26.9719C31.3004 27.5374 32.9906 27.5427 34.5277 26.9844C34.7532 26.8994 34.8901 26.6668 34.8516 26.4288ZM20.8955 4.77437C20.8955 4.31179 21.2722 3.936 21.7348 3.936C22.1974 3.936 22.5741 4.31179 22.5741 4.77437C22.5741 4.84237 22.5651 4.91037 22.549 4.97569C22.2824 4.95332 22.0113 4.94258 21.7357 4.94258C21.4601 4.94258 21.1881 4.95421 20.9224 4.97569C20.9045 4.91037 20.8955 4.84237 20.8955 4.77437ZM7.70174 8.31842C7.68742 8.25042 7.71695 8.20121 7.73574 8.17795C7.75453 8.15469 7.79658 8.11621 7.86547 8.11621H10.5246C10.8029 8.11621 11.0284 7.89074 11.0284 7.61248C11.0284 7.33421 10.8029 7.10874 10.5246 7.10874H9.16284L9.09932 6.80006C8.92484 5.9599 9.17626 5.56532 9.44111 5.14837C9.67016 4.78779 9.95558 4.33863 9.82405 3.70158L9.31495 1.24642C9.41605 1.19632 9.5789 1.13369 9.79632 1.08895C10.0128 1.04421 10.1882 1.03616 10.3009 1.04242L10.8101 3.49848C10.9425 4.13553 11.3827 4.43348 11.737 4.67327C12.1468 4.95063 12.5333 5.21279 12.7078 6.05295L12.927 7.10963H12.5387C12.2604 7.10963 12.0349 7.33511 12.0349 7.61337C12.0349 7.89163 12.2604 8.11711 12.5387 8.11711H15.1289C14.4507 9.10221 14.0356 10.2743 13.9497 11.5708H13.7654C13.1176 11.5708 12.5906 12.0978 12.5906 12.7456C12.5906 13.048 12.6639 13.3325 12.7928 13.5848H8.79332L7.70174 8.31842ZM14.4355 13.5831C13.9729 13.5831 13.5963 13.2073 13.5963 12.7438C13.5963 12.6516 13.6714 12.5756 13.7645 12.5756H23.7676C24.0459 12.5756 24.2714 12.3501 24.2714 12.0718C24.2714 11.7936 24.0459 11.5681 23.7676 11.5681H14.9581C15.0744 9.99605 15.7418 8.64053 16.905 7.625C18.1442 6.54327 19.8603 5.94737 21.7348 5.94737C23.6093 5.94737 25.3254 6.54327 26.5646 7.625C27.7277 8.64053 28.3952 9.99605 28.5115 11.5681H25.7808C25.5025 11.5681 25.2771 11.7936 25.2771 12.0718C25.2771 12.3501 25.5025 12.5756 25.7808 12.5756H29.7051C29.7973 12.5756 29.8733 12.6507 29.8733 12.7438C29.8733 13.2064 29.4966 13.5831 29.0341 13.5831H14.4355ZM6.37126 32.9595C5.90868 32.9595 5.532 32.5828 5.532 32.1202C5.532 31.6576 5.90868 31.2809 6.37126 31.2809C6.83384 31.2809 7.21053 31.6576 7.21053 32.1202C7.21053 32.5828 6.83384 32.9595 6.37126 32.9595ZM28.9866 32.9595C28.5241 32.9595 28.1474 32.5828 28.1474 32.1202C28.1474 31.6576 28.5232 31.2809 28.9866 31.2809C29.4492 31.2809 29.8259 31.6576 29.8259 32.1202C29.8259 32.5828 29.4483 32.9595 28.9866 32.9595Z" fill="#3F3D56"/>
</g>
</svg>
