<svg width="35" height="34" viewBox="0 0 35 34" fill="none" xmlns="http://www.w3.org/2000/svg">
<mask id="mask0_90_226" style="mask-type:luminance" maskUnits="userSpaceOnUse" x="0" y="0" width="35" height="34">
<path d="M34.3579 0H0V34H34.3579V0Z" fill="white"/>
</mask>
<g mask="url(#mask0_90_226)">
<path d="M34.3516 26.4287L32.521 15.1336C32.3752 14.2353 31.6093 13.583 30.6993 13.583H30.1759C30.3056 13.3316 30.3781 13.0462 30.3781 12.7437C30.3781 12.0959 29.8511 11.5689 29.2033 11.5689H29.0181C28.7998 8.26199 26.435 5.76657 23.0466 5.11073C23.0672 4.99978 23.0788 4.88705 23.0788 4.77252C23.0788 3.75521 22.2512 2.92757 21.233 2.92757C20.2157 2.92757 19.3872 3.75521 19.3872 4.77252C19.3872 4.88615 19.3988 4.99978 19.4194 5.11073C17.8473 5.41494 16.4954 6.11552 15.4763 7.10868H13.4524L13.1911 5.84799C12.9334 4.60789 12.2785 4.16321 11.7998 3.83931C11.4831 3.62547 11.3417 3.52078 11.2943 3.29352L10.7386 0.612889C10.7011 0.429468 10.5498 0.111837 9.96647 0.0456262C9.71595 0.0169946 9.40547 0.0375735 9.09142 0.102889C8.17968 0.291679 7.67774 0.722047 7.78242 1.22578L8.33805 3.90642C8.38547 4.13368 8.2969 4.28578 8.092 4.60789C7.78153 5.09552 7.35653 5.76478 7.61332 7.00489L7.63479 7.10868H7.36547C7.01116 7.10868 6.67832 7.26705 6.45463 7.54173C6.23095 7.81731 6.14326 8.17431 6.21574 8.52147L7.26526 13.5821H6.34279C5.59389 13.5821 4.94253 14.0241 4.65442 14.6808C3.92968 14.5627 3.58789 14.0805 3.17184 13.4908C2.65468 12.758 2.01047 11.8463 0.503737 11.8463C0.225474 11.8463 0 12.0718 0 12.35C0 12.6274 0.225474 12.8538 0.503737 12.8538C1.48974 12.8538 1.86911 13.3915 2.34958 14.0715C2.79426 14.7014 3.33379 15.4637 4.43521 15.665L3.82411 19.4364C3.77937 19.711 3.96637 19.9687 4.24016 20.0135C4.51484 20.0573 4.77342 19.8712 4.81726 19.5974L5.51516 15.2937C5.58137 14.8857 5.92942 14.5887 6.34279 14.5887H30.6993C31.1127 14.5887 31.4616 14.8848 31.5269 15.2937L33.2887 26.163C32.0853 26.5066 30.7959 26.46 29.6158 26.0243C28.1404 25.4794 26.4601 25.4884 24.8853 26.0485C23.5933 26.5075 22.1725 26.503 20.8841 26.0359C19.3603 25.483 17.6827 25.483 16.1598 26.0359C14.8714 26.503 13.4506 26.5084 12.1586 26.0485C10.5829 25.4884 8.90353 25.4794 7.42721 26.0243C6.24705 26.46 4.95774 26.5066 3.75342 26.163L4.46832 21.7502C4.51305 21.4755 4.32605 21.2169 4.05226 21.173C3.77758 21.1283 3.519 21.3144 3.47516 21.5891L2.69047 26.4278C2.652 26.6667 2.788 26.8994 3.01526 26.9817C3.77758 27.2582 4.57747 27.3968 5.37737 27.3968C5.82384 27.3968 6.27032 27.3521 6.70963 27.2662V28.3462H6.20589C5.92853 28.3462 5.70216 28.5716 5.70216 28.8499C5.70216 29.1282 5.92763 29.3536 6.20589 29.3536H6.71053V30.4783C6.45821 30.3495 6.17368 30.2761 5.87126 30.2761C4.85305 30.2761 4.02632 31.1037 4.02632 32.1219C4.02632 33.1393 4.85395 33.9678 5.87126 33.9678C6.88858 33.9678 7.71711 33.1402 7.71711 32.1219V29.3545H29.325V30.4792C29.0727 30.3504 28.7882 30.277 28.4857 30.277C27.4675 30.277 26.6399 31.1046 26.6399 32.1228C26.6399 33.141 27.4675 33.9687 28.4857 33.9687C29.5031 33.9687 30.3316 33.141 30.3316 32.1228V29.3554H30.8353C31.1136 29.3554 31.3391 29.1299 31.3391 28.8517C31.3391 28.5734 31.1136 28.3479 30.8353 28.3479H7.71711V26.9915C7.7359 26.9844 7.75558 26.979 7.77526 26.9718C9.03058 26.5084 10.4666 26.5182 11.8204 26.9996C13.3316 27.5373 14.994 27.5319 16.5025 26.9844C17.8044 26.5119 19.2386 26.5119 20.5405 26.9844C22.0481 27.531 23.7105 27.5373 25.2226 26.9996C26.5764 26.5182 28.0124 26.5084 29.2677 26.9718C30.8004 27.5373 32.4906 27.5427 34.0277 26.9844C34.2532 26.8994 34.3901 26.6667 34.3516 26.4287ZM20.3955 4.77431C20.3955 4.31173 20.7722 3.93594 21.2348 3.93594C21.6974 3.93594 22.0741 4.31173 22.0741 4.77431C22.0741 4.84231 22.0651 4.91031 22.049 4.97563C21.7824 4.95326 21.5113 4.94252 21.2357 4.94252C20.9601 4.94252 20.6881 4.95415 20.4224 4.97563C20.4045 4.91031 20.3955 4.84231 20.3955 4.77431ZM7.20174 8.31836C7.18742 8.25036 7.21695 8.20115 7.23574 8.17789C7.25453 8.15463 7.29658 8.11615 7.36547 8.11615H10.0246C10.3029 8.11615 10.5284 7.89068 10.5284 7.61242C10.5284 7.33415 10.3029 7.10868 10.0246 7.10868H8.66284L8.59932 6.79999C8.42484 5.95984 8.67626 5.56526 8.94111 5.14831C9.17016 4.78773 9.45558 4.33857 9.32405 3.70152L8.81495 1.24636C8.91605 1.19626 9.0789 1.13363 9.29632 1.08889C9.51284 1.04415 9.68821 1.0361 9.80095 1.04236L10.3101 3.49842C10.4425 4.13547 10.8827 4.43342 11.237 4.6732C11.6468 4.95057 12.0333 5.21273 12.2078 6.05289L12.427 7.10957H12.0387C11.7604 7.10957 11.5349 7.33505 11.5349 7.61331C11.5349 7.89157 11.7604 8.11705 12.0387 8.11705H14.6289C13.9507 9.10215 13.5356 10.2743 13.4497 11.5707H13.2654C12.6176 11.5707 12.0906 12.0977 12.0906 12.7455C12.0906 13.0479 12.1639 13.3325 12.2928 13.5848H8.29332L7.20174 8.31836ZM13.9355 13.583C13.4729 13.583 13.0963 13.2072 13.0963 12.7437C13.0963 12.6516 13.1714 12.5755 13.2645 12.5755H23.2676C23.5459 12.5755 23.7714 12.35 23.7714 12.0718C23.7714 11.7935 23.5459 11.568 23.2676 11.568H14.4581C14.5744 9.99599 15.2418 8.64047 16.405 7.62494C17.6442 6.5432 19.3603 5.94731 21.2348 5.94731C23.1093 5.94731 24.8254 6.5432 26.0646 7.62494C27.2277 8.64047 27.8952 9.99599 28.0115 11.568H25.2808C25.0025 11.568 24.7771 11.7935 24.7771 12.0718C24.7771 12.35 25.0025 12.5755 25.2808 12.5755H29.2051C29.2973 12.5755 29.3733 12.6507 29.3733 12.7437C29.3733 13.2063 28.9966 13.583 28.5341 13.583H13.9355ZM5.87126 32.9594C5.40868 32.9594 5.032 32.5827 5.032 32.1202C5.032 31.6576 5.40868 31.2809 5.87126 31.2809C6.33384 31.2809 6.71053 31.6576 6.71053 32.1202C6.71053 32.5827 6.33384 32.9594 5.87126 32.9594ZM28.4866 32.9594C28.0241 32.9594 27.6474 32.5827 27.6474 32.1202C27.6474 31.6576 28.0232 31.2809 28.4866 31.2809C28.9492 31.2809 29.3259 31.6576 29.3259 32.1202C29.3259 32.5827 28.9483 32.9594 28.4866 32.9594Z" fill="#3F3D56"/>
</g>
</svg>
