<svg width="36" height="34" viewBox="0 0 36 34" fill="none" xmlns="http://www.w3.org/2000/svg">
<path d="M34.2675 27.1051H33.9228V5.73654C33.9228 4.18013 33.6019 2.29369 31.0986 1.51779C29.921 1.15282 28.5172 0.84669 26.9259 0.607668C26.6436 0.56446 26.3798 0.759355 26.3375 1.0425C26.2952 1.32474 26.4901 1.58858 26.7723 1.63087C28.3122 1.86254 29.6645 2.15672 30.7925 2.50606C32.5319 3.0457 32.8885 4.18749 32.8885 5.73654V27.1042H31.3358C31.6613 26.6721 31.8543 26.1343 31.8543 25.5524V16.9586C31.8543 15.5328 30.6941 14.3735 29.2683 14.3735H25.9689L25.0431 12.5845C24.9778 12.4577 24.862 12.363 24.7241 12.3244C23.0546 11.8537 20.4392 11.8537 18.7697 12.3244C18.6318 12.363 18.5169 12.4577 18.4507 12.5845L17.5249 14.3735H16.077V14.2007C16.077 12.7748 14.9168 11.6156 13.491 11.6156H11.9392V8.96977C12.1212 9.00562 12.2949 9.04607 12.4577 9.09204C12.5045 9.10491 12.5523 9.11135 12.5983 9.11135C12.8245 9.11135 13.0313 8.96242 13.0957 8.73443C13.1729 8.45955 13.0129 8.17364 12.738 8.09642C11.0686 7.62573 8.45312 7.62573 6.78456 8.09642C6.50968 8.17364 6.34972 8.45955 6.42694 8.73443C6.50416 9.0093 6.79007 9.16926 7.06495 9.09204C7.22767 9.04607 7.40142 9.00562 7.58344 8.96977V11.6165H6.03256C4.6067 11.6165 3.44744 12.7767 3.44744 14.2016C3.44744 14.4875 3.6791 14.7192 3.96501 14.7192C4.25 14.7192 4.48259 14.4875 4.48259 14.2016C4.48259 13.3466 5.17851 12.6507 6.03347 12.6507H13.4919C14.3469 12.6507 15.0437 13.3466 15.0437 14.2016V17.9818H4.48167V16.2701C4.48167 15.9851 4.25 15.7534 3.96409 15.7534C3.67819 15.7534 3.44652 15.9851 3.44652 16.2701V25.5533C3.44652 26.1343 3.63957 26.6721 3.96501 27.1051H2.41321V5.73654C2.41321 4.18749 2.7699 3.04478 4.50925 2.50606C7.57057 1.55732 12.2379 1.03423 17.6509 1.03423C20.11 1.03423 22.412 1.13995 24.4943 1.34772C24.7783 1.37622 25.0321 1.16845 25.0606 0.884382C25.0891 0.600314 24.8813 0.346582 24.5972 0.318083C22.481 0.10756 20.1441 0 17.6509 0C12.1368 0 7.36097 0.53872 4.20311 1.51871C1.69982 2.29369 1.37897 4.18013 1.37897 5.73654V27.1042H1.03423C0.464255 27.1042 0 27.5685 0 28.1384V29.8622C0 30.4321 0.464255 30.8964 1.03423 30.8964H1.65753C1.4801 31.2016 1.37897 31.5546 1.37897 31.9315C1.37897 33.0724 2.30657 34 3.44744 34C4.58831 34 5.5159 33.0724 5.5159 31.9315C5.5159 31.5546 5.41477 31.2016 5.23735 30.8973H19.6789C19.9648 30.8973 20.1965 30.6656 20.1965 30.3797C20.1965 30.0938 19.9648 29.8622 19.6789 29.8622H1.03423V28.1384H34.2675V29.8622H21.7474C21.4614 29.8622 21.2298 30.0938 21.2298 30.3797C21.2298 30.6656 21.4614 30.8973 21.7474 30.8973H30.0644C29.8879 31.2016 29.7859 31.5546 29.7859 31.9315C29.7859 33.0724 30.7134 34 31.8543 34C32.9952 34 33.9228 33.0724 33.9228 31.9315C33.9228 31.5546 33.8207 31.2016 33.6442 30.8973H34.2675C34.8375 30.8973 35.3018 30.4331 35.3018 29.8631V28.1394C35.3018 27.5685 34.8375 27.1051 34.2675 27.1051ZM8.61859 8.82636C9.36232 8.76109 10.163 8.76109 10.9059 8.82636V11.6156H8.61859V8.82636ZM4.48167 31.9315C4.48167 32.5015 4.01741 32.9658 3.44744 32.9658C2.87746 32.9658 2.41321 32.5015 2.41321 31.9315C2.41321 31.3616 2.87746 30.8973 3.44744 30.8973C4.01741 30.8973 4.48167 31.3606 4.48167 31.9315ZM19.2643 13.2648C20.6874 12.9201 22.8073 12.9201 24.2304 13.2648L24.805 14.3744H18.6897L19.2643 13.2648ZM29.2692 15.4087C30.1242 15.4087 30.821 16.1046 30.821 16.9596V25.5533C30.821 26.4083 30.1251 27.1051 29.2692 27.1051H15.5585C15.884 26.673 16.077 26.1352 16.077 25.5533V15.4087H29.2692ZM6.03256 27.1051C5.17667 27.1051 4.48167 26.4092 4.48167 25.5533V21.0845H11.3857C11.6716 21.0845 11.9024 20.8529 11.9024 20.5669C11.9024 20.281 11.6716 20.0494 11.3857 20.0494H4.48167V19.0151H15.0428V20.0494H13.4542C13.1692 20.0494 12.9366 20.281 12.9366 20.5669C12.9366 20.8529 13.1683 21.0845 13.4542 21.0845H15.0428V25.5533C15.0428 26.4083 14.3469 27.1051 13.491 27.1051H6.03256ZM32.8885 31.9315C32.8885 32.5015 32.4243 32.9658 31.8543 32.9658C31.2843 32.9658 30.8201 32.5015 30.8201 31.9315C30.8201 31.3616 31.2843 30.8973 31.8543 30.8973C32.4243 30.8973 32.8885 31.3606 32.8885 31.9315Z" fill="#3F3D56"/>
<path d="M18.6732 25.3814C18.9591 25.3814 19.1908 25.1497 19.1908 24.8638V17.649C19.1908 17.3641 18.9591 17.1324 18.6732 17.1324C18.3882 17.1324 18.1556 17.3641 18.1556 17.649V24.8638C18.1566 25.1497 18.3882 25.3814 18.6732 25.3814Z" fill="#3F3D56"/>
<path d="M21.7473 25.3814C22.0332 25.3814 22.2649 25.1497 22.2649 24.8638V17.649C22.2649 17.3641 22.0332 17.1324 21.7473 17.1324C21.4614 17.1324 21.2297 17.3641 21.2297 17.649V24.8638C21.2297 25.1497 21.4614 25.3814 21.7473 25.3814Z" fill="#3F3D56"/>
<path d="M24.8215 25.3814C25.1074 25.3814 25.3391 25.1497 25.3391 24.8638V17.649C25.3391 17.3641 25.1074 17.1324 24.8215 17.1324C24.5365 17.1324 24.304 17.3641 24.304 17.649V24.8638C24.304 25.1497 24.5356 25.3814 24.8215 25.3814Z" fill="#3F3D56"/>
<path d="M27.8949 25.3814C28.1808 25.3814 28.4125 25.1497 28.4125 24.8638V17.649C28.4125 17.3641 28.1808 17.1324 27.8949 17.1324C27.609 17.1324 27.3773 17.3641 27.3773 17.649V24.8638C27.3782 25.1497 27.6099 25.3814 27.8949 25.3814Z" fill="#3F3D56"/>
</svg>
