<svg width="20" height="20" viewBox="0 0 20 20" fill="none" xmlns="http://www.w3.org/2000/svg">
<path d="M10.6119 20C10.1951 20 9.7787 20 9.36182 20C9.31174 19.989 9.26217 19.9718 9.21156 19.9677C7.2044 19.809 5.3882 19.1308 3.82557 17.8634C1.01074 15.5808 -0.261276 12.6048 0.0444678 8.99427C0.226557 6.84885 1.07753 4.95908 2.51911 3.35836C4.42558 1.24216 6.81674 0.116228 9.66287 0.00770446C11.7499 -0.0716011 13.6881 0.461103 15.4308 1.61677C17.8329 3.21019 19.3079 5.43387 19.8322 8.27583C19.8995 8.63896 19.935 9.00836 19.9856 9.37463C19.9856 9.77846 19.9856 10.1818 19.9856 10.5856C19.9747 10.6419 19.958 10.6973 19.9538 10.7541C19.8672 11.9604 19.5839 13.1187 19.0538 14.205C17.5433 17.3015 15.0953 19.1908 11.7086 19.8466C11.3471 19.9165 10.9777 19.9494 10.6119 20ZM12.282 11.29C14.4708 11.9025 16.1857 13.1369 17.4651 14.9834C19.8176 11.5769 19.5802 6.28432 15.7099 3.0521C12.0326 -0.0189047 6.41761 0.423015 3.2626 4.0142C0.0809901 7.63564 0.643955 12.4341 2.52068 14.9693C3.79739 13.1255 5.51707 11.8988 7.69275 11.2894C5.58698 9.7555 5.48524 6.88015 7.12405 5.2043C8.70129 3.59158 11.3069 3.6015 12.8763 5.233C14.4781 6.89842 14.3883 9.74298 12.282 11.29ZM3.14208 15.826C6.80005 20.1456 13.4262 19.9489 16.828 15.8208C15.2101 13.3874 12.964 12.0209 10.0187 12.011C7.04944 12.0016 4.78245 13.366 3.14208 15.826ZM10.0719 10.9983C11.7702 10.9164 13.0589 9.54002 12.9869 7.88452C12.9134 6.19771 11.4968 4.91473 9.80426 5.00291C8.19102 5.08691 6.90231 6.51858 6.98787 8.13287C7.07448 9.77794 8.47172 11.0755 10.0719 10.9983Z" fill="#3F3D56"/>
</svg>
